<?xml version="1.0" encoding="UTF-8" standalone="no"?>
<!-- Created with Inkscape (http://www.inkscape.org/) -->

<svg
   xmlns:dc="http://purl.org/dc/elements/1.1/"
   xmlns:cc="http://creativecommons.org/ns#"
   xmlns:rdf="http://www.w3.org/1999/02/22-rdf-syntax-ns#"
   xmlns:svg="http://www.w3.org/2000/svg"
   xmlns="http://www.w3.org/2000/svg"
   xmlns:sodipodi="http://sodipodi.sourceforge.net/DTD/sodipodi-0.dtd"
   xmlns:inkscape="http://www.inkscape.org/namespaces/inkscape"
   width="529.16663mm"
   height="69.325897mm"
   viewBox="0 0 529.16663 69.325897"
   version="1.1"
   id="svg1630"
   inkscape:version="0.92.2 (5c3e80d, 2017-08-06)"
   sodipodi:docname="bluespace.svg">
  <defs
     id="defs1624" />
  <sodipodi:namedview
     id="base"
     pagecolor="#ffffff"
     bordercolor="#666666"
     borderopacity="1.0"
     inkscape:pageopacity="0.0"
     inkscape:pageshadow="2"
     inkscape:zoom="0.35"
     inkscape:cx="904.28571"
     inkscape:cy="553.86669"
     inkscape:document-units="mm"
     inkscape:current-layer="layer1"
     showgrid="false"
     inkscape:pagecheckerboard="true"
     fit-margin-top="0"
     fit-margin-left="0"
     fit-margin-right="0"
     fit-margin-bottom="0"
     inkscape:window-width="1366"
     inkscape:window-height="745"
     inkscape:window-x="-8"
     inkscape:window-y="-8"
     inkscape:window-maximized="1" />
  <metadata
     id="metadata1627">
    <rdf:RDF>
      <cc:Work
         rdf:about="">
        <dc:format>image/svg+xml</dc:format>
        <dc:type
           rdf:resource="http://purl.org/dc/dcmitype/StillImage" />
        <dc:title></dc:title>
      </cc:Work>
    </rdf:RDF>
  </metadata>
  <g
     inkscape:label="Layer 1"
     inkscape:groupmode="layer"
     id="layer1"
     transform="translate(216.20238,-226.05133)">
    <g
       aria-label="BLUE SPACE"
       style="font-style:normal;font-variant:normal;font-weight:normal;font-stretch:normal;font-size:96.2859726px;line-height:1.25;font-family:'iCiel Brandon Text';-inkscape-font-specification:'iCiel Brandon Text';letter-spacing:0px;word-spacing:0px;opacity:1;fill:#ffffff;fill-opacity:1;stroke:none;stroke-width:2.40714955"
       id="text6130">
      <path
         d="m -181.63572,260.32913 q 2.11829,0.77029 4.1403,2.02201 2.11829,1.15543 3.75515,3.08115 1.63686,1.82943 2.59972,4.42915 1.05915,2.59973 1.05915,5.96973 0,4.04402 -1.63686,7.51031 -1.63686,3.37001 -4.52544,5.87345 -2.7923,2.40714 -6.64373,3.85143 -3.75516,1.34801 -8.18431,1.34801 h -23.30121 q -0.77028,0 -1.348,-0.48143 -0.48143,-0.57772 -0.48143,-1.34801 v -63.74131 q 0,-0.77029 0.48143,-1.25172 0.57772,-0.57771 1.348,-0.57771 h 22.04949 q 4.33287,0 7.99174,1.348 3.75515,1.348 6.45116,3.75515 2.79229,2.40715 4.33287,5.68088 1.54057,3.27372 1.54057,7.02887 0,5.4883 -2.98486,9.33974 -2.88858,3.75515 -6.64374,5.68087 z m -11.6506,-5.00687 q 3.65887,0 5.87345,-2.50343 2.21457,-2.50344 2.21457,-6.1623 0,-3.65887 -2.21457,-5.87345 -2.21458,-2.31086 -5.87345,-2.31086 h -10.49517 v 16.85004 z m 1.348,27.73036 q 3.65887,0 6.06602,-2.50343 2.40715,-2.50344 2.40715,-6.25859 0,-3.65887 -2.40715,-5.96973 -2.40715,-2.40715 -6.06602,-2.40715 h -11.84317 v 17.1389 z"
         style="font-style:normal;font-variant:normal;font-weight:normal;font-stretch:normal;font-family:'iCiel Brandon Text';-inkscape-font-specification:'iCiel Brandon Text';fill:#ffffff;fill-opacity:1;stroke-width:2.40714955"
         id="path1640" />
      <path
         d="m -156.96394,228.84362 q 0,-0.77029 0.48143,-1.25172 0.57772,-0.57771 1.348,-0.57771 h 8.85831 q 0.77029,0 1.25172,0.57771 0.57772,0.48143 0.57772,1.25172 v 54.01643 h 24.55292 q 0.77029,0 1.25172,0.57772 0.57771,0.48143 0.57771,1.25171 v 7.89545 q 0,0.77029 -0.57771,1.34801 -0.48143,0.48143 -1.25172,0.48143 h -35.24067 q -0.77028,0 -1.348,-0.48143 -0.48143,-0.57772 -0.48143,-1.34801 z"
         style="font-style:normal;font-variant:normal;font-weight:normal;font-stretch:normal;font-family:'iCiel Brandon Text';-inkscape-font-specification:'iCiel Brandon Text';fill:#ffffff;fill-opacity:1;stroke-width:2.40714955"
         id="path1642" />
      <path
         d="m -110.43525,228.84362 q 0,-0.77029 0.48143,-1.25172 0.57771,-0.57771 1.348,-0.57771 h 9.14717 q 0.770288,0 1.251718,0.57771 0.577716,0.48143 0.577716,1.25172 v 40.15125 q 0,6.1623 3.755153,10.01374 3.851438,3.85144 10.206313,3.85144 3.177437,0 5.680872,-0.96286 2.599721,-1.05914 4.429155,-2.88858 1.925719,-1.82943 2.888579,-4.33287 1.059146,-2.50343 1.059146,-5.58458 v -40.24754 q 0,-0.77029 0.481429,-1.25172 0.577716,-0.57771 1.348004,-0.57771 h 9.147167 q 0.770288,0 1.251718,0.57771 0.577716,0.48143 0.577716,1.25172 v 40.82525 q 0,5.4883 -2.118291,10.20632 -2.022006,4.71801 -5.680873,8.1843 -3.562581,3.37001 -8.473165,5.39202 -4.910585,1.92572 -10.591457,1.92572 -5.680873,0 -10.591457,-1.92572 -4.814299,-2.02201 -8.473163,-5.39202 -3.56258,-3.46629 -5.68088,-8.1843 -2.022,-4.71802 -2.022,-10.20632 z"
         style="font-style:normal;font-variant:normal;font-weight:normal;font-stretch:normal;font-family:'iCiel Brandon Text';-inkscape-font-specification:'iCiel Brandon Text';fill:#ffffff;fill-opacity:1;stroke-width:2.40714955"
         id="path1644" />
      <path
         d="m -41.119876,228.84362 q 0,-0.77029 0.48143,-1.25172 0.577715,-0.57771 1.348003,-0.57771 h 39.18839104 q 0.77028778,0 1.25171766,0.57771 0.5777158,0.48143 0.5777158,1.25172 v 7.89545 q 0,0.77029 -0.5777158,1.348 -0.48142988,0.48143 -1.25171766,0.48143 H -28.6027 v 15.7909 h 23.7826354 q 0.7702878,0 1.2517176,0.57772 0.5777159,0.48143 0.5777159,1.25172 v 7.99173 q 0,0.77029 -0.5777159,1.34801 -0.4814298,0.48143 -1.2517176,0.48143 H -28.6027 v 16.85004 h 28.50064804 q 0.77028778,0 1.25171766,0.57772 0.5777158,0.48143 0.5777158,1.25171 v 7.89545 q 0,0.77029 -0.5777158,1.34801 -0.48142988,0.48143 -1.25171766,0.48143 H -39.290443 q -0.770288,0 -1.348003,-0.48143 -0.48143,-0.57772 -0.48143,-1.34801 z"
         style="font-style:normal;font-variant:normal;font-weight:normal;font-stretch:normal;font-family:'iCiel Brandon Text';-inkscape-font-specification:'iCiel Brandon Text';fill:#ffffff;fill-opacity:1;stroke-width:2.40714955"
         id="path1646" />
      <path
         d="m 55.879204,295.37723 q -4.525441,0 -8.088022,-0.86658 -3.466295,-0.77028 -6.066016,-1.92572 -2.503435,-1.25171 -4.236583,-2.50343 -1.733147,-1.348 -2.792293,-2.21458 -0.770288,-0.57771 -0.96286,-1.15543 -0.192572,-0.57772 0.48143,-1.73315 l 3.466295,-5.96973 q 0.577716,-1.05914 1.540576,-1.05914 1.059145,-0.0963 1.733147,0.38514 2.984865,2.21458 6.354874,4.1403 3.466295,1.82943 8.184308,1.82943 3.755153,0 6.258588,-2.11829 2.503436,-2.21458 2.503436,-5.29573 0,-3.65887 -3.081152,-6.35487 -3.081151,-2.69601 -9.147167,-5.19945 -3.370009,-1.348 -6.643732,-3.17743 -3.273723,-1.82944 -5.873444,-4.33287 -2.503436,-2.50344 -4.044011,-5.77716 -1.540576,-3.27372 -1.540576,-7.51031 0,-3.17743 1.251718,-6.45116 1.251717,-3.37001 3.851439,-5.96973 2.599721,-2.696 6.643732,-4.33287 4.140297,-1.73314 9.917455,-1.73314 3.658867,0 6.836304,0.86657 3.273723,0.77029 5.777158,1.82943 2.503436,1.05915 4.140297,2.1183 1.733148,1.05914 2.503436,1.63686 0.770287,0.48143 0.866573,1.44429 0.192572,0.96286 -0.288858,1.73314 l -3.658867,5.4883 q -0.577715,0.86658 -1.540575,1.34801 -0.96286,0.38514 -1.829434,-0.19257 -3.081151,-1.92572 -6.258588,-3.56258 -3.081151,-1.73315 -7.125162,-1.73315 -4.140297,0 -6.354874,2.022 -2.118291,1.92572 -2.118291,4.71802 0,3.37001 2.696007,5.87344 2.792293,2.50344 8.665737,4.91059 3.466295,1.44428 7.028876,3.27372 3.658867,1.82943 6.547447,4.42915 2.888579,2.50344 4.718012,5.96973 1.829434,3.4663 1.829434,8.08802 0,3.75516 -1.540576,7.22145 -1.540575,3.37001 -4.429155,6.06602 -2.888579,2.59972 -7.028876,4.23658 -4.044011,1.54058 -9.147167,1.54058 z"
         style="font-style:normal;font-variant:normal;font-weight:normal;font-stretch:normal;font-family:'iCiel Brandon Text';-inkscape-font-specification:'iCiel Brandon Text';fill:#ffffff;fill-opacity:1;stroke-width:2.40714955"
         id="path1648" />
      <path
         d="m 89.956921,228.84362 q 0,-0.77029 0.48143,-1.25172 0.577716,-0.57771 1.348004,-0.57771 h 22.627205 q 4.42915,0 8.37688,1.73314 3.94772,1.63687 6.8363,4.52545 2.98487,2.88857 4.62173,6.8363 1.73315,3.85144 1.73315,8.18431 0,4.52544 -1.73315,8.47316 -1.63686,3.85144 -4.62173,6.83631 -2.88858,2.98486 -6.8363,4.71801 -3.85144,1.63686 -8.2806,1.63686 H 102.4741 v 22.6272 q 0,0.77029 -0.57772,1.34801 -0.48143,0.48143 -1.25172,0.48143 h -8.858305 q -0.770288,0 -1.348004,-0.48143 -0.48143,-0.57772 -0.48143,-1.34801 z m 24.071489,29.36722 q 2.02201,0 3.75516,-0.77029 1.73314,-0.77028 2.98486,-2.11829 1.34801,-1.348 2.02201,-3.17743 0.77029,-1.82944 0.77029,-3.94773 0,-2.022 -0.77029,-3.65887 -0.674,-1.73314 -2.02201,-2.98486 -1.25172,-1.25172 -2.98486,-1.92572 -1.73315,-0.77029 -3.75516,-0.77029 H 102.4741 v 19.35348 z"
         style="font-style:normal;font-variant:normal;font-weight:normal;font-stretch:normal;font-family:'iCiel Brandon Text';-inkscape-font-specification:'iCiel Brandon Text';fill:#ffffff;fill-opacity:1;stroke-width:2.40714955"
         id="path1650" />
      <path
         d="m 134.94204,294.41437 q -1.05914,0 -1.63686,-0.77029 -0.48143,-0.77029 0,-1.73315 l 29.94494,-64.80046 q 0.48143,-1.05914 1.63686,-1.05914 h 0.96286 q 0.77029,0 1.05915,0.28886 0.38514,0.28885 0.57771,0.77028 l 29.65608,64.80046 q 0.48143,0.96286 -0.0963,1.73315 -0.48143,0.77029 -1.54058,0.77029 h -8.37688 q -1.05915,0 -1.73315,-0.38515 -0.57771,-0.48143 -1.05914,-1.54057 l -4.71802,-10.39889 h -28.7895 l -4.71801,10.39889 q -0.28886,0.77029 -0.96286,1.348 -0.67401,0.57772 -1.82944,0.57772 z m 39.95868,-23.01235 -9.6286,-21.18291 h -0.28885 l -9.43603,21.18291 z"
         style="font-style:normal;font-variant:normal;font-weight:normal;font-stretch:normal;font-family:'iCiel Brandon Text';-inkscape-font-specification:'iCiel Brandon Text';fill:#ffffff;fill-opacity:1;stroke-width:2.40714955"
         id="path1652" />
      <path
         d="m 199.97267,260.81056 q 0,-7.22144 2.696,-13.57632 2.7923,-6.35487 7.41402,-10.9766 4.71802,-4.71801 11.07289,-7.41402 6.35487,-2.79229 13.57632,-2.79229 7.31774,0 12.80604,2.31086 5.58458,2.21458 10.49517,6.64373 1.44429,1.34801 0.0963,2.69601 l -5.87344,6.06602 q -1.15543,1.25171 -2.40715,0 -3.08115,-2.69601 -6.93259,-4.1403 -3.85144,-1.54058 -7.89545,-1.54058 -4.62173,0 -8.56945,1.82944 -3.94773,1.73314 -6.8363,4.8143 -2.7923,3.08115 -4.42916,7.22144 -1.63686,4.04401 -1.63686,8.56946 0,4.52544 1.63686,8.56945 1.63686,4.04401 4.52544,7.12516 2.88858,2.98486 6.83631,4.8143 3.94772,1.73314 8.56945,1.73314 4.33287,0 7.99173,-1.44428 3.65887,-1.54058 6.74002,-4.04402 0.57772,-0.48143 1.25172,-0.48143 0.674,0 1.15543,0.48143 l 5.96973,6.16231 q 0.57772,0.48143 0.48143,1.348 -0.0963,0.77029 -0.57772,1.25172 -4.91058,4.8143 -10.9766,7.12516 -5.96973,2.21458 -12.42089,2.21458 -7.22145,0 -13.57632,-2.69601 -6.35487,-2.69601 -11.07289,-7.31773 -4.62172,-4.71802 -7.41402,-10.9766 -2.696,-6.35488 -2.696,-13.57633 z"
         style="font-style:normal;font-variant:normal;font-weight:normal;font-stretch:normal;font-family:'iCiel Brandon Text';-inkscape-font-specification:'iCiel Brandon Text';fill:#ffffff;fill-opacity:1;stroke-width:2.40714955"
         id="path1654" />
      <path
         d="m 270.11702,228.84362 q 0,-0.77029 0.48143,-1.25172 0.57771,-0.57771 1.348,-0.57771 h 39.18839 q 0.77029,0 1.25172,0.57771 0.57771,0.48143 0.57771,1.25172 v 7.89545 q 0,0.77029 -0.57771,1.348 -0.48143,0.48143 -1.25172,0.48143 h -28.50065 v 15.7909 h 23.78264 q 0.77029,0 1.25172,0.57772 0.57771,0.48143 0.57771,1.25172 v 7.99173 q 0,0.77029 -0.57771,1.34801 -0.48143,0.48143 -1.25172,0.48143 h -23.78264 v 16.85004 h 28.50065 q 0.77029,0 1.25172,0.57772 0.57771,0.48143 0.57771,1.25171 v 7.89545 q 0,0.77029 -0.57771,1.34801 -0.48143,0.48143 -1.25172,0.48143 h -39.18839 q -0.77029,0 -1.348,-0.48143 -0.48143,-0.57772 -0.48143,-1.34801 z"
         style="font-style:normal;font-variant:normal;font-weight:normal;font-stretch:normal;font-family:'iCiel Brandon Text';-inkscape-font-specification:'iCiel Brandon Text';fill:#ffffff;fill-opacity:1;stroke-width:2.40714955"
         id="path1656" />
    </g>
  </g>
</svg>
