<?xml version="1.0" encoding="UTF-8" standalone="no"?>
<!-- Created with Inkscape (http://www.inkscape.org/) -->

<svg
   xmlns:dc="http://purl.org/dc/elements/1.1/"
   xmlns:cc="http://creativecommons.org/ns#"
   xmlns:rdf="http://www.w3.org/1999/02/22-rdf-syntax-ns#"
   xmlns:svg="http://www.w3.org/2000/svg"
   xmlns="http://www.w3.org/2000/svg"
   xmlns:sodipodi="http://sodipodi.sourceforge.net/DTD/sodipodi-0.dtd"
   xmlns:inkscape="http://www.inkscape.org/namespaces/inkscape"
   width="863.89227"
   height="1184.1538"
   viewBox="0 0 228.5715 313.30736"
   version="1.1"
   id="svg8"
   inkscape:version="0.92.3 (2405546, 2018-03-11)"
   sodipodi:docname="blueship-standing.svg"
   inkscape:export-filename="D:\STUDIO\projects\Web\Blue Space\WEB\img\background\Blue Space.png"
   inkscape:export-xdpi="96"
   inkscape:export-ydpi="96"
   style="enable-background:new">
  <defs
     id="defs2">
    <inkscape:path-effect
       effect="perspective-envelope"
       up_left_point="2833.3594,1925.5417"
       up_right_point="3659.4648,1923.8926"
       down_left_point="2890.7353,4725.8653"
       down_right_point="5547.8909,5312.6949"
       id="path-effect53450"
       is_visible="true"
       deform_type="perspective"
       horizontal_mirror="false"
       vertical_mirror="false"
       overflow_perspective="false" />
    <inkscape:path-effect
       effect="perspective-envelope"
       up_left_point="718.96434,545.83077"
       up_right_point="979.96666,505.62224"
       down_left_point="-88.827402,2960.4764"
       down_right_point="2773.3388,2094.0582"
       id="path-effect53256"
       is_visible="true"
       deform_type="perspective"
       horizontal_mirror="false"
       vertical_mirror="false"
       overflow_perspective="false" />
    <inkscape:path-effect
       effect="perspective-envelope"
       up_left_point="2708.0161,1931.0566"
       up_right_point="3703.8102,1931.0566"
       down_left_point="1964.4409,4427.9787"
       down_right_point="5454.0697,3974.0665"
       id="path-effect53213"
       is_visible="true"
       deform_type="perspective"
       horizontal_mirror="false"
       vertical_mirror="false"
       overflow_perspective="false" />
    <inkscape:perspective
       sodipodi:type="inkscape:persp3d"
       inkscape:vp_x="-37.71179 : 61.697594 : 1"
       inkscape:vp_y="0 : 999.99999 : 0"
       inkscape:vp_z="692.12228 : 456.56223 : 1"
       inkscape:persp3d-origin="508.00001 : 190.5 : 1"
       id="perspective2718" />
    <mask
       maskUnits="userSpaceOnUse"
       id="mask2678">
      <circle
         r="66.145836"
         cy="255.79308"
         cx="510.37244"
         id="circle2680"
         style="opacity:1;fill:#ffffff;fill-opacity:1;stroke:none;stroke-width:0.27162853;stroke-linecap:round;stroke-linejoin:round;stroke-miterlimit:4;stroke-dasharray:none;stroke-opacity:1" />
    </mask>
    <mask
       maskUnits="userSpaceOnUse"
       id="mask2684">
      <circle
         r="66.145836"
         cy="227.27225"
         cx="693.00494"
         id="circle2686"
         style="opacity:1;fill:#ffffff;fill-opacity:1;stroke:none;stroke-width:0.27162853;stroke-linecap:round;stroke-linejoin:round;stroke-miterlimit:4;stroke-dasharray:none;stroke-opacity:1" />
    </mask>
    <mask
       maskUnits="userSpaceOnUse"
       id="mask2690">
      <circle
         r="66.145836"
         cy="362.86124"
         cx="754.013"
         id="circle2692"
         style="opacity:1;fill:#ffffff;fill-opacity:1;stroke:none;stroke-width:0.27162853;stroke-linecap:round;stroke-linejoin:round;stroke-miterlimit:4;stroke-dasharray:none;stroke-opacity:1" />
    </mask>
    <mask
       maskUnits="userSpaceOnUse"
       id="mask2694">
      <circle
         style="opacity:1;fill:#ffffff;fill-opacity:1;stroke:none;stroke-width:0.27162853;stroke-linecap:round;stroke-linejoin:round;stroke-miterlimit:4;stroke-dasharray:none;stroke-opacity:1"
         id="circle2696"
         cx="502.38013"
         cy="371.08875"
         r="66.145836" />
    </mask>
  </defs>
  <sodipodi:namedview
     id="base"
     pagecolor="#000000"
     bordercolor="#666666"
     borderopacity="1.0"
     inkscape:pageopacity="0"
     inkscape:pageshadow="2"
     inkscape:zoom="0.16"
     inkscape:cx="1235.9878"
     inkscape:cy="1262.2337"
     inkscape:document-units="px"
     inkscape:current-layer="g50433"
     showgrid="false"
     units="px"
     inkscape:window-width="1366"
     inkscape:window-height="745"
     inkscape:window-x="-8"
     inkscape:window-y="-8"
     inkscape:window-maximized="1"
     inkscape:snap-page="true"
     inkscape:pagecheckerboard="true"
     inkscape:showpageshadow="false"
     inkscape:snap-bbox="false"
     inkscape:snap-smooth-nodes="true"
     inkscape:snap-grids="false"
     inkscape:bbox-nodes="true"
     inkscape:snap-bbox-edge-midpoints="false"
     inkscape:bbox-paths="false"
     inkscape:snap-object-midpoints="true"
     inkscape:snap-nodes="false"
     inkscape:object-paths="false"
     inkscape:snap-intersection-paths="true"
     showguides="false"
     inkscape:snap-bbox-midpoints="false"
     inkscape:object-nodes="true"
     inkscape:snap-global="true"
     inkscape:snap-others="true"
     inkscape:guide-bbox="true"
     inkscape:snap-to-guides="true"
     inkscape:snap-center="true"
     inkscape:snap-midpoints="false"
     inkscape:measure-start="0,0"
     inkscape:measure-end="0,0"
     fit-margin-top="0"
     fit-margin-left="0"
     fit-margin-right="0"
     fit-margin-bottom="0">
    <inkscape:grid
       type="xygrid"
       id="grid830"
       spacingx="2.6458333"
       spacingy="2.6458333"
       empspacing="4"
       originx="-741.63492"
       originy="-7.2e-006" />
    <sodipodi:guide
       position="619.2283,-636.58143"
       orientation="-49.40708,379.8364"
       id="guide53219"
       inkscape:locked="false" />
    <sodipodi:guide
       position="-52.131486,458.25786"
       orientation="1495.8905,917.28597"
       id="guide53388"
       inkscape:locked="false" />
    <sodipodi:guide
       position="-52.131486,458.25786"
       orientation="1583.7216,227.36228"
       id="guide53392"
       inkscape:locked="false" />
  </sodipodi:namedview>
  <metadata
     id="metadata5">
    <rdf:RDF>
      <cc:Work
         rdf:about="">
        <dc:format>image/svg+xml</dc:format>
        <dc:type
           rdf:resource="http://purl.org/dc/dcmitype/StillImage" />
        <dc:title></dc:title>
      </cc:Work>
    </rdf:RDF>
  </metadata>
  <g
     style="display:inline"
     inkscape:label="spaceship-standing"
     id="g50433"
     inkscape:groupmode="layer"
     transform="translate(-741.63491,-258.19264)">
    <path
       inkscape:connector-curvature="0"
       style="display:inline;opacity:0.1;fill:#000000;fill-opacity:1;stroke:none;stroke-width:0.90615821px;stroke-linecap:butt;stroke-linejoin:miter;stroke-opacity:1"
       d="m 932.202,509.02991 -73.43531,9.34879 73.50043,-9.24235 z m -34.38445,4.49585 10.54044,50.00263 -14.62857,-9.3276 -36.94039,4.64519 -13.82035,-37.04786 c -0.2264,-0.60695 -0.8954,-1.03314 -1.50066,-0.95705 -0.60526,0.0761 -0.91308,0.62566 -0.6899,1.23301 l 13.62397,37.07265 -37.0618,4.66071 -4.30879,7.69255 H 970.20641 C 944.9541,535.78378 897.81755,513.52576 897.81755,513.52576 Z m -112.87477,14.25081 -0.16486,0.0212 c -0.82111,0.96708 -15.76054,18.80587 -22.13145,43.70224 h 45.73106 z m -34.79581,4.4297 -0.4868,0.062 5.63221,39.2317 h 0.54623 z"
       id="path6274" />
    <path
       sodipodi:nodetypes="cccc"
       inkscape:connector-curvature="0"
       id="path53262"
       d="m 791.66126,482.24487 -7.22621,45.54069 c 0,0 -87.0386,-53.52067 -12.87382,-109.38445 z"
       style="display:inline;opacity:1;fill:#006fe6;fill-opacity:1;stroke:none;stroke-width:0.21656467px;stroke-linecap:butt;stroke-linejoin:miter;stroke-opacity:1" />
    <path
       style="display:inline;opacity:1;fill:#006fe6;fill-opacity:1;stroke:none;stroke-width:0.21656467px;stroke-linecap:butt;stroke-linejoin:miter;stroke-opacity:1"
       d="m 879.01373,471.18025 18.40597,42.27756 c 0,0 70.85269,-73.62108 -14.94311,-109.12103 z"
       id="path53264"
       inkscape:connector-curvature="0"
       sodipodi:nodetypes="cccc" />
    <path
       sodipodi:nodetypes="cccccc"
       inkscape:connector-curvature="0"
       id="path53266"
       d="m 791.66126,482.24487 30.7901,-23.625 56.61029,12.49846 -7.62733,9.8527 -69.92037,8.90124 z"
       style="display:inline;opacity:1;fill:#9fb6cc;fill-opacity:1;stroke:none;stroke-width:0.2035215;stroke-opacity:1" />
    <path
       sodipodi:nodetypes="ccccc"
       inkscape:connector-curvature="0"
       id="path53268"
       d="m 807.4506,258.19264 c -84.45624,73.08704 -15.78934,224.05223 -15.78934,224.05223 l 87.37996,-11.12394 c 0,0 28.47715,-163.33627 -71.59062,-212.92827 z"
       style="display:inline;opacity:1;fill:#c7e3ff;fill-opacity:1;stroke:none;stroke-width:0.21602705px;stroke-linecap:butt;stroke-linejoin:miter;stroke-opacity:1" />
    <circle
       cy="452.42432"
       cx="768.42004"
       id="circle53272"
       style="display:inline;opacity:1;fill:#007bff;fill-opacity:1;stroke:none;stroke-width:0.27988422;stroke-opacity:1"
       r="33.039673"
       transform="rotate(-7.2550388)" />
    <circle
       style="display:inline;opacity:1;fill:#000540;fill-opacity:1;stroke:none;stroke-width:0.24256636;stroke-opacity:1"
       id="circle53274"
       cx="768.42004"
       cy="452.42432"
       r="28.63438"
       transform="rotate(-7.2550388)" />
    <path
       style="display:inline;opacity:0.1;fill:#000000;fill-opacity:1;stroke:none;stroke-width:0.21602705px;stroke-linecap:butt;stroke-linejoin:miter;stroke-opacity:1"
       d="m 807.4506,258.19264 c -69.96886,84.30233 -15.78934,224.05223 -15.78934,224.05223 l 87.37996,-11.12394 c 0,0 28.47715,-163.33627 -71.59062,-212.92827 z"
       id="path53276"
       inkscape:connector-curvature="0"
       sodipodi:nodetypes="ccccc" />
    <path
       style="display:inline;opacity:0;fill:none;stroke:#000000;stroke-width:0.26458332px;stroke-linecap:butt;stroke-linejoin:miter;stroke-opacity:1"
       d="m 783.47547,360.13205 c -10.39155,-50.44331 62.06086,-64.06377 72.42501,-14.46094"
       id="path6253"
       inkscape:connector-curvature="0"
       sodipodi:nodetypes="cc" />
    <g
       aria-label="BLUESHIP"
       transform="rotate(-6.7749358)"
       style="font-style:normal;font-variant:normal;font-weight:normal;font-stretch:normal;font-size:10.58333302px;line-height:1.25;font-family:'iCiel Brandon Text';-inkscape-font-specification:'iCiel Brandon Text';letter-spacing:0px;word-spacing:0px;display:inline;fill:#006fe6;fill-opacity:1;stroke:none;stroke-width:0.26458332"
       id="text6272">
      <path
         d="m 743.93173,491.9172 q 0.23283,0.0847 0.45508,0.22225 0.23283,0.127 0.41275,0.33866 0.17992,0.20109 0.28575,0.48684 0.11642,0.28575 0.11642,0.65616 0,0.4445 -0.17992,0.8255 -0.17992,0.37042 -0.49742,0.64559 -0.30691,0.26458 -0.73025,0.42333 -0.41275,0.14817 -0.89958,0.14817 h -2.56117 q -0.0847,0 -0.14816,-0.0529 -0.0529,-0.0635 -0.0529,-0.14817 v -7.00616 q 0,-0.0847 0.0529,-0.13759 0.0635,-0.0635 0.14816,-0.0635 h 2.42359 q 0.47625,0 0.87841,0.14817 0.41275,0.14817 0.70909,0.41275 0.30691,0.26458 0.47625,0.62442 0.16933,0.35983 0.16933,0.77258 0,0.60325 -0.32808,1.02658 -0.3175,0.41275 -0.73025,0.62442 z m -1.28059,-0.55034 q 0.40217,0 0.64559,-0.27516 0.24341,-0.27517 0.24341,-0.67734 0,-0.40216 -0.24341,-0.64558 -0.24342,-0.254 -0.64559,-0.254 h -1.15358 v 1.85208 z m 0.14817,3.048 q 0.40217,0 0.66675,-0.27516 0.26458,-0.27517 0.26458,-0.68792 0,-0.40217 -0.26458,-0.65617 -0.26458,-0.26458 -0.66675,-0.26458 h -1.30175 v 1.88383 z"
         style="font-style:normal;font-variant:normal;font-weight:normal;font-stretch:normal;font-family:'iCiel Brandon Text';-inkscape-font-specification:'iCiel Brandon Text';letter-spacing:2.64583325px;fill:#006fe6;fill-opacity:1;stroke-width:0.26458332"
         id="path11118"
         inkscape:connector-curvature="0" />
      <path
         d="m 749.28937,488.45645 q 0,-0.0847 0.0529,-0.13759 0.0635,-0.0635 0.14817,-0.0635 h 0.97366 q 0.0847,0 0.13759,0.0635 0.0635,0.0529 0.0635,0.13759 v 5.93725 h 2.69875 q 0.0847,0 0.13758,0.0635 0.0635,0.0529 0.0635,0.13758 v 0.86783 q 0,0.0847 -0.0635,0.14817 -0.0529,0.0529 -0.13758,0.0529 h -3.8735 q -0.0847,0 -0.14817,-0.0529 -0.0529,-0.0635 -0.0529,-0.14817 z"
         style="font-style:normal;font-variant:normal;font-weight:normal;font-stretch:normal;font-family:'iCiel Brandon Text';-inkscape-font-specification:'iCiel Brandon Text';letter-spacing:2.64583325px;fill:#006fe6;fill-opacity:1;stroke-width:0.26458332"
         id="path11120"
         inkscape:connector-curvature="0" />
      <path
         d="m 757.04944,488.45645 q 0,-0.0847 0.0529,-0.13759 0.0635,-0.0635 0.14817,-0.0635 h 1.00542 q 0.0847,0 0.13758,0.0635 0.0635,0.0529 0.0635,0.13759 v 4.41325 q 0,0.67733 0.41275,1.10066 0.42333,0.42334 1.12183,0.42334 0.34925,0 0.62442,-0.10584 0.28575,-0.11641 0.48683,-0.3175 0.21167,-0.20108 0.3175,-0.47625 0.11642,-0.27516 0.11642,-0.61383 v -4.42383 q 0,-0.0847 0.0529,-0.13759 0.0635,-0.0635 0.14816,-0.0635 h 1.00542 q 0.0847,0 0.13758,0.0635 0.0635,0.0529 0.0635,0.13759 v 4.48733 q 0,0.60325 -0.23283,1.12183 -0.22225,0.51859 -0.62442,0.89959 -0.39158,0.37041 -0.93133,0.59266 -0.53975,0.21167 -1.16417,0.21167 -0.62441,0 -1.16416,-0.21167 -0.52917,-0.22225 -0.93134,-0.59266 -0.39158,-0.381 -0.62441,-0.89959 -0.22225,-0.51858 -0.22225,-1.12183 z"
         style="font-style:normal;font-variant:normal;font-weight:normal;font-stretch:normal;font-family:'iCiel Brandon Text';-inkscape-font-specification:'iCiel Brandon Text';letter-spacing:2.64583325px;fill:#006fe6;fill-opacity:1;stroke-width:0.26458332"
         id="path11122"
         inkscape:connector-curvature="0" />
      <path
         d="m 767.31411,488.45645 q 0,-0.0847 0.0529,-0.13759 0.0635,-0.0635 0.14817,-0.0635 h 4.30741 q 0.0847,0 0.13759,0.0635 0.0635,0.0529 0.0635,0.13759 v 0.86783 q 0,0.0847 -0.0635,0.14817 -0.0529,0.0529 -0.13759,0.0529 h -3.13266 v 1.73567 h 2.61408 q 0.0847,0 0.13758,0.0635 0.0635,0.0529 0.0635,0.13758 v 0.87842 q 0,0.0847 -0.0635,0.14817 -0.0529,0.0529 -0.13758,0.0529 h -2.61408 v 1.85209 h 3.13266 q 0.0847,0 0.13759,0.0635 0.0635,0.0529 0.0635,0.13758 v 0.86783 q 0,0.0847 -0.0635,0.14817 -0.0529,0.0529 -0.13759,0.0529 h -4.30741 q -0.0847,0 -0.14817,-0.0529 -0.0529,-0.0635 -0.0529,-0.14817 z"
         style="font-style:normal;font-variant:normal;font-weight:normal;font-stretch:normal;font-family:'iCiel Brandon Text';-inkscape-font-specification:'iCiel Brandon Text';letter-spacing:2.64583325px;fill:#006fe6;fill-opacity:1;stroke-width:0.26458332"
         id="path11124"
         inkscape:connector-curvature="0" />
      <path
         d="m 778.01717,495.76953 q -0.49742,0 -0.889,-0.0952 -0.381,-0.0847 -0.66675,-0.21167 -0.27517,-0.13758 -0.46567,-0.27516 -0.1905,-0.14817 -0.30691,-0.24342 -0.0847,-0.0635 -0.10584,-0.127 -0.0212,-0.0635 0.0529,-0.1905 l 0.381,-0.65617 q 0.0635,-0.11641 0.16933,-0.11641 0.11642,-0.0106 0.1905,0.0423 0.32809,0.24342 0.6985,0.45508 0.381,0.20109 0.89959,0.20109 0.41275,0 0.68791,-0.23284 0.27517,-0.24341 0.27517,-0.58208 0,-0.40217 -0.33867,-0.6985 -0.33866,-0.29633 -1.00541,-0.5715 -0.37042,-0.14817 -0.73025,-0.34925 -0.35984,-0.20108 -0.64559,-0.47625 -0.27516,-0.27517 -0.4445,-0.635 -0.16933,-0.35983 -0.16933,-0.8255 0,-0.34925 0.13758,-0.70908 0.13759,-0.37042 0.42334,-0.65617 0.28575,-0.29633 0.73025,-0.47625 0.45508,-0.1905 1.09008,-0.1905 0.40217,0 0.75142,0.0952 0.35983,0.0847 0.635,0.20108 0.27516,0.11642 0.45508,0.23284 0.1905,0.11641 0.27517,0.17991 0.0847,0.0529 0.0953,0.15875 0.0212,0.10584 -0.0318,0.1905 l -0.40217,0.60325 q -0.0635,0.0953 -0.16933,0.14817 -0.10584,0.0423 -0.20109,-0.0212 -0.33866,-0.21166 -0.68791,-0.39158 -0.33867,-0.1905 -0.78317,-0.1905 -0.45508,0 -0.6985,0.22225 -0.23283,0.21167 -0.23283,0.51858 0,0.37042 0.29633,0.64559 0.30692,0.27516 0.9525,0.53975 0.381,0.15875 0.77258,0.35983 0.40217,0.20108 0.71967,0.48683 0.3175,0.27517 0.51858,0.65617 0.20109,0.381 0.20109,0.889 0,0.41275 -0.16934,0.79375 -0.16933,0.37042 -0.48683,0.66675 -0.3175,0.28575 -0.77258,0.46567 -0.4445,0.16933 -1.00542,0.16933 z"
         style="font-style:normal;font-variant:normal;font-weight:normal;font-stretch:normal;font-family:'iCiel Brandon Text';-inkscape-font-specification:'iCiel Brandon Text';letter-spacing:2.64583325px;fill:#006fe6;fill-opacity:1;stroke-width:0.26458332"
         id="path11126"
         inkscape:connector-curvature="0" />
      <path
         d="m 784.40868,488.45645 q 0,-0.0847 0.0529,-0.13759 0.0635,-0.0635 0.14817,-0.0635 h 0.98425 q 0.0847,0 0.13758,0.0635 0.0635,0.0529 0.0635,0.13759 v 2.80458 h 3.45017 v -2.80458 q 0,-0.0847 0.0529,-0.13759 0.0635,-0.0635 0.14816,-0.0635 h 0.97367 q 0.0847,0 0.13758,0.0635 0.0635,0.0529 0.0635,0.13759 v 7.00616 q 0,0.0847 -0.0635,0.14817 -0.0529,0.0529 -0.13758,0.0529 h -0.97367 q -0.0847,0 -0.14816,-0.0529 -0.0529,-0.0635 -0.0529,-0.14817 v -2.921 h -3.45017 v 2.921 q 0,0.0847 -0.0635,0.14817 -0.0529,0.0529 -0.13758,0.0529 h -0.98425 q -0.0847,0 -0.14817,-0.0529 -0.0529,-0.0635 -0.0529,-0.14817 z"
         style="font-style:normal;font-variant:normal;font-weight:normal;font-stretch:normal;font-family:'iCiel Brandon Text';-inkscape-font-specification:'iCiel Brandon Text';letter-spacing:2.64583325px;fill:#006fe6;fill-opacity:1;stroke-width:0.26458332"
         id="path11128"
         inkscape:connector-curvature="0" />
      <path
         d="m 795.07469,488.45645 q 0,-0.0847 0.0529,-0.13759 0.0635,-0.0635 0.14817,-0.0635 h 0.98425 q 0.0847,0 0.13758,0.0635 0.0635,0.0529 0.0635,0.13759 v 7.00616 q 0,0.0847 -0.0635,0.14817 -0.0529,0.0529 -0.13758,0.0529 h -0.98425 q -0.0847,0 -0.14817,-0.0529 -0.0529,-0.0635 -0.0529,-0.14817 z"
         style="font-style:normal;font-variant:normal;font-weight:normal;font-stretch:normal;font-family:'iCiel Brandon Text';-inkscape-font-specification:'iCiel Brandon Text';letter-spacing:2.64583325px;fill:#006fe6;fill-opacity:1;stroke-width:0.26458332"
         id="path11130"
         inkscape:connector-curvature="0" />
      <path
         d="m 800.90379,488.45645 q 0,-0.0847 0.0529,-0.13759 0.0635,-0.0635 0.14816,-0.0635 h 2.48709 q 0.48683,0 0.92075,0.1905 0.43391,0.17992 0.75141,0.49742 0.32809,0.3175 0.508,0.75142 0.1905,0.42333 0.1905,0.89958 0,0.49742 -0.1905,0.93133 -0.17991,0.42334 -0.508,0.75142 -0.3175,0.32808 -0.75141,0.51858 -0.42334,0.17992 -0.91017,0.17992 h -1.32292 v 2.48708 q 0,0.0847 -0.0635,0.14817 -0.0529,0.0529 -0.13758,0.0529 h -0.97367 q -0.0847,0 -0.14816,-0.0529 -0.0529,-0.0635 -0.0529,-0.14817 z m 2.64583,3.22791 q 0.22225,0 0.41275,-0.0847 0.1905,-0.0847 0.32809,-0.23284 0.14816,-0.14816 0.22225,-0.34925 0.0847,-0.20108 0.0847,-0.43391 0,-0.22225 -0.0847,-0.40217 -0.0741,-0.1905 -0.22225,-0.32808 -0.13759,-0.13759 -0.32809,-0.21167 -0.1905,-0.0847 -0.41275,-0.0847 h -1.27 v 2.12725 z"
         style="font-style:normal;font-variant:normal;font-weight:normal;font-stretch:normal;font-family:'iCiel Brandon Text';-inkscape-font-specification:'iCiel Brandon Text';letter-spacing:2.64583325px;fill:#006fe6;fill-opacity:1;stroke-width:0.26458332"
         id="path11132"
         inkscape:connector-curvature="0" />
    </g>
    <rect
       ry="1.1013224"
       y="512.26917"
       x="767.31873"
       height="110.13225"
       width="2.2026448"
       id="rect53270"
       style="display:inline;opacity:1;fill:#006fe6;fill-opacity:1;stroke-width:0.08296391"
       transform="rotate(-7.2550388)" />
  </g>
</svg>
