<?xml version="1.0" encoding="UTF-8" standalone="no"?>
<!-- Created with Inkscape (http://www.inkscape.org/) -->

<svg
   xmlns:dc="http://purl.org/dc/elements/1.1/"
   xmlns:cc="http://creativecommons.org/ns#"
   xmlns:rdf="http://www.w3.org/1999/02/22-rdf-syntax-ns#"
   xmlns:svg="http://www.w3.org/2000/svg"
   xmlns="http://www.w3.org/2000/svg"
   xmlns:sodipodi="http://sodipodi.sourceforge.net/DTD/sodipodi-0.dtd"
   xmlns:inkscape="http://www.inkscape.org/namespaces/inkscape"
   width="420"
   height="420"
   viewBox="0 0 111.125 111.125"
   version="1.1"
   id="svg8"
   inkscape:version="0.92.3 (2405546, 2018-03-11)"
   sodipodi:docname="planet-2.svg"
   inkscape:export-filename="D:\STUDIO\projects\Web\Blue Space\WEB\img\background\Blue Space.png"
   inkscape:export-xdpi="96"
   inkscape:export-ydpi="96"
   style="enable-background:new">
  <defs
     id="defs2">
    <inkscape:path-effect
       effect="perspective-envelope"
       up_left_point="2833.3594,1925.5417"
       up_right_point="3659.4648,1923.8926"
       down_left_point="2890.7353,4725.8653"
       down_right_point="5547.8909,5312.6949"
       id="path-effect53450"
       is_visible="true"
       deform_type="perspective"
       horizontal_mirror="false"
       vertical_mirror="false"
       overflow_perspective="false" />
    <inkscape:path-effect
       effect="perspective-envelope"
       up_left_point="718.96434,545.83077"
       up_right_point="979.96666,505.62224"
       down_left_point="-88.827402,2960.4764"
       down_right_point="2773.3388,2094.0582"
       id="path-effect53256"
       is_visible="true"
       deform_type="perspective"
       horizontal_mirror="false"
       vertical_mirror="false"
       overflow_perspective="false" />
    <inkscape:path-effect
       effect="perspective-envelope"
       up_left_point="2708.0161,1931.0566"
       up_right_point="3703.8102,1931.0566"
       down_left_point="1964.4409,4427.9787"
       down_right_point="5454.0697,3974.0665"
       id="path-effect53213"
       is_visible="true"
       deform_type="perspective"
       horizontal_mirror="false"
       vertical_mirror="false"
       overflow_perspective="false" />
    <inkscape:perspective
       sodipodi:type="inkscape:persp3d"
       inkscape:vp_x="-37.71179 : 61.697594 : 1"
       inkscape:vp_y="0 : 1000 : 0"
       inkscape:vp_z="692.12227 : 456.56223 : 1"
       inkscape:persp3d-origin="508 : 190.5 : 1"
       id="perspective2718" />
    <mask
       maskUnits="userSpaceOnUse"
       id="mask2678">
      <circle
         r="66.145836"
         cy="255.79308"
         cx="510.37244"
         id="circle2680"
         style="opacity:1;fill:#ffffff;fill-opacity:1;stroke:none;stroke-width:0.27162853;stroke-linecap:round;stroke-linejoin:round;stroke-miterlimit:4;stroke-dasharray:none;stroke-opacity:1" />
    </mask>
    <mask
       maskUnits="userSpaceOnUse"
       id="mask2684">
      <circle
         r="66.145836"
         cy="227.27225"
         cx="693.00494"
         id="circle2686"
         style="opacity:1;fill:#ffffff;fill-opacity:1;stroke:none;stroke-width:0.27162853;stroke-linecap:round;stroke-linejoin:round;stroke-miterlimit:4;stroke-dasharray:none;stroke-opacity:1" />
    </mask>
    <mask
       maskUnits="userSpaceOnUse"
       id="mask2690">
      <circle
         r="66.145836"
         cy="362.86124"
         cx="754.013"
         id="circle2692"
         style="opacity:1;fill:#ffffff;fill-opacity:1;stroke:none;stroke-width:0.27162853;stroke-linecap:round;stroke-linejoin:round;stroke-miterlimit:4;stroke-dasharray:none;stroke-opacity:1" />
    </mask>
    <mask
       maskUnits="userSpaceOnUse"
       id="mask2694">
      <circle
         style="opacity:1;fill:#ffffff;fill-opacity:1;stroke:none;stroke-width:0.27162853;stroke-linecap:round;stroke-linejoin:round;stroke-miterlimit:4;stroke-dasharray:none;stroke-opacity:1"
         id="circle2696"
         cx="502.38013"
         cy="371.08875"
         r="66.145836" />
    </mask>
  </defs>
  <sodipodi:namedview
     id="base"
     pagecolor="#000000"
     bordercolor="#666666"
     borderopacity="1.0"
     inkscape:pageopacity="0"
     inkscape:pageshadow="2"
     inkscape:zoom="0.16"
     inkscape:cx="-2189.1616"
     inkscape:cy="227.47014"
     inkscape:document-units="px"
     inkscape:current-layer="layer16"
     showgrid="false"
     units="px"
     inkscape:window-width="1366"
     inkscape:window-height="745"
     inkscape:window-x="-8"
     inkscape:window-y="-8"
     inkscape:window-maximized="1"
     inkscape:snap-page="true"
     inkscape:pagecheckerboard="true"
     inkscape:showpageshadow="false"
     inkscape:snap-bbox="false"
     inkscape:snap-smooth-nodes="true"
     inkscape:snap-grids="false"
     inkscape:bbox-nodes="true"
     inkscape:snap-bbox-edge-midpoints="false"
     inkscape:bbox-paths="false"
     inkscape:snap-object-midpoints="true"
     inkscape:snap-nodes="false"
     inkscape:object-paths="false"
     inkscape:snap-intersection-paths="true"
     showguides="false"
     inkscape:snap-bbox-midpoints="false"
     inkscape:object-nodes="true"
     inkscape:snap-global="true"
     inkscape:snap-others="true"
     inkscape:guide-bbox="true"
     inkscape:snap-to-guides="true"
     inkscape:snap-center="true"
     inkscape:snap-midpoints="false"
     inkscape:measure-start="0,0"
     inkscape:measure-end="0,0"
     fit-margin-top="0"
     fit-margin-left="0"
     fit-margin-right="0"
     fit-margin-bottom="0">
    <inkscape:grid
       type="xygrid"
       id="grid830"
       spacingx="2.6458333"
       spacingy="2.6458333"
       empspacing="4"
       originx="-1250.9974"
       originy="-273.78119" />
    <sodipodi:guide
       position="443.39359,-946.48703"
       orientation="-49.40708,379.8364"
       id="guide53219"
       inkscape:locked="false" />
    <sodipodi:guide
       position="-227.96619,148.35226"
       orientation="1495.8905,917.28597"
       id="guide53388"
       inkscape:locked="false" />
    <sodipodi:guide
       position="-227.96619,148.35226"
       orientation="1583.7216,227.36228"
       id="guide53392"
       inkscape:locked="false" />
  </sodipodi:namedview>
  <metadata
     id="metadata5">
    <rdf:RDF>
      <cc:Work
         rdf:about="">
        <dc:format>image/svg+xml</dc:format>
        <dc:type
           rdf:resource="http://purl.org/dc/dcmitype/StillImage" />
        <dc:title />
      </cc:Work>
    </rdf:RDF>
  </metadata>
  <g
     inkscape:groupmode="layer"
     id="layer16"
     inkscape:label="planet 2"
     style="display:inline"
     transform="translate(-917.4696,-150.46939)">
    <g
       inkscape:groupmode="layer"
       id="layer18"
       inkscape:label="stroke"
       style="display:inline">
      <circle
         r="55.5625"
         cy="206.03189"
         cx="973.0321"
         id="circle12748"
         style="opacity:0.2;fill:#7247ff;fill-opacity:1;stroke:none;stroke-width:0.28781176;stroke-linecap:round;stroke-linejoin:round;stroke-miterlimit:4;stroke-dasharray:none;stroke-opacity:1" />
    </g>
    <g
       inkscape:groupmode="layer"
       id="layer17"
       inkscape:label="base"
       style="display:inline">
      <circle
         style="display:inline;opacity:1;fill:#7247ff;fill-opacity:1;stroke:none;stroke-width:0.15883319;stroke-linecap:round;stroke-linejoin:round;stroke-miterlimit:4;stroke-dasharray:none;stroke-opacity:1"
         id="circle12815"
         cx="341.00833"
         cy="934.32562"
         r="52.916668"
         transform="rotate(-57.993534)" />
    </g>
    <g
       inkscape:groupmode="layer"
       id="layer20"
       inkscape:label="texture"
       style="display:inline;opacity:0.1">
      <path
         style="display:inline;opacity:1;fill:#03000c;fill-opacity:1;stroke:none;stroke-width:0.15883319;stroke-linecap:round;stroke-linejoin:round;stroke-miterlimit:4;stroke-dasharray:none;stroke-opacity:1"
         d="m 1001.6483,204.83394 c -5.85366,0.16876 -9.25953,21.40088 -5.14031,20.18689 4.70771,-1.38739 13.38751,-9.29365 14.63431,-1.30275 1.2466,7.99086 -8.569,9.08383 -7.9944,17.25318 0.4632,6.58546 -1.4081,9.15739 -2.1518,9.90846 a 52.916666,52.916666 0 0 0 16.9085,-16.80053 52.916666,52.916666 0 0 0 7.4456,-20.55895 c -0.3667,0.008 -13.7882,0.25231 -21.0582,-7.34219 -0.9213,-0.96244 -1.8075,-1.36821 -2.6437,-1.34411 z"
         id="circle12793"
         inkscape:connector-curvature="0" />
      <path
         style="display:inline;opacity:1;fill:#03000c;fill-opacity:1;stroke:none;stroke-width:0.15883319;stroke-linecap:round;stroke-linejoin:round;stroke-miterlimit:4;stroke-dasharray:none;stroke-opacity:1"
         d="m 972.38751,153.11978 a 52.916666,52.916666 0 0 0 -1.24489,0.0775 c 0.28699,0.24008 7.71036,6.58561 3.12023,17.35759 -4.67955,10.9819 0.11282,12.86378 6.67142,15.60266 6.55859,2.73892 15.29707,-2.33942 24.43313,1.87381 9.136,4.21314 17.6832,0.86349 17.6832,0.86349 v -0.0151 a 52.916666,52.916666 0 0 0 -21.9713,-27.71976 52.916666,52.916666 0 0 0 -28.69126,-8.04034 z"
         id="circle12797"
         inkscape:connector-curvature="0" />
      <path
         style="display:inline;opacity:1;fill:#03000c;fill-opacity:1;stroke:none;stroke-width:0.15883319;stroke-linecap:round;stroke-linejoin:round;stroke-miterlimit:4;stroke-dasharray:none;stroke-opacity:1"
         d="m 958.37132,189.22353 c -2.98675,-0.0542 -5.31477,5.78863 -8.28633,5.02502 -4.49281,-1.15454 -2.50524,1.08246 -8.33644,3.61114 -5.83118,2.52865 3.21318,8.72236 5.23121,11.95123 2.01806,3.22881 -9.68679,4.43925 -8.87958,11.70418 0.80722,7.26493 15.74083,1.6e-4 30.82809,7.09414 15.08728,7.09398 12.27243,-12.44449 5.7113,-19.99517 -6.56114,-7.55068 18.34917,-5.50836 12.18064,-13.65808 -6.16852,-8.14975 -22.83176,-1.85521 -26.71363,-5.01624 -0.60653,-0.49389 -1.18218,-0.70619 -1.73526,-0.71622 z"
         id="circle12803"
         inkscape:connector-curvature="0" />
      <path
         style="display:inline;opacity:1;fill:#03000c;fill-opacity:1;stroke:none;stroke-width:0.15883319;stroke-linecap:round;stroke-linejoin:round;stroke-miterlimit:4;stroke-dasharray:none;stroke-opacity:1"
         d="m 973.36573,233.35883 c -1.56398,0.0378 -3.22903,0.97108 -4.38939,2.081 -2.32074,2.21986 -2.32068,1.61401 -7.25125,-0.9276 -4.93053,-2.54161 -7.07556,3.64527 -6.16963,6.48901 0.89485,2.80892 4.94514,2.00597 8.67855,1.70326 3.73335,-0.30271 3.07324,4.82467 4.64105,7.96747 1.56784,3.1428 6.20485,2.93571 11.38381,0 5.17898,-2.93518 -1.59587,-9.07769 -3.10939,-14.02188 -0.75676,-2.47211 -2.21977,-3.32962 -3.78375,-3.29179 z"
         id="circle12807"
         inkscape:connector-curvature="0" />
      <path
         style="display:inline;opacity:1;fill:#03000c;fill-opacity:1;stroke:none;stroke-width:0.15883319;stroke-linecap:round;stroke-linejoin:round;stroke-miterlimit:4;stroke-dasharray:none;stroke-opacity:1"
         d="m 921.41903,217.6125 a 52.916666,52.916666 0 0 0 13.77436,25.32144 l 1.48569,0.6191 c 0,0 -3.47768,-3.48649 -0.65886,-9.35551 2.80701,-5.84448 -14.45639,-16.49584 -14.60119,-16.58503 z"
         id="circle12811"
         inkscape:connector-curvature="0" />
      <path
         style="display:inline;opacity:1;fill:#03000c;fill-opacity:1;stroke:none;stroke-width:0.15883319;stroke-linecap:round;stroke-linejoin:round;stroke-miterlimit:4;stroke-dasharray:none;stroke-opacity:1"
         d="m 950.26483,158.3293 a 52.916666,52.916666 0 0 0 -22.10562,19.65669 52.916666,52.916666 0 0 0 -5.20333,11.13625 c 0.33071,0.11732 13.84356,4.83836 21.05507,-4.86843 7.30081,-9.82692 -5.57808,-2.65012 -1.7694,-13.1961 3.16915,-8.77512 6.86752,-11.91762 8.02328,-12.72841 z"
         id="circle12756"
         inkscape:connector-curvature="0" />
    </g>
    <g
       inkscape:groupmode="layer"
       id="layer19"
       inkscape:label="shadow"
       style="display:inline">
      <a
         id="a12772"
         transform="translate(-1.4967093,-161.49971)">
        <path
           style="display:inline;opacity:0.05;fill:#000000;fill-opacity:1;stroke:none;stroke-width:0.28661564;stroke-linecap:round;stroke-linejoin:round;stroke-miterlimit:4;stroke-dasharray:none;stroke-opacity:1"
           d="m 924.87766,376.82298 a 45.357144,52.916667 54.757731 0 0 7.2571,21.4979 45.357144,52.916667 54.757731 0 0 1.9494,2.5305 c -0.2052,-0.245 -0.4081,-0.4922 -0.6074,-0.7425 l 3.6343,4.8419 c 9.9238,9.9238 23.3834,15.4989 37.41768,15.4989 14.0344,0 27.49396,-5.5751 37.41776,-15.4989 9.9238,-9.9238 15.4989,-23.3834 15.4989,-37.4177 -0.022,-5.7466 -0.9804,-11.4513 -2.8369,-16.8898 0.196,0.7936 0.3676,1.5916 0.5162,2.3931 a 45.357144,52.916667 54.757731 0 0 -0.5162,-2.3931 45.357144,52.916667 54.757731 0 0 -6.0376,-13.392 45.357144,52.916667 54.757731 0 0 -69.39074,-6.5092 45.357144,52.916667 54.757731 0 0 -24.3025,46.0809 z m 8.5991,23.2859 -1.342,-1.788 c 0.4311,0.61 0.8786,1.2061 1.342,1.788 z m 0.625,0.7636 a 45.357144,52.916667 54.757731 0 0 3.1051,3.2949 c -1.0965,-1.0366 -2.1331,-2.1359 -3.1051,-3.2949 z m 3.1152,3.3045 a 45.357144,52.916667 54.757731 0 0 3.4939,2.9404 45.357144,52.916667 54.757731 0 0 3.8376,2.5466 c -1.3315,-0.7803 -2.6126,-1.6299 -3.8376,-2.5466 -1.222,-0.9145 -2.3882,-1.8958 -3.4939,-2.9404 z m 7.3482,5.4966 a 45.357144,52.916667 54.757731 0 0 4.1315,2.1223 c -1.4242,-0.6364 -2.803,-1.3446 -4.1315,-2.1223 z m 4.1564,2.1333 a 45.357144,52.916667 54.757731 0 0 4.3924,1.6834 c -1.5058,-0.4876 -2.9716,-1.0496 -4.3924,-1.6834 z m 4.419,1.6919 a 45.357144,52.916667 54.757731 0 0 4.6175,1.2304 c -1.5756,-0.3342 -3.1163,-0.7454 -4.6175,-1.2304 z m 4.6371,1.2345 a 45.357144,52.916667 54.757731 0 0 4.7942,0.7639 c -1.629,-0.177 -3.2287,-0.4325 -4.7942,-0.7639 z m 4.8183,0.7666 a 45.357144,52.916667 54.757731 0 0 4.9283,0.2898 c -1.4141,-0.015 -2.8235,-0.087 -4.2243,-0.2181 -0.2353,-0.022 -0.4698,-0.046 -0.704,-0.072 z m 4.937,0.29 a 45.357144,52.916667 54.757731 0 0 5.0184,-0.1887 45.357144,52.916667 54.757731 0 0 5.04018,-0.6653 c -1.6763,0.2998 -3.3585,0.5224 -5.04018,0.6653 -1.6753,0.1423 -3.3501,0.2056 -5.0184,0.1887 z m 10.08048,-0.858 a 45.357144,52.916667 54.757731 0 0 4.9975,-1.1308 c -1.6559,0.4531 -3.3237,0.8307 -4.9975,1.1308 z m 5.0353,-1.1413 a 45.357144,52.916667 54.757731 0 0 4.9226,-1.5871 c -1.6246,0.6035 -3.2675,1.133 -4.9226,1.5871 z m 4.9484,-1.5965 a 45.357144,52.916667 54.757731 0 0 4.8146,-2.0336 c -1.5823,0.7506 -3.1892,1.429 -4.8146,2.0336 z m 4.8254,-2.0387 a 45.357144,52.916667 54.757731 0 0 4.6562,-2.4612 c -1.5233,0.8911 -3.0776,1.7119 -4.6562,2.4612 z m 4.6589,-2.4626 a 45.357144,52.916667 54.757731 0 0 4.44406,-2.8626 45.357144,52.916667 54.757731 0 0 2.9274,-2.2045 c -0.9482,0.759 -1.9242,1.4945 -2.9274,2.2045 -1.4469,1.0223 -2.93026,1.9769 -4.44406,2.8626 z m 7.48256,-5.1565 a 45.357144,52.916667 54.757731 0 0 3.8361,-3.356 c -1.2217,1.1623 -2.5013,2.2825 -3.8361,3.356 z m 4.0192,-3.5315 a 45.357144,52.916667 54.757731 0 0 3.4092,-3.5468 c -1.0794,1.2192 -2.2168,2.4029 -3.4092,3.5468 z m 3.684,-3.8597 a 45.357144,52.916667 54.757731 0 0 2.9378,-3.6461 c -0.9242,1.2452 -1.9041,2.4619 -2.9378,3.6461 z m 3.3322,-4.1844 a 45.357144,52.916667 54.757731 0 0 2.4272,-3.6296 c -0.7579,1.2323 -1.5676,2.4433 -2.4272,3.6296 z m 2.9103,-4.4299 a 45.357144,52.916667 54.757731 0 0 1.9343,-3.5513 c -0.5981,1.1998 -1.2431,2.3846 -1.9343,3.5513 z m 2.4581,-4.6312 a 45.357144,52.916667 54.757731 0 0 1.4771,-3.4378 c -0.4498,1.1567 -0.9424,2.3035 -1.4771,3.4378 z m 1.9683,-4.7523 a 45.357144,52.916667 54.757731 0 0 1.0719,-3.3435 c -0.3174,1.1213 -0.6751,2.2365 -1.0719,3.3435 z m 1.4601,-4.7955 a 45.357144,52.916667 54.757731 0 0 0.7065,-3.2842 c -0.197,1.0983 -0.4327,2.1937 -0.7065,3.2842 z m 0.9613,-4.8567 a 45.357144,52.916667 54.757731 0 0 0.3498,-3.1544 c -0.08,1.0522 -0.1973,2.1042 -0.3498,3.1544 z m 0.098,-12.3895 c 0.1203,0.8947 0.2118,1.793 0.2754,2.6937 a 45.357144,52.916667 54.757731 0 0 -0.2754,-2.6937 z m 0.3499,7.5439 a 45.357144,52.916667 54.757731 0 0 0.017,-2.9788 c 0.027,0.9914 0.022,1.9847 -0.017,2.9788 z"
           id="path12758"
           inkscape:connector-curvature="0" />
      </a>
    </g>
  </g>
</svg>
