<?xml version="1.0" encoding="UTF-8" standalone="no"?>
<!-- Created with Inkscape (http://www.inkscape.org/) -->

<svg
   xmlns:dc="http://purl.org/dc/elements/1.1/"
   xmlns:cc="http://creativecommons.org/ns#"
   xmlns:rdf="http://www.w3.org/1999/02/22-rdf-syntax-ns#"
   xmlns:svg="http://www.w3.org/2000/svg"
   xmlns="http://www.w3.org/2000/svg"
   xmlns:sodipodi="http://sodipodi.sourceforge.net/DTD/sodipodi-0.dtd"
   xmlns:inkscape="http://www.inkscape.org/namespaces/inkscape"
   width="2102.6663"
   height="2102.3789"
   viewBox="0 0 556.33045 556.25442"
   version="1.1"
   id="svg8"
   inkscape:version="0.92.3 (2405546, 2018-03-11)"
   sodipodi:docname="planet-1.svg"
   inkscape:export-filename="D:\STUDIO\projects\Web\Blue Space\WEB\img\background\Blue Space.png"
   inkscape:export-xdpi="96"
   inkscape:export-ydpi="96"
   style="enable-background:new">
  <defs
     id="defs2">
    <inkscape:path-effect
       effect="perspective-envelope"
       up_left_point="2833.3594,1925.5417"
       up_right_point="3659.4648,1923.8926"
       down_left_point="2890.7353,4725.8653"
       down_right_point="5547.8909,5312.6949"
       id="path-effect53450"
       is_visible="true"
       deform_type="perspective"
       horizontal_mirror="false"
       vertical_mirror="false"
       overflow_perspective="false" />
    <inkscape:path-effect
       effect="perspective-envelope"
       up_left_point="718.96434,545.83077"
       up_right_point="979.96666,505.62224"
       down_left_point="-88.827402,2960.4764"
       down_right_point="2773.3388,2094.0582"
       id="path-effect53256"
       is_visible="true"
       deform_type="perspective"
       horizontal_mirror="false"
       vertical_mirror="false"
       overflow_perspective="false" />
    <inkscape:path-effect
       effect="perspective-envelope"
       up_left_point="2708.0161,1931.0566"
       up_right_point="3703.8102,1931.0566"
       down_left_point="1964.4409,4427.9787"
       down_right_point="5454.0697,3974.0665"
       id="path-effect53213"
       is_visible="true"
       deform_type="perspective"
       horizontal_mirror="false"
       vertical_mirror="false"
       overflow_perspective="false" />
    <inkscape:perspective
       sodipodi:type="inkscape:persp3d"
       inkscape:vp_x="-37.71179 : 61.697594 : 1"
       inkscape:vp_y="0 : 1000 : 0"
       inkscape:vp_z="692.12227 : 456.56223 : 1"
       inkscape:persp3d-origin="508 : 190.5 : 1"
       id="perspective2718" />
    <mask
       maskUnits="userSpaceOnUse"
       id="mask2678">
      <circle
         r="66.145836"
         cy="255.79308"
         cx="510.37244"
         id="circle2680"
         style="opacity:1;fill:#ffffff;fill-opacity:1;stroke:none;stroke-width:0.27162853;stroke-linecap:round;stroke-linejoin:round;stroke-miterlimit:4;stroke-dasharray:none;stroke-opacity:1" />
    </mask>
    <mask
       maskUnits="userSpaceOnUse"
       id="mask2684">
      <circle
         r="66.145836"
         cy="227.27225"
         cx="693.00494"
         id="circle2686"
         style="opacity:1;fill:#ffffff;fill-opacity:1;stroke:none;stroke-width:0.27162853;stroke-linecap:round;stroke-linejoin:round;stroke-miterlimit:4;stroke-dasharray:none;stroke-opacity:1" />
    </mask>
    <mask
       maskUnits="userSpaceOnUse"
       id="mask2690">
      <circle
         r="66.145836"
         cy="362.86124"
         cx="754.013"
         id="circle2692"
         style="opacity:1;fill:#ffffff;fill-opacity:1;stroke:none;stroke-width:0.27162853;stroke-linecap:round;stroke-linejoin:round;stroke-miterlimit:4;stroke-dasharray:none;stroke-opacity:1" />
    </mask>
    <mask
       maskUnits="userSpaceOnUse"
       id="mask2694">
      <circle
         style="opacity:1;fill:#ffffff;fill-opacity:1;stroke:none;stroke-width:0.27162853;stroke-linecap:round;stroke-linejoin:round;stroke-miterlimit:4;stroke-dasharray:none;stroke-opacity:1"
         id="circle2696"
         cx="502.38013"
         cy="371.08875"
         r="66.145836" />
    </mask>
  </defs>
  <sodipodi:namedview
     id="base"
     pagecolor="#000000"
     bordercolor="#666666"
     borderopacity="1.0"
     inkscape:pageopacity="0"
     inkscape:pageshadow="2"
     inkscape:zoom="0.16"
     inkscape:cx="1278.4401"
     inkscape:cy="1398.7669"
     inkscape:document-units="px"
     inkscape:current-layer="layer7"
     showgrid="false"
     units="px"
     inkscape:window-width="1366"
     inkscape:window-height="745"
     inkscape:window-x="-8"
     inkscape:window-y="-8"
     inkscape:window-maximized="1"
     inkscape:snap-page="true"
     inkscape:pagecheckerboard="true"
     inkscape:showpageshadow="false"
     inkscape:snap-bbox="false"
     inkscape:snap-smooth-nodes="true"
     inkscape:snap-grids="false"
     inkscape:bbox-nodes="true"
     inkscape:snap-bbox-edge-midpoints="false"
     inkscape:bbox-paths="false"
     inkscape:snap-object-midpoints="true"
     inkscape:snap-nodes="false"
     inkscape:object-paths="false"
     inkscape:snap-intersection-paths="true"
     showguides="false"
     inkscape:snap-bbox-midpoints="false"
     inkscape:object-nodes="true"
     inkscape:snap-global="true"
     inkscape:snap-others="true"
     inkscape:guide-bbox="true"
     inkscape:snap-to-guides="true"
     inkscape:snap-center="true"
     inkscape:snap-midpoints="false"
     inkscape:measure-start="0,0"
     inkscape:measure-end="0,0"
     fit-margin-top="0"
     fit-margin-left="0"
     fit-margin-right="0"
     fit-margin-bottom="0">
    <inkscape:grid
       type="xygrid"
       id="grid830"
       spacingx="2.6458333"
       spacingy="2.6458333"
       empspacing="4"
       originx="-333.52775"
       originy="36.124418" />
    <sodipodi:guide
       position="1335.0686,-600.457"
       orientation="-49.40708,379.8364"
       id="guide53219"
       inkscape:locked="false" />
    <sodipodi:guide
       position="663.70882,494.3823"
       orientation="1495.8905,917.28597"
       id="guide53388"
       inkscape:locked="false" />
    <sodipodi:guide
       position="663.70882,494.3823"
       orientation="1583.7216,227.36228"
       id="guide53392"
       inkscape:locked="false" />
  </sodipodi:namedview>
  <metadata
     id="metadata5">
    <rdf:RDF>
      <cc:Work
         rdf:about="">
        <dc:format>image/svg+xml</dc:format>
        <dc:type
           rdf:resource="http://purl.org/dc/dcmitype/StillImage" />
        <dc:title />
      </cc:Work>
    </rdf:RDF>
  </metadata>
  <g
     inkscape:groupmode="layer"
     id="layer7"
     inkscape:label="planet 1"
     style="display:inline"
     transform="translate(-25.794605,-51.370013)">
    <g
       inkscape:groupmode="layer"
       id="layer11"
       inkscape:label="planet"
       style="display:inline">
      <path
         style="display:inline;opacity:0.1;fill:#d6fdff;fill-opacity:1;stroke:none;stroke-width:0.26458332px;stroke-linecap:butt;stroke-linejoin:miter;stroke-opacity:1"
         d="M 93.695,51.47728 C 71.123366,50.519914 53.593137,55.977875 41.9979,67.57295 l 112.25308,112.2536 c 29.52156,-29.52216 120.46388,13.55566 203.12507,96.21687 82.66076,82.66085 125.73848,173.60271 96.21687,203.12454 l 112.25309,112.2537 C 617.50938,539.75865 542.12307,380.60972 397.46611,235.95285 289.43603,127.9228 168.80067,54.662789 93.695,51.47728 Z"
         id="path1321"
         inkscape:connector-curvature="0"
         sodipodi:nodetypes="sccsccss" />
      <path
         inkscape:connector-curvature="0"
         id="path2557"
         d="m 123.72727,91.19423 a 317.5,113.39286 45 0 0 -44.31149,13.79659 l 74.8352,74.83573 a 211.66666,75.595241 45 0 1 203.12508,96.21687 211.66666,75.595241 45 0 1 96.21686,203.12454 l 74.83523,74.8358 A 317.5,113.39286 45 0 0 384.10259,249.31637 317.5,113.39286 45 0 0 123.72727,91.19423 Z"
         style="display:inline;opacity:0.5;fill:#d6fdff;fill-opacity:1;stroke:none;stroke-width:0.26458332px;stroke-linecap:butt;stroke-linejoin:miter;stroke-opacity:1" />
      <path
         style="display:inline;opacity:0.5;fill:#d6fdff;fill-opacity:1;stroke:none;stroke-width:0.26458332px;stroke-linecap:butt;stroke-linejoin:miter;stroke-opacity:1"
         d="m 153.75954,130.91171 a 264.58332,94.494047 45 0 0 -36.92641,11.49696 l 37.41785,37.41788 a 211.66666,75.595241 45 0 1 203.12508,96.21687 211.66666,75.595241 45 0 1 96.21686,203.12454 l 37.41787,37.4179 A 264.58332,94.494047 45 0 0 370.73906,262.67989 264.58332,94.494047 45 0 0 153.75954,130.91171 Z"
         id="path1331"
         inkscape:connector-curvature="0" />
      <path
         style="display:inline;opacity:0.2;fill:#00a5ff;fill-opacity:1;stroke:none;stroke-width:0.36747679;stroke-linecap:round;stroke-linejoin:round;stroke-miterlimit:4;stroke-dasharray:none;stroke-opacity:1"
         d="m 164.95223,188.55734 a 198.4375,198.4375 0 0 0 -2.21801,2.10419 c 0.74268,-0.67383 1.48188,-1.37671 2.21801,-2.10419 z m -2.23011,2.1154 a 198.4375,198.4375 0 0 0 -58.59745,95.57652 198.4375,198.4375 0 0 0 140.31657,243.0353 198.4375,198.4375 0 0 0 196.08752,-56.03122 z"
         id="circle1025"
         inkscape:connector-curvature="0" />
      <path
         style="opacity:0.2;fill:#00a5ff;fill-opacity:1;stroke:none;stroke-width:0.26458332px;stroke-linecap:butt;stroke-linejoin:miter;stroke-opacity:1"
         d="m 347.16005,145.93275 a 198.4375,198.4375 0 0 0 -184.43793,44.73999 l 277.80664,282.5806 a 198.4375,198.4375 0 0 0 46.94779,-84.28528 198.4375,198.4375 0 0 0 -140.3165,-243.03531 z"
         id="path1110"
         inkscape:connector-curvature="0" />
      <circle
         style="opacity:1;fill:#75ccfd;fill-opacity:1;stroke:none;stroke-width:0.55591613;stroke-linecap:round;stroke-linejoin:round;stroke-miterlimit:4;stroke-dasharray:none;stroke-opacity:1"
         id="path1128"
         cx="429.78448"
         cy="129.49051"
         r="185.20833"
         transform="rotate(32.006466)" />
      <path
         style="opacity:1;fill:#55c2ff;fill-opacity:1;stroke:none;stroke-width:0.26458332px;stroke-linecap:butt;stroke-linejoin:miter;stroke-opacity:1"
         d="m 368.01049,167.18809 a 185.20833,185.20833 0 0 0 -211.0927,47.83907 185.20833,185.20833 0 0 0 16.4472,261.40723 185.20833,185.20833 0 0 0 261.40724,-16.4472 185.20833,185.20833 0 0 0 28.56339,-201.36993 c -0.70095,-0.56788 -73.24099,-59.3701 -95.32513,-91.42917 z"
         id="path1143"
         inkscape:connector-curvature="0" />
      <path
         inkscape:connector-curvature="0"
         style="opacity:1;fill:#3db9ff;fill-opacity:1;stroke:none;stroke-width:0.26458332px;stroke-linecap:butt;stroke-linejoin:miter;stroke-opacity:1"
         d="M 321.79387,192.74935 C 286.5656,170.77756 252.89994,159.27459 250.0822,158.32962 a 185.20833,185.20833 0 0 0 -111.31423,81.05046 185.20833,185.20833 0 0 0 58.94993,255.20415 185.20833,185.20833 0 0 0 255.20415,-58.94994 185.20833,185.20833 0 0 0 17.12683,-35.60975 l 8.91886,-35.71719 a 185.20833,185.20833 0 0 0 0.14689,-1.35779 c -1.82125,-0.87382 -52.92063,-25.88075 -84.97698,-96.29939 -14.27996,-31.36898 -43.73024,-56.05461 -72.34378,-73.90082 z"
         id="path1145" />
      <path
         inkscape:connector-curvature="0"
         style="opacity:1;fill:#20afff;fill-opacity:1;stroke:none;stroke-width:0.26458332px;stroke-linecap:butt;stroke-linejoin:miter;stroke-opacity:1"
         d="m 204.62673,177.84476 c -0.60024,-0.37186 -0.73936,-0.45528 -0.9186,-0.56413 a 185.20832,185.20832 0 0 0 -64.94016,62.09945 185.20832,185.20832 0 0 0 58.94993,255.20415 185.20832,185.20832 0 0 0 255.20415,-58.94994 185.20832,185.20832 0 0 0 8.71638,-15.76011 C 460.77161,419.5968 351.9087,384.63681 334.76953,315.39031 318.63733,250.2123 217.23855,185.6593 204.62673,177.84476 Z"
         id="path1147" />
      <path
         inkscape:connector-curvature="0"
         style="opacity:1;fill:#0aa7ff;fill-opacity:1;stroke:none;stroke-width:0.26458332px;stroke-linecap:butt;stroke-linejoin:miter;stroke-opacity:1"
         d="m 156.71107,215.74997 a 185.20832,185.20832 0 0 0 -17.9431,23.63011 185.20832,185.20832 0 0 0 58.94993,255.20415 185.20832,185.20832 0 0 0 139.5097,23.32045 C 335.89433,516.82155 244.08209,441.96581 236.90481,361.5383 229.80566,281.98664 159.26356,218.04003 156.71107,215.74997 Z"
         id="path1149" />
      <path
         inkscape:connector-curvature="0"
         style="opacity:1;fill:#009ff9;fill-opacity:1;stroke:none;stroke-width:0.26458332px;stroke-linecap:butt;stroke-linejoin:miter;stroke-opacity:1"
         d="m 123.32249,270.41988 a 185.20832,185.20832 0 0 0 74.39541,224.16435 185.20832,185.20832 0 0 0 84.69851,27.53082 C 281.85154,520.85035 245.35778,439.43429 187.51098,383.8582 130.38111,328.97094 123.57353,272.66428 123.32249,270.41988 Z"
         id="path1151" />
      <path
         style="opacity:0.3;fill:#0088d5;fill-opacity:1;stroke:none;stroke-width:0.26458332px;stroke-linecap:butt;stroke-linejoin:miter;stroke-opacity:1"
         d="M 120.03886,394.99811 A 185.20832,185.20832 0 0 0 224.67044,508.49346 C 210.45197,462.15748 123.59836,397.62775 120.03886,394.99811 Z"
         id="path1153"
         inkscape:connector-curvature="0" />
      <path
         style="display:inline;opacity:0.05;fill:#000000;fill-opacity:1;stroke:none;stroke-width:1.00315475;stroke-linecap:round;stroke-linejoin:round;stroke-miterlimit:4;stroke-dasharray:none;stroke-opacity:1"
         d="m 263.30549,163.81959 a 185.20833,158.75 54.757731 0 0 -75.24244,25.4 185.20833,158.75 54.757731 0 0 -8.85682,6.82284 c 0.85757,-0.71818 1.72264,-1.4282 2.59881,-2.12597 l -16.94677,12.72015 c -34.7333,34.73329 -54.24631,81.84174 -54.2463,130.96203 -1e-5,49.12029 19.513,96.22872 54.2463,130.96202 34.7333,34.73329 81.84173,54.24631 130.96204,54.24631 20.11314,-0.0779 40.07934,-3.43151 59.11421,-9.92913 -2.77752,0.68607 -5.57051,1.28646 -8.3757,1.80663 a 185.20833,158.75 54.757731 0 0 8.3757,-1.80663 185.20833,158.75 54.757731 0 0 46.87207,-21.1315 185.20833,158.75 54.757731 0 0 22.78208,-242.86787 185.20833,158.75 54.757731 0 0 -161.28318,-85.05888 z m -81.50045,30.09687 6.25801,-4.69687 c -2.13528,1.50863 -4.22157,3.07507 -6.25801,4.69687 z m -2.67271,2.18746 a 185.20833,158.75 54.757731 0 0 -11.53211,10.86807 c 3.62809,-3.83775 7.47551,-7.46601 11.53211,-10.86807 z m -11.5657,10.90321 a 185.20833,158.75 54.757731 0 0 -10.29136,12.22871 185.20833,158.75 54.757731 0 0 -8.91315,13.43174 c 2.73115,-4.66043 5.70463,-9.14433 8.91315,-13.43174 3.20082,-4.27714 6.63528,-8.35862 10.29136,-12.22871 z m -19.2381,25.71884 a 185.20833,158.75 54.757731 0 0 -7.42797,14.46009 c 2.22716,-4.98464 4.70609,-9.81056 7.42797,-14.46009 z m -7.46673,14.54743 a 185.20833,158.75 54.757731 0 0 -5.89163,15.37322 c 1.7063,-5.27021 3.67359,-10.40057 5.89163,-15.37322 z m -5.9216,15.46624 a 185.20833,158.75 54.757731 0 0 -4.3062,16.16129 c 1.16965,-5.51444 2.60866,-10.90708 4.3062,-16.16129 z m -4.32067,16.23 a 185.20833,158.75 54.757731 0 0 -2.67374,16.77988 c 0.61959,-5.70159 1.51396,-11.30046 2.67374,-16.77988 z m -2.68304,16.8641 a 185.20833,158.75 54.757731 0 0 -1.01441,17.24908 c 0.0512,-4.94935 0.30335,-9.88237 0.76326,-14.78515 0.0773,-0.82368 0.1625,-1.64444 0.25115,-2.46393 z m -1.01492,17.27956 a 185.20833,158.75 54.757731 0 0 0.66042,17.56431 185.20833,158.75 54.757731 0 0 2.32854,17.64078 c -1.04949,-5.86719 -1.82855,-11.75467 -2.32854,-17.64078 -0.49807,-5.86356 -0.71987,-11.72543 -0.66042,-17.56431 z m 3.00291,35.28158 a 185.20833,158.75 54.757731 0 0 3.9579,17.49142 c -1.58585,-5.79559 -2.9076,-11.63307 -3.9579,-17.49142 z m 3.99459,17.62371 a 185.20833,158.75 54.757731 0 0 5.5547,17.22893 c -2.11205,-5.68603 -3.96543,-11.43622 -5.5547,-17.22893 z m 5.58778,17.31936 a 185.20833,158.75 54.757731 0 0 7.11739,16.85118 c -2.62718,-5.53815 -5.00131,-11.16229 -7.11739,-16.85118 z m 7.13547,16.88891 a 185.20833,158.75 54.757731 0 0 8.61395,16.29667 c -3.11889,-5.3316 -5.99158,-10.77151 -8.61395,-16.29667 z m 8.61912,16.30598 a 185.20833,158.75 54.757731 0 0 10.01902,15.55459 185.20833,158.75 54.757731 0 0 7.71581,10.24588 c -2.65653,-3.31882 -5.23083,-6.73483 -7.71581,-10.24588 -3.57809,-5.06431 -6.91928,-10.25633 -10.01902,-15.55459 z m 18.04747,26.18909 a 185.20833,158.75 54.757731 0 0 11.74606,13.42658 c -4.06805,-4.2762 -7.9887,-8.75462 -11.74606,-13.42658 z m 12.36049,14.06737 a 185.20833,158.75 54.757731 0 0 12.41371,11.93207 c -4.26737,-3.77796 -8.41011,-7.75864 -12.41371,-11.93207 z m 13.50874,12.89378 a 185.20833,158.75 54.757731 0 0 12.76149,10.28258 c -4.35817,-3.23471 -8.61681,-6.6644 -12.76149,-10.28258 z m 14.64562,11.66286 a 185.20833,158.75 54.757731 0 0 12.70362,8.49508 c -4.31335,-2.65242 -8.55176,-5.48645 -12.70362,-8.49508 z m 15.50448,10.18593 a 185.20833,158.75 54.757731 0 0 12.42973,6.77013 c -4.19951,-2.0933 -8.34641,-4.35091 -12.42973,-6.77013 z m 16.20934,8.60361 a 185.20833,158.75 54.757731 0 0 12.03234,5.1697 c -4.04868,-1.57438 -8.06257,-3.29832 -12.03234,-5.1697 z m 16.6331,6.88899 a 185.20833,158.75 54.757731 0 0 11.70212,3.75171 c -3.92456,-1.11117 -7.82772,-2.36292 -11.70212,-3.75171 z m 16.784,5.11027 a 185.20833,158.75 54.757731 0 0 11.4949,2.47271 c -3.84408,-0.68953 -7.67813,-1.51442 -11.4949,-2.47271 z m 16.99842,3.36465 a 185.20833,158.75 54.757731 0 0 11.04069,1.22423 c -3.68276,-0.28147 -7.36489,-0.69046 -11.04069,-1.22423 z m 43.36325,0.34314 c -3.1314,0.421 -6.27536,0.74115 -9.42784,0.96377 a 185.20833,158.75 54.757731 0 0 9.42784,-0.96377 z m -26.40354,1.22473 a 185.20833,158.75 54.757731 0 0 10.42572,0.0605 c -3.46964,0.0958 -6.94647,0.0758 -10.42572,-0.0605 z"
         id="ellipse1293"
         inkscape:connector-curvature="0" />
      <path
         inkscape:connector-curvature="0"
         id="path1342"
         d="m 514.14891,607.51716 a 370.41664,132.29167 45 0 0 51.6971,-16.0956 L 453.59291,479.16796 A 211.66666,75.595241 45 0 1 250.46785,382.95105 211.66666,75.595241 45 0 1 154.25098,179.82655 L 41.99789,67.57285 a 370.41664,132.29167 45 0 0 168.3799,355.46881 370.41664,132.29167 45 0 0 303.77112,184.4755 z"
         style="display:inline;opacity:0.1;fill:#d6fdff;fill-opacity:1;stroke:none;stroke-width:0.26458332px;stroke-linecap:butt;stroke-linejoin:miter;stroke-opacity:1" />
      <path
         inkscape:connector-curvature="0"
         id="path1346"
         d="m 454.0844,528.08276 a 264.58332,94.494047 45 0 0 36.9264,-11.497 l -37.4179,-37.4178 A 211.66666,75.595241 45 0 1 250.46784,382.95105 211.66666,75.595241 45 0 1 154.25098,179.82655 l -37.41787,-37.4179 a 264.58332,94.494047 45 0 0 120.27173,253.9059 264.58332,94.494047 45 0 0 216.97956,131.76821 z"
         style="display:inline;opacity:0.5;fill:#d6fdff;fill-opacity:1;stroke:none;stroke-width:0.26458332px;stroke-linecap:butt;stroke-linejoin:miter;stroke-opacity:1" />
      <path
         style="display:inline;opacity:0.5;fill:#d6fdff;fill-opacity:1;stroke:none;stroke-width:0.26458332px;stroke-linecap:butt;stroke-linejoin:miter;stroke-opacity:1"
         d="m 484.11661,567.80026 a 317.5,113.39286 45 0 0 44.3115,-13.7966 l -74.8352,-74.8357 A 211.66666,75.595241 45 0 1 250.46784,382.95104 211.66666,75.595241 45 0 1 154.25098,179.82655 l -74.83523,-74.8358 a 317.5,113.39286 45 0 0 144.32556,304.68741 317.5,113.39286 45 0 0 260.3753,158.1221 z"
         id="path2559"
         inkscape:connector-curvature="0" />
    </g>
  </g>
</svg>
