<?xml version="1.0" encoding="UTF-8" standalone="no"?>
<!-- Created with Inkscape (http://www.inkscape.org/) -->

<svg
   xmlns:dc="http://purl.org/dc/elements/1.1/"
   xmlns:cc="http://creativecommons.org/ns#"
   xmlns:rdf="http://www.w3.org/1999/02/22-rdf-syntax-ns#"
   xmlns:svg="http://www.w3.org/2000/svg"
   xmlns="http://www.w3.org/2000/svg"
   xmlns:sodipodi="http://sodipodi.sourceforge.net/DTD/sodipodi-0.dtd"
   xmlns:inkscape="http://www.inkscape.org/namespaces/inkscape"
   width="50"
   height="50"
   viewBox="0 0 13.229167 13.229167"
   version="1.1"
   id="svg8"
   inkscape:version="0.92.3 (2405546, 2018-03-11)"
   sodipodi:docname="planet-5.svg"
   inkscape:export-filename="D:\STUDIO\projects\Web\Blue Space\WEB\img\background\Blue Space.png"
   inkscape:export-xdpi="96"
   inkscape:export-ydpi="96"
   style="enable-background:new">
  <defs
     id="defs2">
    <inkscape:path-effect
       effect="perspective-envelope"
       up_left_point="2833.3594,1925.5417"
       up_right_point="3659.4648,1923.8926"
       down_left_point="2890.7353,4725.8653"
       down_right_point="5547.8909,5312.6949"
       id="path-effect53450"
       is_visible="true"
       deform_type="perspective"
       horizontal_mirror="false"
       vertical_mirror="false"
       overflow_perspective="false" />
    <inkscape:path-effect
       effect="perspective-envelope"
       up_left_point="718.96434,545.83077"
       up_right_point="979.96666,505.62224"
       down_left_point="-88.827402,2960.4764"
       down_right_point="2773.3388,2094.0582"
       id="path-effect53256"
       is_visible="true"
       deform_type="perspective"
       horizontal_mirror="false"
       vertical_mirror="false"
       overflow_perspective="false" />
    <inkscape:path-effect
       effect="perspective-envelope"
       up_left_point="2708.0161,1931.0566"
       up_right_point="3703.8102,1931.0566"
       down_left_point="1964.4409,4427.9787"
       down_right_point="5454.0697,3974.0665"
       id="path-effect53213"
       is_visible="true"
       deform_type="perspective"
       horizontal_mirror="false"
       vertical_mirror="false"
       overflow_perspective="false" />
    <inkscape:perspective
       sodipodi:type="inkscape:persp3d"
       inkscape:vp_x="-37.711791 : 61.697596 : 1"
       inkscape:vp_y="0 : 1000 : 0"
       inkscape:vp_z="692.12229 : 456.56224 : 1"
       inkscape:persp3d-origin="508.00001 : 190.5 : 1"
       id="perspective2718" />
    <mask
       maskUnits="userSpaceOnUse"
       id="mask2678">
      <circle
         r="66.145836"
         cy="255.79308"
         cx="510.37244"
         id="circle2680"
         style="opacity:1;fill:#ffffff;fill-opacity:1;stroke:none;stroke-width:0.27162853;stroke-linecap:round;stroke-linejoin:round;stroke-miterlimit:4;stroke-dasharray:none;stroke-opacity:1" />
    </mask>
    <mask
       maskUnits="userSpaceOnUse"
       id="mask2684">
      <circle
         r="66.145836"
         cy="227.27225"
         cx="693.00494"
         id="circle2686"
         style="opacity:1;fill:#ffffff;fill-opacity:1;stroke:none;stroke-width:0.27162853;stroke-linecap:round;stroke-linejoin:round;stroke-miterlimit:4;stroke-dasharray:none;stroke-opacity:1" />
    </mask>
    <mask
       maskUnits="userSpaceOnUse"
       id="mask2690">
      <circle
         r="66.145836"
         cy="362.86124"
         cx="754.013"
         id="circle2692"
         style="opacity:1;fill:#ffffff;fill-opacity:1;stroke:none;stroke-width:0.27162853;stroke-linecap:round;stroke-linejoin:round;stroke-miterlimit:4;stroke-dasharray:none;stroke-opacity:1" />
    </mask>
    <mask
       maskUnits="userSpaceOnUse"
       id="mask2694">
      <circle
         style="opacity:1;fill:#ffffff;fill-opacity:1;stroke:none;stroke-width:0.27162853;stroke-linecap:round;stroke-linejoin:round;stroke-miterlimit:4;stroke-dasharray:none;stroke-opacity:1"
         id="circle2696"
         cx="502.38013"
         cy="371.08875"
         r="66.145836" />
    </mask>
  </defs>
  <sodipodi:namedview
     id="base"
     pagecolor="#000000"
     bordercolor="#666666"
     borderopacity="1.0"
     inkscape:pageopacity="0"
     inkscape:pageshadow="2"
     inkscape:zoom="0.16"
     inkscape:cx="-1963.2617"
     inkscape:cy="-355.11039"
     inkscape:document-units="px"
     inkscape:current-layer="layer36"
     showgrid="false"
     units="px"
     inkscape:window-width="1366"
     inkscape:window-height="745"
     inkscape:window-x="-8"
     inkscape:window-y="-8"
     inkscape:window-maximized="1"
     inkscape:snap-page="true"
     inkscape:pagecheckerboard="true"
     inkscape:showpageshadow="false"
     inkscape:snap-bbox="false"
     inkscape:snap-smooth-nodes="true"
     inkscape:snap-grids="false"
     inkscape:bbox-nodes="true"
     inkscape:snap-bbox-edge-midpoints="false"
     inkscape:bbox-paths="false"
     inkscape:snap-object-midpoints="true"
     inkscape:snap-nodes="false"
     inkscape:object-paths="false"
     inkscape:snap-intersection-paths="true"
     showguides="false"
     inkscape:snap-bbox-midpoints="false"
     inkscape:object-nodes="true"
     inkscape:snap-global="true"
     inkscape:snap-others="true"
     inkscape:guide-bbox="true"
     inkscape:snap-to-guides="true"
     inkscape:snap-center="true"
     inkscape:snap-midpoints="false"
     inkscape:measure-start="0,0"
     inkscape:measure-end="0,0"
     fit-margin-top="0"
     fit-margin-left="0"
     fit-margin-right="0"
     fit-margin-bottom="0">
    <inkscape:grid
       type="xygrid"
       id="grid830"
       spacingx="2.6458333"
       spacingy="2.6458333"
       empspacing="4"
       originx="-1191.2281"
       originy="-427.9223" />
    <sodipodi:guide
       position="503.16291,-1100.6281"
       orientation="-49.40708,379.8364"
       id="guide53219"
       inkscape:locked="false" />
    <sodipodi:guide
       position="-168.19687,-5.7888389"
       orientation="1495.8905,917.28597"
       id="guide53388"
       inkscape:locked="false" />
    <sodipodi:guide
       position="-168.19687,-5.7888389"
       orientation="1583.7216,227.36228"
       id="guide53392"
       inkscape:locked="false" />
  </sodipodi:namedview>
  <metadata
     id="metadata5">
    <rdf:RDF>
      <cc:Work
         rdf:about="">
        <dc:format>image/svg+xml</dc:format>
        <dc:type
           rdf:resource="http://purl.org/dc/dcmitype/StillImage" />
        <dc:title />
      </cc:Work>
    </rdf:RDF>
  </metadata>
  <g
     inkscape:groupmode="layer"
     id="layer36"
     inkscape:label="planet 5"
     style="display:inline"
     transform="translate(-857.70027,-94.224129)">
    <circle
       style="display:inline;opacity:0.2;fill:#36c3b0;fill-opacity:1;stroke:none;stroke-width:0.0342633;stroke-linecap:round;stroke-linejoin:round;stroke-miterlimit:4;stroke-dasharray:none;stroke-opacity:1"
       id="circle12820-2"
       cx="-777.70142"
       cy="-390.37048"
       r="6.6145835"
       transform="rotate(160)" />
    <ellipse
       transform="rotate(-97.99353)"
       cy="841.89417"
       cx="-220.05167"
       id="circle12824-0"
       style="display:inline;opacity:1;fill:#36c3b0;fill-opacity:1;stroke:none;stroke-width:0.01890871;stroke-linecap:round;stroke-linejoin:round;stroke-miterlimit:4;stroke-dasharray:none;stroke-opacity:1"
       rx="6.299603"
       ry="6.2996025" />
    <a
       id="a12844-2"
       transform="matrix(0.09119577,-0.07652233,0.07652233,0.09119576,747.31742,141.89448)"
       style="display:inline;fill:#000000;fill-opacity:1">
      <path
         inkscape:connector-curvature="0"
         id="path12842-2"
         d="m 924.87766,376.82298 a 45.357144,52.916667 54.757731 0 0 7.2571,21.4979 45.357144,52.916667 54.757731 0 0 1.9494,2.5305 c -0.2052,-0.245 -0.4081,-0.4922 -0.6074,-0.7425 l 3.6343,4.8419 c 9.9238,9.9238 23.3834,15.4989 37.41768,15.4989 14.0344,0 27.49396,-5.5751 37.41776,-15.4989 9.9238,-9.9238 15.4989,-23.3834 15.4989,-37.4177 -0.022,-5.7466 -0.9804,-11.4513 -2.8369,-16.8898 0.196,0.7936 0.3676,1.5916 0.5162,2.3931 a 45.357144,52.916667 54.757731 0 0 -0.5162,-2.3931 45.357144,52.916667 54.757731 0 0 -6.0376,-13.392 45.357144,52.916667 54.757731 0 0 -69.39074,-6.5092 45.357144,52.916667 54.757731 0 0 -24.3025,46.0809 z m 8.5991,23.2859 -1.342,-1.788 c 0.4311,0.61 0.8786,1.2061 1.342,1.788 z m 0.625,0.7636 a 45.357144,52.916667 54.757731 0 0 3.1051,3.2949 c -1.0965,-1.0366 -2.1331,-2.1359 -3.1051,-3.2949 z m 3.1152,3.3045 a 45.357144,52.916667 54.757731 0 0 3.4939,2.9404 45.357144,52.916667 54.757731 0 0 3.8376,2.5466 c -1.3315,-0.7803 -2.6126,-1.6299 -3.8376,-2.5466 -1.222,-0.9145 -2.3882,-1.8958 -3.4939,-2.9404 z m 7.3482,5.4966 a 45.357144,52.916667 54.757731 0 0 4.1315,2.1223 c -1.4242,-0.6364 -2.803,-1.3446 -4.1315,-2.1223 z m 4.1564,2.1333 a 45.357144,52.916667 54.757731 0 0 4.3924,1.6834 c -1.5058,-0.4876 -2.9716,-1.0496 -4.3924,-1.6834 z m 4.419,1.6919 a 45.357144,52.916667 54.757731 0 0 4.6175,1.2304 c -1.5756,-0.3342 -3.1163,-0.7454 -4.6175,-1.2304 z m 4.6371,1.2345 a 45.357144,52.916667 54.757731 0 0 4.7942,0.7639 c -1.629,-0.177 -3.2287,-0.4325 -4.7942,-0.7639 z m 4.8183,0.7666 a 45.357144,52.916667 54.757731 0 0 4.9283,0.2898 c -1.4141,-0.015 -2.8235,-0.087 -4.2243,-0.2181 -0.2353,-0.022 -0.4698,-0.046 -0.704,-0.072 z m 4.937,0.29 a 45.357144,52.916667 54.757731 0 0 5.0184,-0.1887 45.357144,52.916667 54.757731 0 0 5.04018,-0.6653 c -1.6763,0.2998 -3.3585,0.5224 -5.04018,0.6653 -1.6753,0.1423 -3.3501,0.2056 -5.0184,0.1887 z m 10.08048,-0.858 a 45.357144,52.916667 54.757731 0 0 4.9975,-1.1308 c -1.6559,0.4531 -3.3237,0.8307 -4.9975,1.1308 z m 5.0353,-1.1413 a 45.357144,52.916667 54.757731 0 0 4.9226,-1.5871 c -1.6246,0.6035 -3.2675,1.133 -4.9226,1.5871 z m 4.9484,-1.5965 a 45.357144,52.916667 54.757731 0 0 4.8146,-2.0336 c -1.5823,0.7506 -3.1892,1.429 -4.8146,2.0336 z m 4.8254,-2.0387 a 45.357144,52.916667 54.757731 0 0 4.6562,-2.4612 c -1.5233,0.8911 -3.0776,1.7119 -4.6562,2.4612 z m 4.6589,-2.4626 a 45.357144,52.916667 54.757731 0 0 4.44406,-2.8626 45.357144,52.916667 54.757731 0 0 2.9274,-2.2045 c -0.9482,0.759 -1.9242,1.4945 -2.9274,2.2045 -1.4469,1.0223 -2.93026,1.9769 -4.44406,2.8626 z m 7.48256,-5.1565 a 45.357144,52.916667 54.757731 0 0 3.8361,-3.356 c -1.2217,1.1623 -2.5013,2.2825 -3.8361,3.356 z m 4.0192,-3.5315 a 45.357144,52.916667 54.757731 0 0 3.4092,-3.5468 c -1.0794,1.2192 -2.2168,2.4029 -3.4092,3.5468 z m 3.684,-3.8597 a 45.357144,52.916667 54.757731 0 0 2.9378,-3.6461 c -0.9242,1.2452 -1.9041,2.4619 -2.9378,3.6461 z m 3.3322,-4.1844 a 45.357144,52.916667 54.757731 0 0 2.4272,-3.6296 c -0.7579,1.2323 -1.5676,2.4433 -2.4272,3.6296 z m 2.9103,-4.4299 a 45.357144,52.916667 54.757731 0 0 1.9343,-3.5513 c -0.5981,1.1998 -1.2431,2.3846 -1.9343,3.5513 z m 2.4581,-4.6312 a 45.357144,52.916667 54.757731 0 0 1.4771,-3.4378 c -0.4498,1.1567 -0.9424,2.3035 -1.4771,3.4378 z m 1.9683,-4.7523 a 45.357144,52.916667 54.757731 0 0 1.0719,-3.3435 c -0.3174,1.1213 -0.6751,2.2365 -1.0719,3.3435 z m 1.4601,-4.7955 a 45.357144,52.916667 54.757731 0 0 0.7065,-3.2842 c -0.197,1.0983 -0.4327,2.1937 -0.7065,3.2842 z m 0.9613,-4.8567 a 45.357144,52.916667 54.757731 0 0 0.3498,-3.1544 c -0.08,1.0522 -0.1973,2.1042 -0.3498,3.1544 z m 0.098,-12.3895 c 0.1203,0.8947 0.2118,1.793 0.2754,2.6937 a 45.357144,52.916667 54.757731 0 0 -0.2754,-2.6937 z m 0.3499,7.5439 a 45.357144,52.916667 54.757731 0 0 0.017,-2.9788 c 0.027,0.9914 0.022,1.9847 -0.017,2.9788 z"
         style="display:inline;opacity:0.05;fill:#000000;fill-opacity:1;stroke:none;stroke-width:0.28661564;stroke-linecap:round;stroke-linejoin:round;stroke-miterlimit:4;stroke-dasharray:none;stroke-opacity:1" />
    </a>
  </g>
</svg>
