<?xml version="1.0" encoding="UTF-8" standalone="no"?>
<!-- Created with Inkscape (http://www.inkscape.org/) -->

<svg
   xmlns:dc="http://purl.org/dc/elements/1.1/"
   xmlns:cc="http://creativecommons.org/ns#"
   xmlns:rdf="http://www.w3.org/1999/02/22-rdf-syntax-ns#"
   xmlns:svg="http://www.w3.org/2000/svg"
   xmlns="http://www.w3.org/2000/svg"
   xmlns:sodipodi="http://sodipodi.sourceforge.net/DTD/sodipodi-0.dtd"
   xmlns:inkscape="http://www.inkscape.org/namespaces/inkscape"
   width="1701.5044"
   height="423.70102"
   viewBox="0 0 450.1897 112.10423"
   version="1.1"
   id="svg8"
   inkscape:version="0.92.3 (2405546, 2018-03-11)"
   sodipodi:docname="rocks.svg"
   inkscape:export-filename="/home/kartist/KDATA/STUDIO/projects/Graphich/illustration/Blue Space/Blue Space.png"
   inkscape:export-xdpi="96"
   inkscape:export-ydpi="96"
   style="enable-background:new">
  <defs
     id="defs2">
    <inkscape:perspective
       sodipodi:type="inkscape:persp3d"
       inkscape:vp_x="-37.71179 : 61.697595 : 1"
       inkscape:vp_y="0 : 1000 : 0"
       inkscape:vp_z="692.12226 : 456.56224 : 1"
       inkscape:persp3d-origin="508 : 190.5 : 1"
       id="perspective2718" />
    <mask
       maskUnits="userSpaceOnUse"
       id="mask2678">
      <circle
         r="66.145836"
         cy="255.79308"
         cx="510.37244"
         id="circle2680"
         style="opacity:1;fill:#ffffff;fill-opacity:1;stroke:none;stroke-width:0.27162853;stroke-linecap:round;stroke-linejoin:round;stroke-miterlimit:4;stroke-dasharray:none;stroke-opacity:1" />
    </mask>
    <mask
       maskUnits="userSpaceOnUse"
       id="mask2684">
      <circle
         r="66.145836"
         cy="227.27225"
         cx="693.00494"
         id="circle2686"
         style="opacity:1;fill:#ffffff;fill-opacity:1;stroke:none;stroke-width:0.27162853;stroke-linecap:round;stroke-linejoin:round;stroke-miterlimit:4;stroke-dasharray:none;stroke-opacity:1" />
    </mask>
    <mask
       maskUnits="userSpaceOnUse"
       id="mask2690">
      <circle
         r="66.145836"
         cy="362.86124"
         cx="754.013"
         id="circle2692"
         style="opacity:1;fill:#ffffff;fill-opacity:1;stroke:none;stroke-width:0.27162853;stroke-linecap:round;stroke-linejoin:round;stroke-miterlimit:4;stroke-dasharray:none;stroke-opacity:1" />
    </mask>
    <mask
       maskUnits="userSpaceOnUse"
       id="mask2694">
      <circle
         style="opacity:1;fill:#ffffff;fill-opacity:1;stroke:none;stroke-width:0.27162853;stroke-linecap:round;stroke-linejoin:round;stroke-miterlimit:4;stroke-dasharray:none;stroke-opacity:1"
         id="circle2696"
         cx="502.38013"
         cy="371.08875"
         r="66.145836" />
    </mask>
  </defs>
  <sodipodi:namedview
     id="base"
     pagecolor="#000000"
     bordercolor="#666666"
     borderopacity="1.0"
     inkscape:pageopacity="1"
     inkscape:pageshadow="2"
     inkscape:zoom="0.26167651"
     inkscape:cx="563.30646"
     inkscape:cy="715.41565"
     inkscape:document-units="px"
     inkscape:current-layer="layer13"
     showgrid="false"
     units="px"
     inkscape:window-width="1366"
     inkscape:window-height="745"
     inkscape:window-x="-8"
     inkscape:window-y="-8"
     inkscape:window-maximized="1"
     inkscape:snap-page="true"
     inkscape:pagecheckerboard="true"
     inkscape:showpageshadow="false"
     inkscape:snap-bbox="false"
     inkscape:snap-smooth-nodes="true"
     inkscape:snap-grids="false"
     inkscape:bbox-nodes="true"
     inkscape:snap-bbox-edge-midpoints="false"
     inkscape:bbox-paths="false"
     inkscape:snap-object-midpoints="true"
     inkscape:snap-nodes="false"
     inkscape:object-paths="false"
     inkscape:snap-intersection-paths="true"
     showguides="false"
     inkscape:snap-bbox-midpoints="false"
     inkscape:object-nodes="true"
     inkscape:snap-global="true"
     inkscape:snap-others="false"
     inkscape:guide-bbox="true"
     inkscape:snap-to-guides="true"
     fit-margin-top="0"
     fit-margin-left="0"
     fit-margin-right="0"
     fit-margin-bottom="0">
    <inkscape:grid
       type="xygrid"
       id="grid830"
       spacingx="2.6458333"
       spacingy="2.6458333"
       empspacing="4"
       originx="-478.17645"
       originy="-95.537512" />
    <sodipodi:guide
       position="336.63896,-74.370843"
       orientation="0,1"
       id="guide2779"
       inkscape:locked="false"
       inkscape:label=""
       inkscape:color="rgb(0,0,255)" />
    <sodipodi:guide
       position="177.19759,69.36966"
       orientation="1,0"
       id="guide2785"
       inkscape:locked="false"
       inkscape:label=""
       inkscape:color="rgb(0,0,255)" />
    <sodipodi:guide
       position="230.11426,69.36966"
       orientation="1,0"
       id="guide2787"
       inkscape:locked="false"
       inkscape:label=""
       inkscape:color="rgb(0,0,255)" />
    <sodipodi:guide
       position="283.03093,69.36966"
       orientation="1,0"
       id="guide2789"
       inkscape:locked="false"
       inkscape:label=""
       inkscape:color="rgb(0,0,255)" />
    <sodipodi:guide
       position="124.28086,108.85175"
       orientation="1,0"
       id="guide2791"
       inkscape:locked="false"
       inkscape:label=""
       inkscape:color="rgb(0,0,255)" />
    <sodipodi:guide
       position="368.49022,5.00416"
       orientation="0,1"
       id="guide2805"
       inkscape:locked="false"
       inkscape:label=""
       inkscape:color="rgb(0,0,255)" />
    <sodipodi:guide
       position="88.60958,-47.91251"
       orientation="0,1"
       id="guide2807"
       inkscape:locked="false"
       inkscape:label=""
       inkscape:color="rgb(0,0,255)" />
    <sodipodi:guide
       position="231.62323,203.24524"
       orientation="0,1"
       id="guide2809"
       inkscape:locked="false"
       inkscape:label=""
       inkscape:color="rgb(0,0,255)" />
    <sodipodi:guide
       position="145.47392,-21.454177"
       orientation="0,1"
       id="guide2811"
       inkscape:locked="false"
       inkscape:label=""
       inkscape:color="rgb(0,0,255)" />
    <sodipodi:guide
       position="230.11426,31.46249"
       orientation="0,1"
       id="guide2813"
       inkscape:locked="false"
       inkscape:label=""
       inkscape:color="rgb(0,0,255)" />
    <sodipodi:guide
       position="178.99863,62.47947"
       orientation="0,1"
       id="guide2873"
       inkscape:locked="false" />
    <sodipodi:guide
       position="335.94752,176.44813"
       orientation="1,0"
       id="guide2894"
       inkscape:locked="false"
       inkscape:label=""
       inkscape:color="rgb(0,0,255)" />
    <sodipodi:guide
       position="293.47349,108.85175"
       orientation="0,1"
       id="guide2911"
       inkscape:locked="false" />
    <sodipodi:guide
       position="203.65586,199.45802"
       orientation="1,0"
       id="guide2917"
       inkscape:locked="false"
       inkscape:label=""
       inkscape:color="rgb(0,0,255)" />
    <sodipodi:guide
       position="256.57252,183.69611"
       orientation="1,0"
       id="guide2919"
       inkscape:locked="false"
       inkscape:label=""
       inkscape:color="rgb(0,0,255)" />
  </sodipodi:namedview>
  <metadata
     id="metadata5">
    <rdf:RDF>
      <cc:Work
         rdf:about="">
        <dc:format>image/svg+xml</dc:format>
        <dc:type
           rdf:resource="http://purl.org/dc/dcmitype/StillImage" />
        <dc:title />
      </cc:Work>
    </rdf:RDF>
  </metadata>
  <g
     inkscape:groupmode="layer"
     id="layer13"
     inkscape:label="rocks"
     style="display:inline"
     transform="translate(-478.17645,-363.85826)">
    <g
       inkscape:groupmode="layer"
       id="layer14"
       inkscape:label="rocks base"
       style="display:inline">
      <path
         style="fill:#505ac9;fill-opacity:1;stroke:none;stroke-width:0.26458332px;stroke-linecap:butt;stroke-linejoin:miter;stroke-opacity:1"
         d="m 480.41432,425.61009 -2.23787,3.91628 3.35682,2.2379 h 3.91628 l -2.23787,-2.2379 -0.55946,-2.79736 z"
         id="path1141"
         inkscape:connector-curvature="0" />
      <path
         style="fill:#505ac9;fill-opacity:1;stroke:none;stroke-width:0.12511379px;stroke-linecap:butt;stroke-linejoin:miter;stroke-opacity:1"
         d="m 752.53922,408.87473 -9.67057,11.92037 6.27194,4.34888 4.43866,8.62154 15.23245,-3.90902 4.19321,-6.58346 2.45134,-3.65199 -11.62949,-7.90981 2.90071,-0.50144 z"
         id="path1123"
         inkscape:connector-curvature="0"
         sodipodi:nodetypes="cccccccccc" />
      <path
         style="fill:#505ac9;fill-opacity:1;stroke:none;stroke-width:0.26458332px;stroke-linecap:butt;stroke-linejoin:miter;stroke-opacity:1"
         d="m 811.04426,403.47298 -6.50546,9.49058 1.48785,2.01655 3.91631,7.83262 5.03524,-6.71367 h 5.59472 l -0.55949,-7.27313 -3.35682,-1.11893 z"
         id="path1125"
         inkscape:connector-curvature="0" />
      <path
         style="fill:#505ac9;fill-opacity:1;stroke:none;stroke-width:0.26458332px;stroke-linecap:butt;stroke-linejoin:miter;stroke-opacity:1"
         d="m 673.43195,444.07264 2.79733,6.71364 6.15421,-1.11892 -0.55949,-5.03526 z"
         id="path1127"
         inkscape:connector-curvature="0" />
      <path
         style="fill:#505ac9;fill-opacity:1;stroke:none;stroke-width:0.26458332px;stroke-linecap:butt;stroke-linejoin:miter;stroke-opacity:1"
         d="m 553.33179,406.58371 -8.70333,17.80226 9.09894,2.76926 1.18681,7.12089 13.05499,0.79123 15.42865,-8.70333 -4.74728,-8.30773 -6.32968,-1.97803 -3.16487,-6.72531 -7.5165,-0.39561 z"
         id="path1129"
         inkscape:connector-curvature="0" />
      <path
         style="fill:#505ac9;fill-opacity:1;stroke:none;stroke-width:0.26458332px;stroke-linecap:butt;stroke-linejoin:miter;stroke-opacity:1"
         d="m 613.06828,442.58385 8.30773,8.30773 8.70334,-4.74726 4.35165,1.97802 3.56047,-1.58242 1.18682,-5.9341 -9.09894,-3.16484 -5.53847,1.58242 -7.91213,-1.18681 z"
         id="path1131"
         inkscape:connector-curvature="0" />
      <path
         style="fill:#505ac9;fill-opacity:1;stroke:none;stroke-width:0.26458332px;stroke-linecap:butt;stroke-linejoin:miter;stroke-opacity:1"
         d="m 853.59673,447.33113 16.21985,-14.24183 7.12092,4.74729 7.12089,-1.97803 4.74729,2.37363 5.53847,0.39561 4.35162,7.51652 v 7.9121 l -10.6813,5.14289 -9.49455,-5.14289 -6.32971,5.9341 -7.91212,-5.5385 h -6.32968 z"
         id="path1133"
         inkscape:connector-curvature="0" />
      <path
         style="fill:#505ac9;fill-opacity:1;stroke:none;stroke-width:0.26458332px;stroke-linecap:butt;stroke-linejoin:miter;stroke-opacity:1"
         d="m 894.73971,376.51765 7.91216,-12.65939 h 15.4286 l 10.2857,7.51651 -8.3077,15.82425 -15.033,4.35166 -7.1209,-6.7253 -7.91208,-0.79121 -0.3956,-5.93409 z"
         id="path1135"
         inkscape:connector-curvature="0" />
      <path
         style="fill:#505ac9;fill-opacity:1;stroke:none;stroke-width:0.21074626px;stroke-linecap:butt;stroke-linejoin:miter;stroke-opacity:1"
         d="m 652.70392,404.01219 0.44565,9.35824 8.02136,2.6738 4.01067,6.23883 7.13009,-1.33689 6.23883,-4.45632 4.90194,-1.78253 v -6.68446 l -8.02135,-3.11942 -7.57573,1.3369 -5.79321,-4.90194 h -5.7932 z"
         id="path1137"
         inkscape:connector-curvature="0" />
      <path
         style="fill:#505ac9;fill-opacity:1;stroke:none;stroke-width:0.26458332px;stroke-linecap:butt;stroke-linejoin:miter;stroke-opacity:1"
         d="m 504.47159,427.84796 2.2379,-6.71364 3.91628,1.11892 3.91631,-1.67841 8.39208,2.79736 0.55946,3.91631 -5.03523,0.55946 -2.79736,2.2379 -4.47577,-2.79736 z"
         id="path1139"
         inkscape:connector-curvature="0" />
      <path
         style="fill:#505ac9;fill-opacity:1;stroke:none;stroke-width:0.26458332px;stroke-linecap:butt;stroke-linejoin:miter;stroke-opacity:1"
         d="m 498.31741,407.14751 5.03523,-3.91629 2.79736,3.91629 -2.23787,0.55949 -2.79736,1.67841 z"
         id="path1144"
         inkscape:connector-curvature="0" />
      <path
         style="fill:#505ac9;fill-opacity:1;stroke:none;stroke-width:0.26458332px;stroke-linecap:butt;stroke-linejoin:miter;stroke-opacity:1"
         d="m 530.20726,411.62329 -3.35682,3.91631 3.35682,2.23787 0.55949,1.67841 3.35682,-2.23787 h 3.91631 l 1.67841,-3.35683 -2.2379,-2.79736 -3.91628,1.67842 z"
         id="path1146"
         inkscape:connector-curvature="0" />
      <path
         style="fill:#505ac9;fill-opacity:1;stroke:none;stroke-width:0.26458332px;stroke-linecap:butt;stroke-linejoin:miter;stroke-opacity:1"
         d="m 607.41432,409.94488 v 5.59472 l 6.15418,0.55946 -1.11895,-5.03524 1.67844,-0.55948 -2.79736,-2.79734 z"
         id="path1148"
         inkscape:connector-curvature="0" />
      <path
         style="fill:#505ac9;fill-opacity:1;stroke:none;stroke-width:0.26458332px;stroke-linecap:butt;stroke-linejoin:miter;stroke-opacity:1"
         d="m 546.99142,442.39422 h 5.03524 v 2.79736 l 3.0771,0.55946 -0.27974,3.63657 -4.75552,-1.11895 -4.19602,1.11895 -3.91631,-1.39867 -0.55947,-3.63656 h 4.19603 z"
         id="path1152"
         inkscape:connector-curvature="0" />
      <path
         style="fill:#505ac9;fill-opacity:1;stroke:none;stroke-width:0.26458332px;stroke-linecap:butt;stroke-linejoin:miter;stroke-opacity:1"
         d="m 592.02885,440.43607 v -3.07711 h 4.47577 v 2.79736 z"
         id="path1154"
         inkscape:connector-curvature="0" />
      <path
         style="fill:#505ac9;fill-opacity:1;stroke:none;stroke-width:0.26458332px;stroke-linecap:butt;stroke-linejoin:miter;stroke-opacity:1"
         d="m 701.40551,420.01537 -1.95815,2.51761 1.95815,1.67841 h 2.51762 l 0.8392,-2.51761 z"
         id="path1156"
         inkscape:connector-curvature="0" />
      <path
         style="fill:#505ac9;fill-opacity:1;stroke:none;stroke-width:0.26458332px;stroke-linecap:butt;stroke-linejoin:miter;stroke-opacity:1"
         d="m 747.56189,404.07043 2.2379,-4.75551 -3.63657,-0.83921 -3.0771,0.55947 -0.27972,2.23789 1.67841,1.39868 z"
         id="path1158"
         inkscape:connector-curvature="0" />
      <path
         style="fill:#505ac9;fill-opacity:1;stroke:none;stroke-width:0.26458332px;stroke-linecap:butt;stroke-linejoin:miter;stroke-opacity:1"
         d="m 857.21829,399.31492 -0.83921,2.51762 2.23788,3.07709 h 5.31497 l 1.3987,-3.35682 -2.2379,-1.67842 -1.39867,-1.67841 -2.51762,1.11894 z"
         id="path1160"
         inkscape:connector-curvature="0" />
      <path
         style="fill:#505ac9;fill-opacity:1;stroke:none;stroke-width:0.26458332px;stroke-linecap:butt;stroke-linejoin:miter;stroke-opacity:1"
         d="m 906.17197,418.61667 4.196,2.2379 8.3921,-2.79736 -5.315,-3.0771 -4.4757,-1.95813 -4.4758,1.39867 -0.2797,1.67841 -2.7974,0.55948 2.7974,3.07708 z"
         id="path1162"
         inkscape:connector-curvature="0" />
      <path
         style="fill:#505ac9;fill-opacity:1;stroke:none;stroke-width:0.26458332px;stroke-linecap:butt;stroke-linejoin:miter;stroke-opacity:1"
         d="m 773.29759,448.5484 -1.95815,3.91629 4.75548,1.67843 0.27975,-1.95815 z"
         id="path1164"
         inkscape:connector-curvature="0" />
      <path
         style="fill:#505ac9;fill-opacity:1;stroke:none;stroke-width:0.26458332px;stroke-linecap:butt;stroke-linejoin:miter;stroke-opacity:1"
         d="m 729.09934,475.96249 -2.23787,-4.19603 2.79733,-0.8392 2.2379,0.8392 3.63657,-0.55946 2.23787,2.51762 -3.07708,1.39867 -2.51761,-1.39867 z"
         id="path1166"
         inkscape:connector-curvature="0" />
      <path
         style="fill:#505ac9;fill-opacity:1;stroke:none;stroke-width:0.26458332px;stroke-linecap:butt;stroke-linejoin:miter;stroke-opacity:1"
         d="m 810.87128,448.91355 3.95608,-2.76923 -0.39561,3.95605 z"
         id="path1168"
         inkscape:connector-curvature="0" />
      <path
         style="fill:#505ac9;fill-opacity:1;stroke:none;stroke-width:0.26458332px;stroke-linecap:butt;stroke-linejoin:miter;stroke-opacity:1"
         d="m 807.31084,384.82538 -1.97803,3.16485 4.35166,0.79121 z"
         id="path1170"
         inkscape:connector-curvature="0" />
      <path
         style="fill:#505ac9;fill-opacity:1;stroke:none;stroke-width:0.26458332px;stroke-linecap:butt;stroke-linejoin:miter;stroke-opacity:1"
         d="m 872.19021,372.56159 -3.95605,3.16485 4.35166,2.76924 z"
         id="path1172"
         inkscape:connector-curvature="0" />
      <path
         style="fill:#505ac9;fill-opacity:1;stroke:none;stroke-width:0.26458332px;stroke-linecap:butt;stroke-linejoin:miter;stroke-opacity:1"
         d="m 650.65086,423.99036 -1.97802,2.76926 3.56044,-0.3956 z"
         id="path1174"
         inkscape:connector-curvature="0" />
      <path
         style="fill:#505ac9;fill-opacity:1;stroke:none;stroke-width:0.26458332px;stroke-linecap:butt;stroke-linejoin:miter;stroke-opacity:1"
         d="m 520.8921,439.81461 v -3.16484 l 2.76924,2.76924 z"
         id="path1176"
         inkscape:connector-curvature="0" />
      <path
         style="fill:#505ac9;fill-opacity:1;stroke:none;stroke-width:0.26458332px;stroke-linecap:butt;stroke-linejoin:miter;stroke-opacity:1"
         d="m 586.16709,407.37492 -1.58242,3.56045 2.76923,0.3956 3.95605,-2.76923 z"
         id="path1178"
         inkscape:connector-curvature="0" />
      <path
         style="fill:#505ac9;fill-opacity:1;stroke:none;stroke-width:0.26458332px;stroke-linecap:butt;stroke-linejoin:miter;stroke-opacity:1"
         d="m 715.53024,443.77066 -3.95605,4.74729 2.76923,2.37363 h 4.35166 z"
         id="path1180"
         inkscape:connector-curvature="0" />
      <path
         style="fill:#505ac9;fill-opacity:1;stroke:none;stroke-width:0.26458332px;stroke-linecap:butt;stroke-linejoin:miter;stroke-opacity:1"
         d="m 718.29947,413.309 -7.9121,11.4726 3.16484,5.53847 7.12092,2.76923 9.89015,-2.76923 4.35166,1.97802 -1.58242,-13.45059 -5.93411,1.58242 -1.58242,-5.53847 z"
         id="path1182"
         inkscape:connector-curvature="0" />
      <path
         style="fill:#505ac9;fill-opacity:1;stroke:none;stroke-width:0.26458332px;stroke-linecap:butt;stroke-linejoin:miter;stroke-opacity:1"
         d="m 841.33294,427.55083 -11.07696,5.93408 -4.74726,-3.95605 1.97802,-2.76924 -0.79121,-4.35168 7.12089,-0.3956 1.97805,-2.37363 4.74726,2.76923 4.35166,0.39561 z"
         id="path1184"
         inkscape:connector-curvature="0" />
      <path
         style="fill:#505ac9;fill-opacity:1;stroke:none;stroke-width:0.26458332px;stroke-linecap:butt;stroke-linejoin:miter;stroke-opacity:1"
         d="m 746.16322,454.70259 -8.95154,3.35682 2.23787,7.27313 6.15421,-1.11895 5.03523,2.2379 4.47577,-1.67841 5.59472,-0.55949 -0.55949,-5.03523 -5.59469,-1.67841 -1.67844,-2.2379 -2.23787,2.2379 z"
         id="path1186"
         inkscape:connector-curvature="0" />
      <path
         style="fill:#505ac9;fill-opacity:1;stroke:none;stroke-width:0.26458332px;stroke-linecap:butt;stroke-linejoin:miter;stroke-opacity:1"
         d="m 651.05308,458.61889 v 3.91629 l 4.47577,3.91631 5.03526,-3.91631 0.55946,-6.15418 -4.47577,-2.23788 z"
         id="path1188"
         inkscape:connector-curvature="0" />
      <path
         style="fill:#505ac9;fill-opacity:1;stroke:none;stroke-width:0.26458332px;stroke-linecap:butt;stroke-linejoin:miter;stroke-opacity:1"
         d="m 578.88128,451.34576 -7.83259,5.03524 0.55946,4.47577 7.27313,3.91631 v -3.91631 l 10.07049,1.67841 2.23788,-6.71365 -7.8326,-1.67841 z"
         id="path1190"
         inkscape:connector-curvature="0" />
      <path
         style="fill:#505ac9;fill-opacity:1;stroke:none;stroke-width:0.26458332px;stroke-linecap:butt;stroke-linejoin:miter;stroke-opacity:1"
         d="m 792.59934,426.72901 -4.47577,0.55949 -3.91631,5.03523 2.2379,4.47577 7.83259,-0.55946 5.59472,2.79736 0.55946,-5.59472 -6.71364,-2.2379 z"
         id="path1192"
         inkscape:connector-curvature="0" />
      <path
         style="fill:#505ac9;fill-opacity:1;stroke:none;stroke-width:0.26458332px;stroke-linecap:butt;stroke-linejoin:miter;stroke-opacity:1"
         d="m 786.44516,402.11228 -5.59472,2.79735 v 3.9163 l 5.59472,2.79736 4.47577,-1.67841 1.11895,-5.03525 z"
         id="path1194"
         inkscape:connector-curvature="0" />
      <path
         style="fill:#505ac9;fill-opacity:1;stroke:none;stroke-width:0.26458332px;stroke-linecap:butt;stroke-linejoin:miter;stroke-opacity:1"
         d="m 836.2381,458.61889 h -5.59472 l -0.55946,3.91629 2.79736,6.15418 H 847.987 l 2.2379,-4.47577 -5.59472,-1.67841 -3.91631,-4.47577 z"
         id="path1196"
         inkscape:connector-curvature="0" />
      <path
         style="fill:#505ac9;fill-opacity:1;stroke:none;stroke-width:0.26458332px;stroke-linecap:butt;stroke-linejoin:miter;stroke-opacity:1"
         d="m 795.95616,459.17836 -4.47577,-7.27314 -7.27313,5.59473 4.47577,4.47577 2.79736,-2.79736 z"
         id="path1198"
         inkscape:connector-curvature="0" />
      <path
         style="fill:#505ac9;fill-opacity:1;stroke:none;stroke-width:0.26458332px;stroke-linecap:butt;stroke-linejoin:miter;stroke-opacity:1"
         d="m 840.15441,394.27968 -6.71367,4.47577 3.35685,6.71365 h 5.03523 l 3.91631,-2.79735 -4.47577,-3.35683 5.59469,-4.47577 z"
         id="path1200"
         inkscape:connector-curvature="0" />
      <path
         style="fill:#505ac9;fill-opacity:1;stroke:none;stroke-width:0.26458332px;stroke-linecap:butt;stroke-linejoin:miter;stroke-opacity:1"
         d="m 877.63899,408.26646 -1.67841,3.91631 1.67841,6.15419 h 5.03523 l 8.95154,-1.11895 V 407.707 l -5.59469,-3.91631 z"
         id="path1202"
         inkscape:connector-curvature="0" />
      <path
         style="fill:#505ac9;fill-opacity:1;stroke:none;stroke-width:0.26458332px;stroke-linecap:butt;stroke-linejoin:miter;stroke-opacity:1"
         d="m 630.35264,420.57483 -1.11893,7.83259 -5.59472,-1.67841 v -5.59469 z"
         id="path1204"
         inkscape:connector-curvature="0" />
      <path
         style="fill:#505ac9;fill-opacity:1;stroke:none;stroke-width:0.26458332px;stroke-linecap:butt;stroke-linejoin:miter;stroke-opacity:1"
         d="m 620.84163,460.85677 -2.23787,3.91631 4.47577,0.55946 z"
         id="path1206"
         inkscape:connector-curvature="0" />
    </g>
    <g
       inkscape:groupmode="layer"
       id="layer15"
       inkscape:label="rocks shadow 1"
       style="display:inline;opacity:0.2">
      <path
         style="display:inline;fill:#000000;fill-opacity:1;stroke:none;stroke-width:0.26458332px;stroke-linecap:butt;stroke-linejoin:miter;stroke-opacity:1"
         d="m 478.17645,429.52637 1.43894,-2.51817 1.98781,0.42016 0.34967,1.71339 1.22383,2.62252 h -1.64343 z"
         id="path1255"
         inkscape:connector-curvature="0"
         sodipodi:nodetypes="ccccccc" />
      <path
         style="display:inline;opacity:0.98999999;fill:#000000;fill-opacity:1;stroke:none;stroke-width:0.26458332px;stroke-linecap:butt;stroke-linejoin:miter;stroke-opacity:1"
         d="M 498.31741,407.14751 H 506.15 l -2.23787,0.55949 -2.79736,1.67841 z"
         id="path1252"
         inkscape:connector-curvature="0" />
      <path
         style="fill:#000000;fill-opacity:1;stroke:none;stroke-width:0.26458332px;stroke-linecap:butt;stroke-linejoin:miter;stroke-opacity:1"
         d="m 504.47159,427.84796 2.2379,-6.71364 2.93721,2.02805 5.59472,-0.87415 7.69274,1.08397 0.55946,3.91631 -5.03523,0.55946 -2.79736,2.2379 -4.47577,-2.79736 z"
         id="path1302"
         inkscape:connector-curvature="0" />
      <path
         style="fill:#000000;fill-opacity:1;stroke:none;stroke-width:0.26458332px;stroke-linecap:butt;stroke-linejoin:miter;stroke-opacity:1"
         d="m 528.68932,413.39422 4.05435,-0.92546 0.29593,1.28752 3.95126,-0.83921 2.01409,2.37075 -0.96507,1.93019 h -3.91631 l -3.35682,2.23787 -0.55949,-1.67841 -3.35682,-2.23787 z"
         id="path1304"
         inkscape:connector-curvature="0" />
      <path
         style="fill:#000000;fill-opacity:1;stroke:none;stroke-width:0.26458332px;stroke-linecap:butt;stroke-linejoin:miter;stroke-opacity:1"
         d="m 520.8921,437.98838 2.76924,1.43063 -2.76924,0.3956 z"
         id="path1306"
         inkscape:connector-curvature="0" />
      <path
         style="fill:#000000;fill-opacity:1;stroke:none;stroke-width:0.26458332px;stroke-linecap:butt;stroke-linejoin:miter;stroke-opacity:1"
         d="m 541.3967,444.35238 h 4.19603 l 3.91631,-0.73433 1.95816,2.48267 3.63656,-0.34968 -0.27974,3.63657 -4.75552,-1.11895 -4.19602,1.11895 -3.91631,-1.39867 z"
         id="path1308"
         inkscape:connector-curvature="0" />
      <path
         style="fill:#000000;fill-opacity:1;stroke:none;stroke-width:0.26458332px;stroke-linecap:butt;stroke-linejoin:miter;stroke-opacity:1"
         d="m 553.33179,406.58371 6.24774,5.87878 9.44108,0.90914 3.30028,2.70663 -0.22321,3.16783 11.30017,7.11793 -15.42867,8.70333 -13.05497,-0.79123 -1.18681,-7.12089 -9.09894,-2.76926 z"
         id="path1310"
         inkscape:connector-curvature="0" />
      <path
         style="fill:#000000;fill-opacity:1;stroke:none;stroke-width:0.26458332px;stroke-linecap:butt;stroke-linejoin:miter;stroke-opacity:1"
         d="m 584.58467,410.93537 1.19033,-2.67825 1.11371,0.74364 1.64346,0.035 1.20476,0.62712 -2.38303,1.66811 z"
         id="path1312"
         inkscape:connector-curvature="0" />
      <path
         style="fill:#000000;fill-opacity:1;stroke:none;stroke-width:0.26458332px;stroke-linecap:butt;stroke-linejoin:miter;stroke-opacity:1"
         d="m 571.20059,457.5962 5.1258,-2.30351 5.58792,1.53299 8.95646,-0.0475 -1.919,5.75702 -10.07049,-1.67841 v 3.91631 l -7.27313,-3.91631 z"
         id="path1314"
         inkscape:connector-curvature="0" />
      <path
         style="fill:#000000;fill-opacity:1;stroke:none;stroke-width:0.26458332px;stroke-linecap:butt;stroke-linejoin:miter;stroke-opacity:1"
         d="m 592.02885,438.54784 1.46862,-0.31469 1.11895,0.73429 1.8882,-0.55946 v 1.74834 l -4.47577,0.27975 z"
         id="path1316"
         inkscape:connector-curvature="0" />
      <path
         style="fill:#000000;fill-opacity:1;stroke:none;stroke-width:0.26458332px;stroke-linecap:butt;stroke-linejoin:miter;stroke-opacity:1"
         d="m 615.04631,444.5619 2.4231,-2.67036 8.25828,-0.54396 4.89561,-1.68132 4.84945,-0.34933 3.70554,1.28889 -1.18684,5.9341 -3.56045,1.58242 -4.35165,-1.97802 -8.70334,4.74726 z"
         id="path1319"
         inkscape:connector-curvature="0" />
      <path
         style="fill:#000000;fill-opacity:1;stroke:none;stroke-width:0.26458332px;stroke-linecap:butt;stroke-linejoin:miter;stroke-opacity:1"
         d="m 623.63899,423.5453 2.20134,-1.77503 2.06319,1.08273 2.44912,-2.27817 -1.11893,7.83259 -5.59472,-1.67841 z"
         id="path1322"
         inkscape:connector-curvature="0" />
      <path
         style="fill:#000000;fill-opacity:1;stroke:none;stroke-width:0.26458332px;stroke-linecap:butt;stroke-linejoin:miter;stroke-opacity:1"
         d="m 607.41432,411.67713 2.98363,-1.43407 3.02011,-0.44865 0.70993,0.70993 -1.67844,0.55948 1.11895,5.03524 -6.15418,-0.55946 z"
         id="path1324"
         inkscape:connector-curvature="0" />
      <path
         style="fill:#000000;fill-opacity:1;stroke:none;stroke-width:0.26458332px;stroke-linecap:butt;stroke-linejoin:miter;stroke-opacity:1"
         d="m 649.53487,425.55275 1.06654,0.0201 0.54015,-0.84638 1.09172,1.63759 -3.56044,0.3956 z"
         id="path1327"
         inkscape:connector-curvature="0" />
      <path
         style="fill:#000000;fill-opacity:1;stroke:none;stroke-width:0.26458332px;stroke-linecap:butt;stroke-linejoin:miter;stroke-opacity:1"
         d="m 618.60376,464.77308 1.92318,-0.97909 0.20979,-0.80423 0.75527,-0.83222 1.58753,3.175 z"
         id="path1329"
         inkscape:connector-curvature="0" />
      <path
         style="fill:#000000;fill-opacity:1;stroke:none;stroke-width:0.26458332;stroke-linecap:butt;stroke-linejoin:miter;stroke-miterlimit:4;stroke-dasharray:none;stroke-opacity:1"
         d="m 651.05308,460.57702 2.38154,1.33745 1.14393,-2.19168 2.41892,-1.17385 0.20979,-2.3078 3.91631,0.13986 -0.55946,6.15418 -5.03526,3.91631 -4.47577,-3.91631 z"
         id="path1332"
         inkscape:connector-curvature="0" />
      <path
         style="fill:#000000;fill-opacity:1;stroke:none;stroke-width:0.26458332px;stroke-linecap:butt;stroke-linejoin:miter;stroke-opacity:1"
         d="m 652.96779,409.55345 3.22157,-4.35436 11.66601,1.04125 6.63074,3.90382 5.75562,-3.36992 3.21072,1.24862 v 6.68446 l -4.90194,1.78253 -6.23882,4.45632 -7.1301,1.33689 -4.01066,-6.23882 -8.02137,-2.6738 z"
         id="path1334"
         inkscape:connector-curvature="0" />
      <path
         style="fill:#000000;fill-opacity:1;stroke:none;stroke-width:0.26458332px;stroke-linecap:butt;stroke-linejoin:miter;stroke-opacity:1"
         d="m 699.44736,422.53298 2.23668,-0.57009 0.76647,-0.64286 2.31182,0.37375 -0.8392,2.51761 h -2.51762 z"
         id="path1336"
         inkscape:connector-curvature="0" />
      <path
         style="fill:#000000;fill-opacity:1;stroke:none;stroke-width:0.26458332px;stroke-linecap:butt;stroke-linejoin:miter;stroke-opacity:1"
         d="m 711.70807,427.09284 3.47443,-3.16119 2.93722,-6.36397 5.52479,-1.39869 3.75388,4.26093 2.05062,1.89325 4.04715,-2.0846 1.41878,12.05952 -4.35166,-1.97802 -9.89015,2.76923 -7.12094,-2.76923 z"
         id="path1338"
         inkscape:connector-curvature="0" />
      <path
         style="fill:#000000;fill-opacity:1;stroke:none;stroke-width:0.26458332px;stroke-linecap:butt;stroke-linejoin:miter;stroke-opacity:1"
         d="m 676.22927,450.78628 -0.34965,-3.18199 1.18888,-1.78332 4.75549,-1.18888 0.55949,5.03526 z"
         id="path1340"
         inkscape:connector-curvature="0" />
      <path
         style="fill:#000000;fill-opacity:1;stroke:none;stroke-width:0.26458332px;stroke-linecap:butt;stroke-linejoin:miter;stroke-opacity:1"
         d="m 712.45382,449.27193 2.33466,-0.50673 2.08764,-1.9663 1.81896,4.09268 h -4.35168 z"
         id="path1343"
         inkscape:connector-curvature="0" />
      <path
         style="fill:#000000;fill-opacity:1;stroke:none;stroke-width:0.26458332px;stroke-linecap:butt;stroke-linejoin:miter;stroke-opacity:1"
         d="m 727.7524,473.43696 1.15427,-1.23211 1.28572,-0.27196 1.70431,-0.16643 2.44957,0.38894 1.187,-0.9484 2.23787,2.51762 -3.07708,1.39867 -2.51761,-1.39867 -3.07711,2.23787 z"
         id="path1345"
         inkscape:connector-curvature="0" />
      <path
         style="fill:#000000;fill-opacity:1;stroke:none;stroke-width:0.26458332px;stroke-linecap:butt;stroke-linejoin:miter;stroke-opacity:1"
         d="m 760.14997,459.17836 -4.76242,0.76271 -0.79121,-0.89011 -1.58242,-0.84066 -1.87913,1.18681 -2.38035,-3.07501 -5.72092,-0.44588 -4.90887,5.15038 1.3249,4.30594 6.15421,-1.11895 5.03523,2.2379 4.47577,-1.67841 5.5947,-0.55949 z"
         id="path1347"
         inkscape:connector-curvature="0" />
      <path
         style="fill:#000000;fill-opacity:1;stroke:none;stroke-width:0.26458332px;stroke-linecap:butt;stroke-linejoin:miter;stroke-opacity:1"
         d="m 742.89461,400.56727 1.38038,-0.51804 0.94412,0.69933 1.46862,-1.22384 1.6896,-0.53806 1.42246,0.32826 -2.2379,4.75551 -3.07708,-1.39868 -1.67841,-1.39868 z"
         id="path1349"
         inkscape:connector-curvature="0" />
      <path
         style="fill:#000000;fill-opacity:1;stroke:none;stroke-width:0.26458332px;stroke-linecap:butt;stroke-linejoin:miter;stroke-opacity:1"
         d="m 742.86863,420.79509 8.46397,-6.00255 2.17368,-4.14832 13.22118,0.56558 -2.90071,0.50143 11.6295,7.90983 -2.45134,3.65199 -4.19321,6.58345 -15.23245,3.90902 -4.43867,-8.62155 z"
         id="path1351"
         inkscape:connector-curvature="0"
         sodipodi:nodetypes="ccccccccccc" />
      <path
         style="fill:#000000;fill-opacity:1;stroke:none;stroke-width:0.26458332px;stroke-linecap:butt;stroke-linejoin:miter;stroke-opacity:1"
         d="m 780.85044,408.82593 1.01798,-3.42904 3.14013,-0.34616 1.58242,-1.38462 5.44891,1.24352 -1.11895,5.03525 -4.47577,1.67841 z"
         id="path1353"
         inkscape:connector-curvature="0" />
      <path
         style="fill:#000000;fill-opacity:1;stroke:none;stroke-width:0.26458332px;stroke-linecap:butt;stroke-linejoin:miter;stroke-opacity:1"
         d="m 771.33944,452.46469 3.46813,-2.13175 1.5671,1.85203 -0.27977,1.95815 z"
         id="path1355"
         inkscape:connector-curvature="0" />
      <path
         style="fill:#000000;fill-opacity:1;stroke:none;stroke-width:0.26458332px;stroke-linecap:butt;stroke-linejoin:miter;stroke-opacity:1"
         d="m 786.44516,436.7995 0.13986,-4.61563 6.01432,-5.45486 1.11895,4.47577 6.71362,2.2379 -0.55946,5.59472 -5.5947,-2.79736 z"
         id="path1357"
         inkscape:connector-curvature="0" />
      <path
         style="fill:#000000;fill-opacity:1;stroke:none;stroke-width:0.26458332px;stroke-linecap:butt;stroke-linejoin:miter;stroke-opacity:1"
         d="m 784.20726,457.49995 6.50386,-2.16795 1.35035,-2.4825 3.89467,6.32886 h -4.47575 l -2.79736,2.79736 z"
         id="path1359"
         inkscape:connector-curvature="0" />
      <path
         style="fill:#000000;fill-opacity:1;stroke:none;stroke-width:0.26458332px;stroke-linecap:butt;stroke-linejoin:miter;stroke-opacity:1"
         d="m 812.19904,449.35612 0.20389,-1.51474 2.28684,-0.32125 -0.25804,2.58024 z"
         id="path1361"
         inkscape:connector-curvature="0" />
      <path
         style="fill:#000000;fill-opacity:1;stroke:none;stroke-width:0.26458332px;stroke-linecap:butt;stroke-linejoin:miter;stroke-opacity:1"
         d="m 805.33281,387.99023 2.53249,-2.24073 1.81917,3.03194 z"
         id="path1363"
         inkscape:connector-curvature="0" />
      <path
         style="fill:#000000;fill-opacity:1;stroke:none;stroke-width:0.26458332px;stroke-linecap:butt;stroke-linejoin:miter;stroke-opacity:1"
         d="m 806.47549,415.87779 1.92326,-2.42044 0.64286,-3.85715 2.42308,-1.97802 2.57146,0.89011 5.97728,0.31364 0.55949,7.27313 h -5.59472 l -5.03526,6.71367 z"
         id="path1365"
         inkscape:connector-curvature="0" />
      <path
         style="fill:#000000;fill-opacity:1;stroke:none;stroke-width:0.26458332px;stroke-linecap:butt;stroke-linejoin:miter;stroke-opacity:1"
         d="m 834.47135,400.81667 3.2517,-1.84838 2.02747,-2.91759 7.11751,-1.21155 -5.59467,4.47577 4.47577,3.35683 -3.91633,2.79735 h -5.03521 z"
         id="path1367"
         inkscape:connector-curvature="0" />
      <path
         style="fill:#000000;fill-opacity:1;stroke:none;stroke-width:0.26458332px;stroke-linecap:butt;stroke-linejoin:miter;stroke-opacity:1"
         d="m 825.50872,429.52886 3.59614,-2.03057 0.27971,-2.23788 6.64374,-2.79736 4.5134,-0.0551 4.35168,0.39561 -3.56047,4.74728 -11.07694,5.93408 z"
         id="path1369"
         inkscape:connector-curvature="0" />
      <path
         style="fill:#000000;fill-opacity:1;stroke:none;stroke-width:0.26458332px;stroke-linecap:butt;stroke-linejoin:miter;stroke-opacity:1"
         d="m 856.37906,401.83254 2.44771,-1.04901 1.54472,0.41005 2.72124,-1.31919 2.2379,1.67842 -1.39872,3.35682 h -5.31495 z"
         id="path1371"
         inkscape:connector-curvature="0" />
      <path
         style="fill:#000000;fill-opacity:1;stroke:none;stroke-width:0.26458332px;stroke-linecap:butt;stroke-linejoin:miter;stroke-opacity:1"
         d="m 868.23414,375.72644 2.359,-1.0982 1.62983,-1.57493 0.36285,5.44237 z"
         id="path1373"
         inkscape:connector-curvature="0" />
      <path
         style="fill:#000000;fill-opacity:1;stroke:none;stroke-width:0.26458332px;stroke-linecap:butt;stroke-linejoin:miter;stroke-opacity:1"
         d="m 831.40356,465.4384 0.91826,-3.04308 -0.55949,-1.60848 3.00718,-0.69935 3.07707,0.69935 2.86727,-2.72743 3.91631,4.47577 5.59472,1.67841 -2.2379,4.47577 h -15.1057 z"
         id="path1375"
         inkscape:connector-curvature="0" />
      <path
         style="fill:#000000;fill-opacity:1;stroke:none;stroke-width:0.26458332px;stroke-linecap:butt;stroke-linejoin:miter;stroke-opacity:1"
         d="m 855.76271,450.87544 4.35724,-2.22626 4.32874,-2.39342 2.2806,-4.28114 10.85993,-0.0742 6.4837,2.45195 10.27123,-5.72458 4.35162,7.51652 v 7.9121 l -10.6813,5.14289 -9.49455,-5.14289 -6.32973,5.9341 -7.9121,-5.5385 h -6.32968 z"
         id="path1377"
         inkscape:connector-curvature="0" />
      <path
         style="fill:#000000;fill-opacity:1;stroke:none;stroke-width:0.26458332px;stroke-linecap:butt;stroke-linejoin:miter;stroke-opacity:1"
         d="m 876.72263,414.97701 1.89619,-2.95373 3.56045,0.19781 2.57143,-4.25276 6.87504,-0.26133 v 9.51101 l -8.95154,1.11895 h -5.03521 z"
         id="path1379"
         inkscape:connector-curvature="0" />
      <path
         style="fill:#000000;fill-opacity:1;stroke:none;stroke-width:0.26458332px;stroke-linecap:butt;stroke-linejoin:miter;stroke-opacity:1"
         d="m 902.76137,418.13791 2.3966,-1.82904 1.2238,-1.43364 7.0633,0.10488 5.315,3.0771 -8.3921,2.79736 -4.196,-2.2379 -1.9581,1.11895 z"
         id="path1381"
         inkscape:connector-curvature="0" />
      <path
         style="fill:#000000;fill-opacity:1;stroke:none;stroke-width:0.26458332;stroke-linecap:round;stroke-linejoin:round;stroke-miterlimit:4;stroke-dasharray:none;stroke-opacity:1"
         d="m 889.99246,384.03417 1.84312,-3.95108 5.87439,-2.86729 4.5457,-6.08425 4.0562,1.39868 6.1542,-3.98624 8.649,-2.46809 7.2511,5.29887 -8.3077,15.82425 -15.033,4.35166 -7.1209,-6.7253 z"
         id="path1383"
         inkscape:connector-curvature="0" />
    </g>
  </g>
</svg>
