<?xml version="1.0" encoding="UTF-8" standalone="no"?>
<!-- Created with Inkscape (http://www.inkscape.org/) -->

<svg
   xmlns:dc="http://purl.org/dc/elements/1.1/"
   xmlns:cc="http://creativecommons.org/ns#"
   xmlns:rdf="http://www.w3.org/1999/02/22-rdf-syntax-ns#"
   xmlns:svg="http://www.w3.org/2000/svg"
   xmlns="http://www.w3.org/2000/svg"
   xmlns:sodipodi="http://sodipodi.sourceforge.net/DTD/sodipodi-0.dtd"
   xmlns:inkscape="http://www.inkscape.org/namespaces/inkscape"
   width="100"
   height="100"
   viewBox="0 0 26.458333 26.458334"
   version="1.1"
   id="svg4885"
   inkscape:version="0.92.3 (2405546, 2018-03-11)"
   sodipodi:docname="earth-shadow.svg">
  <defs
     id="defs4879" />
  <sodipodi:namedview
     id="base"
     pagecolor="#ffffff"
     bordercolor="#666666"
     borderopacity="1.0"
     inkscape:pageopacity="0.0"
     inkscape:pageshadow="2"
     inkscape:zoom="1.4"
     inkscape:cx="-30.033653"
     inkscape:cy="171.36188"
     inkscape:document-units="px"
     inkscape:current-layer="layer1"
     showgrid="false"
     inkscape:pagecheckerboard="true"
     units="px"
     inkscape:window-width="700"
     inkscape:window-height="736"
     inkscape:window-x="657"
     inkscape:window-y="0"
     inkscape:window-maximized="0" />
  <metadata
     id="metadata4882">
    <rdf:RDF>
      <cc:Work
         rdf:about="">
        <dc:format>image/svg+xml</dc:format>
        <dc:type
           rdf:resource="http://purl.org/dc/dcmitype/StillImage" />
        <dc:title></dc:title>
      </cc:Work>
    </rdf:RDF>
  </metadata>
  <g
     inkscape:label="Layer 1"
     inkscape:groupmode="layer"
     id="layer1"
     transform="translate(0,-270.54166)">
    <g
       transform="matrix(0.83333334,0,0,0.83333334,-119.0625,151.47916)"
       id="g5522">
      <path
         inkscape:connector-curvature="0"
         id="path872"
         d="m 148.73549,151.19153 c 0,0 1.00226,0.76841 0.96885,-0.13363 -0.0334,-0.90203 0.90204,-0.70158 0.96885,-0.90203 0.0668,-0.20046 -1.1693,-1.03567 -1.46998,-0.7684 -0.30068,0.26726 -0.26727,0.0668 -0.73499,0.30067 -0.46772,0.23387 -0.66818,0.63477 -0.66818,0.63477 0,0 0.33409,0.33409 0.735,0 0.4009,-0.33409 0.70158,-0.4009 0.70158,0.16704 0,0.56795 -0.50113,0.70158 -0.50113,0.70158 z"
         style="display:inline;opacity:0.5;fill:#00ffcb;fill-opacity:1;stroke:none;stroke-width:0.26458332px;stroke-linecap:butt;stroke-linejoin:miter;stroke-opacity:1" />
      <path
         inkscape:connector-curvature="0"
         id="path892"
         d="m 165.03893,145.96307 -0.7684,-0.33408 0.61806,0.0167 0.28398,-0.21715 -1.5201,0.10022 c 0,0 -0.58465,0.20045 -0.20045,0.26727 0.3842,0.0668 0.3842,-0.0167 0.3842,-0.0167 l -0.0501,0.15034 z"
         style="display:inline;fill:#00ffcb;fill-opacity:1;stroke:none;stroke-width:0.26458332px;stroke-linecap:butt;stroke-linejoin:miter;stroke-opacity:1" />
      <path
         inkscape:connector-curvature="0"
         id="path894"
         d="m 156.00188,148.31839 c -0.0501,-0.0668 -0.31738,-0.26727 -0.31738,-0.26727 l 1.1526,-0.51784 c 0,0 0.71828,-0.28397 0.26727,0.26727 -0.45102,0.55125 -1.10249,0.51784 -1.10249,0.51784 z"
         style="display:inline;fill:#00ffcb;fill-opacity:1;stroke:none;stroke-width:0.26458332px;stroke-linecap:butt;stroke-linejoin:miter;stroke-opacity:1" />
      <circle
         r="15.875"
         cy="158.75"
         cx="158.75"
         id="circle936"
         style="opacity:1;fill:#4d8fff;fill-opacity:1;stroke-width:0.26458332" />
      <path
         sodipodi:nodetypes="csccscsscccsccccc"
         inkscape:connector-curvature="0"
         id="path860"
         d="m 160.6958,160.61279 c 0,0 3.89499,-1.36815 3.12212,1.04589 -0.14501,0.45295 0.87212,1.31594 0.85351,2.0277 -0.70525,3.55239 0.66818,4.87768 0.66818,4.87768 0,0 0.59526,0.47212 1.52361,-0.43066 0.46384,-0.45108 1.84911,-3.39219 2.70259,-3.97929 0.27641,-0.59382 -0.17216,-1.52738 0.002,-2.07682 0.25595,-0.80755 0.24066,-0.0591 1.27068,-1.35505 0.39505,-0.49704 0.68176,-1.67965 0.68175,-1.67966 0,0 -1.40317,0.83522 -2.33861,-1.26953 -0.93545,-2.10475 -0.50113,-2.17157 -1.5368,-2.47224 -1.03567,-0.30068 -1.67044,0.46771 -2.6727,-0.23387 -1.00226,-0.70158 -0.90203,-0.93544 -0.90203,-0.93544 0,0 -1.60362,0.3675 -2.53906,0.23386 -0.93544,-0.13363 -0.7684,-0.16704 -0.7684,-0.16704 0,0 -6.08038,5.04471 -0.0668,6.41447 z"
         style="opacity:1;fill:#63fade;fill-opacity:1;stroke:none;stroke-width:0.26458332px;stroke-linecap:butt;stroke-linejoin:miter;stroke-opacity:1" />
      <path
         id="path862"
         d="m 165.20748,147.31969 c -0.61629,0.0121 -1.02858,0.30985 -1.57147,0.9989 -0.86863,1.10248 -0.60168,0.70133 -0.53486,1.00201 0.0668,0.30068 0.70169,0.16701 1.06919,0.56792 0.36749,0.4009 0.33406,0.46786 0.56792,-0.16691 0.23386,-0.63476 0.26743,-1.13608 0.60152,-0.70177 0.33409,0.43431 0.10022,0.36761 0.66817,0.40101 0.56795,0.0334 0.56793,0 0.56793,0 0,0 -1.60371,1.43653 -2.30529,1.13585 -0.70158,-0.30068 -0.50126,-0.70177 -0.50126,-0.70177 0,0 -0.63469,0.83533 -1.0356,1.06919 l -0.401,0.23409 c 0,0 -0.46743,-1.30317 -0.80151,-1.57044 -0.33409,-0.26727 -0.53449,0.36746 -0.46767,0.56792 0.0668,0.20045 -1.2697,0.33424 -0.70176,0.60152 0.56795,0.26726 1.53685,0.73483 1.53685,0.73483 0,0 -0.90196,-0.16709 -0.36742,0.46768 0.53454,0.63475 -0.0335,0.90221 -0.60151,0.70176 -0.56795,-0.20045 -0.80202,-0.10012 -0.80202,0.40101 0,0.50113 0.0336,0.66818 0.0336,0.66818 l 1.47019,0.401 c 0,0 1.11908,-2.78975 3.45767,-0.45113 l 0.60669,-0.11989 c 0.14219,0.57749 0.62502,0.78803 0.8263,0.41083 -0.6135,-0.72338 0.20119,-0.92979 0.67025,0.24391 0.14764,0.36942 1.62918,0.0263 1.47122,0.43408 -0.0506,0.42371 -0.64537,0.90469 0.74053,2.26136 0.0909,1.01551 0.94375,2.13577 1.24747,1.81436 0.0366,-0.0264 2.35639,-0.8723 1.97094,-1.70377 -0.43431,-0.50113 -0.43408,-0.75189 -0.43408,-0.75189 l 2.32543,0.76894 a 15.875,15.875 0 0 0 -4.34082,-9.30899 c -0.009,8e-4 -0.62998,0.0572 -1.45934,0.45527 l -0.83509,0.40101 c 0,0 0.30052,-0.5348 -1.26969,-1.00252 -0.58883,-0.1754 -1.03169,-0.27079 -1.40147,-0.26355 z"
         style="opacity:1;fill:#63fade;fill-opacity:1;stroke:none;stroke-width:0.26458332px;stroke-linecap:butt;stroke-linejoin:miter;stroke-opacity:1"
         inkscape:connector-curvature="0" />
      <path
         sodipodi:nodetypes="ccccsscccc"
         inkscape:connector-curvature="0"
         id="path864"
         d="m 156.25245,172.5731 c 0,0 -0.93545,0.0668 -1.46999,-1.30294 -0.53454,-1.36976 -0.60135,-1.30294 -0.60135,-1.30294 0.0635,0.21162 1.45937,-1.87284 1.13589,-3.04019 -0.10637,-0.42548 -0.16064,-0.65944 0.18372,-0.82159 1.84009,-0.86647 0.38292,-1.59784 0.56423,-2.05749 0.46888,-1.18866 0.62291,-2.41305 -2.64253,-2.33435 -1.96364,-0.86107 -3.40125,-2.3331 -5.54158,-0.63492 0.72892,1.06659 -0.98578,2.52936 2.85748,4.22878 0.93152,1.45943 2.62176,9.3237 5.51413,7.26564"
         style="fill:#63fade;fill-opacity:1;stroke:none;stroke-width:0.26458332px;stroke-linecap:butt;stroke-linejoin:miter;stroke-opacity:1" />
      <path
         id="path868"
         d="m 148.66844,150.49004 -1.17615,0.27853 c -1.63006,1.41427 -2.26406,1.19543 -3.01584,1.07797 a 15.875,15.875 0 0 0 -1.60145,6.90346 15.875,15.875 0 0 0 0.003,0.0946 c 1.86378,1.14543 0.11731,1.83476 5.0028,2.23397 -1.10236,-1.6595 -1.51961,-0.43251 -1.3839,-1.63505 -2.3583,1.68232 -1.19495,-2.61452 0.70177,-0.96893 0.4169,-2.20224 2.08751,-3.69904 3.9088,-5.11131 -0.44274,-0.28821 -0.86658,-0.65187 -1.13378,-1.64228 l -0.93741,-0.262 c -0.53112,0.85749 -1.54218,1.71496 -1.26969,2.57245 -0.69447,-0.8412 -1.09977,-0.71856 -1.53685,-0.70176 0.69804,-0.9647 2.45931,-2.27367 2.43861,-2.83962 z"
         style="opacity:1;fill:#63fade;fill-opacity:1;stroke:none;stroke-width:0.26458332px;stroke-linecap:butt;stroke-linejoin:miter;stroke-opacity:1"
         inkscape:connector-curvature="0" />
      <path
         inkscape:connector-curvature="0"
         id="path870"
         d="m 148.0005,149.48769 c 0,0 -0.46772,-1.03567 1.63702,-1.90429 2.10475,-0.86863 2.10475,-0.86863 2.10475,-0.86863 0,0 2.53906,-1.50339 3.54132,-1.77066 1.00226,-0.26727 1.10249,0.0334 1.10249,0.0334 l 1.10249,-0.23386 c 0,0 -1.1359,0.53454 -1.06908,0.96885 0.0668,0.43431 0.0668,0.43431 0.0668,0.43431 l -0.90204,0.60136 c 0,0 0.90204,0.13363 0.33409,0.43431 -0.56795,0.30068 -2.50565,1.80407 -2.77292,2.47224 -0.26727,0.66818 -1.06908,1.63703 -1.30294,0.23387 -0.23386,-1.40317 -0.0334,-1.10249 0,-1.46999 0.0334,-0.36749 -0.13364,-0.36749 -0.60136,-0.26726 -0.46772,0.10022 -0.46772,0.10022 -0.46772,0.10022 l -0.26727,-0.33409 0.7684,-0.83521 c 0,0 -1.36976,1.30294 -2.00452,1.73725 -0.63477,0.43431 -1.26953,0.66817 -1.26953,0.66817 z"
         style="opacity:1;fill:#63fade;fill-opacity:1;stroke:none;stroke-width:0.26458332px;stroke-linecap:butt;stroke-linejoin:miter;stroke-opacity:1" />
      <path
         inkscape:connector-curvature="0"
         id="path876"
         d="m 146.53052,151.19153 -1.40317,0.60136 -0.20045,-0.0334 c 0,0 -0.16704,-0.4009 0.50113,-0.7684 0.66817,-0.36749 1.13589,-0.60135 1.13589,-0.60135 0,0 -0.20045,0.20045 -0.0334,0.8018 z"
         style="opacity:1;fill:#63fade;fill-opacity:1;stroke:none;stroke-width:0.26458332px;stroke-linecap:butt;stroke-linejoin:miter;stroke-opacity:1" />
      <path
         inkscape:connector-curvature="0"
         id="path878"
         d="m 147.09846,150.91591 0.30903,-0.25056 0.47608,-0.80181 -0.32574,0.0334 -0.25056,0.36749 c 0,0 -0.1754,-0.24221 -0.35915,0 -0.18374,0.24222 -0.4176,0.24222 -0.25891,0.37585 0.15869,0.13364 0.15869,0.13364 0.15869,0.13364 l 0.26727,-0.27562 c 0,0 -0.20045,0.30903 -0.12528,0.36749 0.0752,0.0585 0.10857,0.0501 0.10857,0.0501 z"
         style="opacity:1;fill:#63fade;fill-opacity:1;stroke:none;stroke-width:0.26458332px;stroke-linecap:butt;stroke-linejoin:miter;stroke-opacity:1" />
      <path
         inkscape:connector-curvature="0"
         id="path880"
         d="m 146.74767,149.96377 -0.2088,0.28397 -0.70994,0.29232 c 0,0 0.0835,-0.2255 -0.12528,-0.13363 -0.2088,0.0919 -0.28397,0.10023 -0.18375,-0.0167 0.10023,-0.11693 0,-0.14199 0,-0.14199 0,0 0.10023,-0.16704 0.16705,-0.14199 0.0668,0.0251 0.30903,-0.15033 0.30903,-0.15033 l 0.14198,0.24221 z"
         style="opacity:1;fill:#63fade;fill-opacity:1;stroke:none;stroke-width:0.26458332px;stroke-linecap:butt;stroke-linejoin:miter;stroke-opacity:1" />
      <path
         inkscape:connector-curvature="0"
         id="path882"
         d="m 145.01877,151.0746 c 0,0 0.1921,-0.47607 0.31738,-0.39255 0.12529,0.0835 0.12529,0.13364 0.12529,0.13364 z"
         style="opacity:1;fill:#63fade;fill-opacity:1;stroke:none;stroke-width:0.26458332px;stroke-linecap:butt;stroke-linejoin:miter;stroke-opacity:1" />
      <path
         inkscape:connector-curvature="0"
         id="path884"
         d="m 147.57454,149.21207 0.008,-0.18375 -0.3842,0.12529 z"
         style="opacity:1;fill:#63fade;fill-opacity:1;stroke:none;stroke-width:0.26458332px;stroke-linecap:butt;stroke-linejoin:miter;stroke-opacity:1" />
      <path
         inkscape:connector-curvature="0"
         id="path886"
         d="m 147.07341,149.91365 c 0,0 0.35914,0.0334 0.35914,-0.15869 0,-0.1921 0,-0.20045 0,-0.20045 l -0.1754,-0.0418 v 0.15034 c 0,0 -0.14198,-0.0167 -0.16704,0.11693 -0.0251,0.13363 -0.0167,0.13363 -0.0167,0.13363 z"
         style="opacity:1;fill:#63fade;fill-opacity:1;stroke:none;stroke-width:0.26458332px;stroke-linecap:butt;stroke-linejoin:miter;stroke-opacity:1" />
      <path
         inkscape:connector-curvature="0"
         id="path888"
         d="m 147.54113,149.79672 0.11693,-0.21715 0.15869,-0.0251 0.0167,0.15034 z"
         style="opacity:1;fill:#63fade;fill-opacity:1;stroke:none;stroke-width:0.26458332px;stroke-linecap:butt;stroke-linejoin:miter;stroke-opacity:1" />
      <path
         inkscape:connector-curvature="0"
         id="path890"
         d="m 171.0692,163.58616 c 0,0 0.36749,0.10022 0.0668,0.88533 -0.30068,0.7851 -0.66818,1.80407 -0.66818,1.80407 0,0 -0.58465,0.3675 -0.63476,-0.16704 -0.0501,-0.53454 0.26727,-0.85193 0.26727,-0.85193 0,0 0.16704,-0.7851 0.46772,-1.06907 0.30068,-0.28398 0.50113,-0.60136 0.50113,-0.60136 z"
         style="opacity:1;fill:#63fade;fill-opacity:1;stroke:none;stroke-width:0.26458332px;stroke-linecap:butt;stroke-linejoin:miter;stroke-opacity:1" />
    </g>
    <path
       inkscape:connector-curvature="0"
       style="opacity:0.1;fill:#030303;fill-opacity:1;stroke-width:0.2204861"
       d="M 8.6537353,271.36848 A 13.229167,13.229167 0 0 0 0,283.77082 a 13.229167,13.229167 0 0 0 13.229167,13.22917 13.229167,13.229167 0 0 0 7.221266,-2.14974 13.229167,13.229167 0 0 1 -4.575432,0.82682 13.229167,13.229167 0 0 1 -13.2291677,-13.22916 13.229167,13.229167 0 0 1 6.007902,-11.07943 z"
       id="circle6464" />
  </g>
</svg>
