<?xml version="1.0" encoding="UTF-8" standalone="no"?>
<!-- Created with Inkscape (http://www.inkscape.org/) -->

<svg
   xmlns:dc="http://purl.org/dc/elements/1.1/"
   xmlns:cc="http://creativecommons.org/ns#"
   xmlns:rdf="http://www.w3.org/1999/02/22-rdf-syntax-ns#"
   xmlns:svg="http://www.w3.org/2000/svg"
   xmlns="http://www.w3.org/2000/svg"
   xmlns:sodipodi="http://sodipodi.sourceforge.net/DTD/sodipodi-0.dtd"
   xmlns:inkscape="http://www.inkscape.org/namespaces/inkscape"
   width="100"
   height="100"
   viewBox="0 0 26.458333 26.458334"
   version="1.1"
   id="svg4885"
   inkscape:version="0.92.3 (2405546, 2018-03-11)"
   sodipodi:docname="mars-shadow.svg">
  <defs
     id="defs4879" />
  <sodipodi:namedview
     id="base"
     pagecolor="#ffffff"
     bordercolor="#666666"
     borderopacity="1.0"
     inkscape:pageopacity="0.0"
     inkscape:pageshadow="2"
     inkscape:zoom="1.4"
     inkscape:cx="59.966347"
     inkscape:cy="171.36188"
     inkscape:document-units="px"
     inkscape:current-layer="layer1"
     showgrid="false"
     inkscape:pagecheckerboard="true"
     units="px"
     inkscape:window-width="700"
     inkscape:window-height="736"
     inkscape:window-x="657"
     inkscape:window-y="0"
     inkscape:window-maximized="0" />
  <metadata
     id="metadata4882">
    <rdf:RDF>
      <cc:Work
         rdf:about="">
        <dc:format>image/svg+xml</dc:format>
        <dc:type
           rdf:resource="http://purl.org/dc/dcmitype/StillImage" />
        <dc:title></dc:title>
      </cc:Work>
    </rdf:RDF>
  </metadata>
  <g
     inkscape:label="Layer 1"
     inkscape:groupmode="layer"
     id="layer1"
     transform="translate(0,-270.54166)">
    <circle
       r="13.229167"
       cy="283.77072"
       cx="13.229166"
       id="circle934"
       style="opacity:1;fill:#fe8761;fill-opacity:1;stroke-width:0.2204861" />
    <path
       inkscape:connector-curvature="0"
       style="opacity:0.25;fill:#000000;fill-opacity:1;stroke:none;stroke-width:0.22048609px;stroke-linecap:butt;stroke-linejoin:miter;stroke-opacity:1"
       d="m 5.85784,285.82292 c -2.8517652,0.027 -4.94744376,0.5783 -5.54057565,0.75146 a 13.229167,13.229167 0 0 0 8.18425475,9.53602 c 6.2889499,-1.81328 13.6128429,-2.60789 13.6770289,-2.61482 a 13.229167,13.229167 0 0 0 3.376626,-4.96008 c -0.01431,-0.0269 -0.19233,-0.29305 -2.296588,-1.45039 -2.22724,-1.22499 -2.784265,3.1185 -9.577365,0.22307 -2.759697,-1.17626 -5.5191424,-1.50709 -7.823381,-1.48526 z"
       id="path833" />
    <path
       inkscape:connector-curvature="0"
       style="opacity:0.6;fill:#ffffff;fill-opacity:1;stroke:none;stroke-width:0.22048609px;stroke-linecap:butt;stroke-linejoin:miter;stroke-opacity:1"
       d="M 13.229052,270.54177 A 13.229167,13.229167 0 0 0 2.7271092,275.7529 c 8.2245638,-2.1614 8.8788518,-3.46305 14.6308898,-4.5402 a 13.229167,13.229167 0 0 0 -4.128947,-0.67093 z"
       id="path835" />
    <path
       inkscape:connector-curvature="0"
       style="opacity:0.75;fill:#ffffff;fill-opacity:1;stroke:none;stroke-width:0.22048609px;stroke-linecap:butt;stroke-linejoin:miter;stroke-opacity:1"
       d="m 23.67243,291.86561 -0.02024,0.005 a 13.229166,13.229166 0 0 1 -0.288528,0.35915 13.229166,13.229166 0 0 0 0.308769,-0.36431 z m -0.78376,0.90693 a 13.229166,13.229166 0 0 1 -0.435806,0.44355 13.229166,13.229166 0 0 0 0.435806,-0.44355 z m -0.738543,0.72648 c -0.143587,0.0156 -7.380181,0.80674 -13.6300892,2.60621 a 13.229166,13.229166 0 0 0 4.7090142,0.89487 13.229166,13.229166 0 0 0 8.921075,-3.50108 z m -14.3173863,2.31941 -0.025407,0.006 a 13.229166,13.229166 0 0 0 0.4035072,0.1589 13.229166,13.229166 0 0 1 -0.3781006,-0.16536 z"
       id="path837" />
    <path
       style="opacity:0.1;fill:#030303;fill-opacity:1;stroke-width:0.83333331"
       d="M 32.707031 3.125 A 50.000001 50.000001 0 0 0 0 50 A 50.000001 50.000001 0 0 0 50 100 A 50.000001 50.000001 0 0 0 77.292969 91.875 A 50.000001 50.000001 0 0 1 60 95 A 50.000001 50.000001 0 0 1 10 45 A 50.000001 50.000001 0 0 1 32.707031 3.125 z "
       transform="matrix(0.26458333,0,0,0.26458333,0,270.54166)"
       id="circle6464" />
  </g>
</svg>
