<?xml version="1.0" encoding="UTF-8" standalone="no"?>
<!-- Created with Inkscape (http://www.inkscape.org/) -->

<svg
   xmlns:dc="http://purl.org/dc/elements/1.1/"
   xmlns:cc="http://creativecommons.org/ns#"
   xmlns:rdf="http://www.w3.org/1999/02/22-rdf-syntax-ns#"
   xmlns:svg="http://www.w3.org/2000/svg"
   xmlns="http://www.w3.org/2000/svg"
   xmlns:sodipodi="http://sodipodi.sourceforge.net/DTD/sodipodi-0.dtd"
   xmlns:inkscape="http://www.inkscape.org/namespaces/inkscape"
   width="185.03043"
   height="50"
   viewBox="0 0 48.955966 13.229167"
   version="1.1"
   id="svg2962"
   inkscape:version="0.92.3 (2405546, 2018-03-11)"
   sodipodi:docname="marsr-text.svg">
  <defs
     id="defs2956" />
  <sodipodi:namedview
     id="base"
     pagecolor="#ffffff"
     bordercolor="#666666"
     borderopacity="1.0"
     inkscape:pageopacity="0.0"
     inkscape:pageshadow="2"
     inkscape:zoom="1"
     inkscape:cx="-119.12231"
     inkscape:cy="40.347008"
     inkscape:document-units="px"
     inkscape:current-layer="layer1"
     showgrid="false"
     units="px"
     inkscape:pagecheckerboard="true"
     fit-margin-top="0"
     fit-margin-left="0"
     fit-margin-right="0"
     fit-margin-bottom="0"
     inkscape:window-width="1366"
     inkscape:window-height="745"
     inkscape:window-x="-8"
     inkscape:window-y="-8"
     inkscape:window-maximized="1" />
  <metadata
     id="metadata2959">
    <rdf:RDF>
      <cc:Work
         rdf:about="">
        <dc:format>image/svg+xml</dc:format>
        <dc:type
           rdf:resource="http://purl.org/dc/dcmitype/StillImage" />
        <dc:title></dc:title>
      </cc:Work>
    </rdf:RDF>
  </metadata>
  <g
     inkscape:label="Layer 1"
     inkscape:groupmode="layer"
     id="layer1"
     transform="translate(-8.2528715,-268.64229)">
    <g
       aria-label="MARS"
       style="font-style:normal;font-variant:normal;font-weight:normal;font-stretch:normal;font-size:18.37384224px;line-height:1.25;font-family:'iCiel Brandon Text';-inkscape-font-specification:'iCiel Brandon Text';letter-spacing:0px;word-spacing:0px;fill:#ffffff;fill-opacity:1;stroke:none;stroke-width:0.45934606"
       id="text3509">
      <path
         d="m 10.445973,268.91789 q 0.01837,-0.11024 0.09187,-0.18374 0.09187,-0.0919 0.238859,-0.0919 h 0.293982 q 0.220486,0 0.312355,0.18373 l 4.042246,8.67246 h 0.05512 l 4.042245,-8.67246 q 0.09187,-0.18373 0.312356,-0.18373 h 0.293981 q 0.146991,0 0.220486,0.0919 0.09187,0.0735 0.110243,0.18374 l 2.168114,12.34723 q 0.03675,0.20211 -0.05512,0.31235 -0.09187,0.11024 -0.275607,0.11024 h -1.67202 q -0.128617,0 -0.220486,-0.0919 -0.09187,-0.0919 -0.128617,-0.18373 l -1.084057,-6.96369 h -0.05512 l -3.215423,7.22092 q -0.0735,0.20211 -0.312355,0.20211 h -0.330729 q -0.220486,0 -0.312355,-0.20211 l -3.252171,-7.22092 h -0.05512 l -1.065683,6.96369 q -0.01837,0.0919 -0.110243,0.18373 -0.09187,0.0919 -0.220486,0.0919 H 8.6085891 q -0.4042245,0 -0.349103,-0.42259 z"
         style="font-style:normal;font-variant:normal;font-weight:normal;font-stretch:normal;font-family:'iCiel Brandon Text';-inkscape-font-specification:'iCiel Brandon Text';fill:#ffffff;fill-opacity:1;stroke-width:0.45934606"
         id="path4109" />
      <path
         d="m 23.858017,281.68771 q -0.202112,0 -0.312355,-0.14699 -0.09187,-0.14699 0,-0.33073 l 5.714265,-12.36559 q 0.09187,-0.20211 0.312355,-0.20211 h 0.183739 q 0.146991,0 0.202112,0.0551 0.0735,0.0551 0.110243,0.14699 l 5.659144,12.36559 q 0.09187,0.18374 -0.01837,0.33073 -0.09187,0.14699 -0.293982,0.14699 H 33.81664 q -0.202112,0 -0.330729,-0.0735 -0.110243,-0.0919 -0.202112,-0.29398 l -0.900319,-1.98438 h -5.493779 l -0.900318,1.98438 q -0.05512,0.14699 -0.183738,0.25723 -0.128617,0.11024 -0.349103,0.11024 z m 7.625145,-4.39134 -1.837384,-4.04225 h -0.05512 l -1.800636,4.04225 z"
         style="font-style:normal;font-variant:normal;font-weight:normal;font-stretch:normal;font-family:'iCiel Brandon Text';-inkscape-font-specification:'iCiel Brandon Text';fill:#ffffff;fill-opacity:1;stroke-width:0.45934606"
         id="path4111" />
      <path
         d="m 37.343842,269.17513 q 0,-0.14699 0.09187,-0.23886 0.110243,-0.11025 0.257233,-0.11025 h 5.254919 q 0.826823,0 1.543403,0.31236 0.734954,0.31235 1.286169,0.8452 0.551215,0.53284 0.863571,1.24942 0.312355,0.71658 0.312355,1.5434 0,0.64308 -0.202112,1.21267 -0.202113,0.55122 -0.569589,1.02894 -0.349103,0.47772 -0.845197,0.86357 -0.496094,0.36748 -1.102431,0.60634 l 2.517217,4.66695 q 0.09187,0.18374 0,0.36748 -0.0735,0.16536 -0.312356,0.16536 h -1.929253 q -0.128617,0 -0.202112,-0.0551 -0.05512,-0.0551 -0.09187,-0.11024 l -2.443721,-4.86907 h -2.039496 v 4.68533 q 0,0.14699 -0.110243,0.25723 -0.09187,0.0919 -0.23886,0.0919 h -1.690394 q -0.14699,0 -0.257233,-0.0919 -0.09187,-0.11024 -0.09187,-0.25723 z m 5.40191,5.51215 q 0.367477,0 0.698206,-0.14699 0.330729,-0.14699 0.569589,-0.40423 0.257234,-0.25723 0.404225,-0.58796 0.14699,-0.3491 0.14699,-0.73495 0,-0.36748 -0.14699,-0.67983 -0.146991,-0.33073 -0.404225,-0.56959 -0.23886,-0.25724 -0.569589,-0.38585 -0.330729,-0.14699 -0.698206,-0.14699 h -2.994936 v 3.65639 z"
         style="font-style:normal;font-variant:normal;font-weight:normal;font-stretch:normal;font-family:'iCiel Brandon Text';-inkscape-font-specification:'iCiel Brandon Text';fill:#ffffff;fill-opacity:1;stroke-width:0.45934606"
         id="path4113" />
      <path
         d="m 52.982854,281.87145 q -0.86357,0 -1.543402,-0.16536 -0.661459,-0.14699 -1.157552,-0.36748 -0.47772,-0.23886 -0.808449,-0.47772 -0.33073,-0.25723 -0.532842,-0.4226 -0.146991,-0.11024 -0.183738,-0.22048 -0.03675,-0.11025 0.09187,-0.33073 l 0.661458,-1.13918 q 0.110243,-0.20211 0.293982,-0.20211 0.202112,-0.0184 0.330729,0.0735 0.569589,0.4226 1.212674,0.79008 0.661458,0.3491 1.561776,0.3491 0.71658,0 1.1943,-0.40422 0.47772,-0.4226 0.47772,-1.01057 0,-0.6982 -0.587963,-1.21267 -0.587963,-0.51447 -1.745515,-0.99219 -0.643085,-0.25723 -1.267795,-0.60633 -0.624711,-0.34911 -1.120805,-0.82683 -0.47772,-0.47772 -0.771701,-1.10243 -0.293982,-0.62471 -0.293982,-1.43316 0,-0.60633 0.23886,-1.23104 0.23886,-0.64309 0.734954,-1.13918 0.496094,-0.51447 1.267795,-0.82683 0.790075,-0.33072 1.892506,-0.33072 0.698206,0 1.304543,0.16536 0.62471,0.14699 1.10243,0.3491 0.47772,0.20212 0.790076,0.40423 0.330729,0.20211 0.477719,0.31235 0.146991,0.0919 0.165365,0.27561 0.03675,0.18374 -0.05512,0.33073 l -0.698206,1.04731 q -0.110243,0.16536 -0.293981,0.25723 -0.183738,0.0735 -0.349103,-0.0367 -0.587963,-0.36747 -1.1943,-0.67983 -0.587963,-0.33073 -1.359664,-0.33073 -0.790075,0 -1.212674,0.38585 -0.404224,0.36748 -0.404224,0.90032 0,0.64309 0.514467,1.12081 0.532842,0.47772 1.653646,0.93706 0.661458,0.27561 1.341291,0.62471 0.698206,0.34911 1.249421,0.8452 0.551215,0.47772 0.900318,1.13918 0.349103,0.66146 0.349103,1.5434 0,0.71658 -0.293981,1.37804 -0.293982,0.64308 -0.845197,1.15755 -0.551215,0.4961 -1.341291,0.80845 -0.771701,0.29398 -1.745515,0.29398 z"
         style="font-style:normal;font-variant:normal;font-weight:normal;font-stretch:normal;font-family:'iCiel Brandon Text';-inkscape-font-specification:'iCiel Brandon Text';fill:#ffffff;fill-opacity:1;stroke-width:0.45934606"
         id="path4115" />
    </g>
  </g>
</svg>
