<?xml version="1.0" encoding="UTF-8" standalone="no"?>
<!-- Created with Inkscape (http://www.inkscape.org/) -->

<svg
   xmlns:dc="http://purl.org/dc/elements/1.1/"
   xmlns:cc="http://creativecommons.org/ns#"
   xmlns:rdf="http://www.w3.org/1999/02/22-rdf-syntax-ns#"
   xmlns:svg="http://www.w3.org/2000/svg"
   xmlns="http://www.w3.org/2000/svg"
   xmlns:sodipodi="http://sodipodi.sourceforge.net/DTD/sodipodi-0.dtd"
   xmlns:inkscape="http://www.inkscape.org/namespaces/inkscape"
   width="327.13489"
   height="50"
   viewBox="0 0 86.554438 13.229167"
   version="1.1"
   id="svg2962"
   inkscape:version="0.92.3 (2405546, 2018-03-11)"
   sodipodi:docname="mercury-text.svg">
  <defs
     id="defs2956" />
  <sodipodi:namedview
     id="base"
     pagecolor="#ffffff"
     bordercolor="#666666"
     borderopacity="1.0"
     inkscape:pageopacity="0.0"
     inkscape:pageshadow="2"
     inkscape:zoom="1"
     inkscape:cx="-85.815061"
     inkscape:cy="41.040978"
     inkscape:document-units="px"
     inkscape:current-layer="layer1"
     showgrid="false"
     units="px"
     inkscape:pagecheckerboard="true"
     fit-margin-top="0"
     fit-margin-left="0"
     fit-margin-right="0"
     fit-margin-bottom="0"
     inkscape:window-width="1366"
     inkscape:window-height="745"
     inkscape:window-x="-8"
     inkscape:window-y="-8"
     inkscape:window-maximized="1" />
  <metadata
     id="metadata2959">
    <rdf:RDF>
      <cc:Work
         rdf:about="">
        <dc:format>image/svg+xml</dc:format>
        <dc:type
           rdf:resource="http://purl.org/dc/dcmitype/StillImage" />
        <dc:title></dc:title>
      </cc:Work>
    </rdf:RDF>
  </metadata>
  <g
     inkscape:label="Layer 1"
     inkscape:groupmode="layer"
     id="layer1"
     transform="translate(-8.2528715,-268.64229)">
    <g
       aria-label="MERCURY"
       style="font-style:normal;font-variant:normal;font-weight:normal;font-stretch:normal;font-size:18.37384224px;line-height:1.25;font-family:'iCiel Brandon Text';-inkscape-font-specification:'iCiel Brandon Text';letter-spacing:0px;word-spacing:0px;fill:#ffffff;fill-opacity:1;stroke:none;stroke-width:0.45934606"
       id="text3509">
      <path
         d="m 10.445973,268.91789 q 0.01837,-0.11024 0.09187,-0.18374 0.09187,-0.0919 0.238859,-0.0919 h 0.293982 q 0.220486,0 0.312355,0.18373 l 4.042246,8.67246 h 0.05512 l 4.042245,-8.67246 q 0.09187,-0.18373 0.312356,-0.18373 h 0.293981 q 0.146991,0 0.220486,0.0919 0.09187,0.0735 0.110243,0.18374 l 2.168114,12.34723 q 0.03675,0.20211 -0.05512,0.31235 -0.09187,0.11024 -0.275607,0.11024 h -1.67202 q -0.128617,0 -0.220486,-0.0919 -0.09187,-0.0919 -0.128617,-0.18373 l -1.084057,-6.96369 h -0.05512 l -3.215423,7.22092 q -0.0735,0.20211 -0.312355,0.20211 h -0.330729 q -0.220486,0 -0.312355,-0.20211 l -3.252171,-7.22092 h -0.05512 l -1.065683,6.96369 q -0.01837,0.0919 -0.110243,0.18373 -0.09187,0.0919 -0.220486,0.0919 H 8.6085891 q -0.4042245,0 -0.349103,-0.42259 z"
         style="font-style:normal;font-variant:normal;font-weight:normal;font-stretch:normal;font-family:'iCiel Brandon Text';-inkscape-font-specification:'iCiel Brandon Text';fill:#ffffff;fill-opacity:1;stroke-width:0.45934606"
         id="path4068" />
      <path
         d="m 25.070691,269.17513 q 0,-0.14699 0.09187,-0.23886 0.110243,-0.11025 0.257234,-0.11025 h 7.478154 q 0.146991,0 0.23886,0.11025 0.110243,0.0919 0.110243,0.23886 v 1.50665 q 0,0.14699 -0.110243,0.25724 -0.09187,0.0919 -0.23886,0.0919 h -5.438657 v 3.01331 h 4.538339 q 0.14699,0 0.23886,0.11024 0.110243,0.0919 0.110243,0.23886 v 1.52503 q 0,0.14699 -0.110243,0.25723 -0.09187,0.0919 -0.23886,0.0919 h -4.538339 v 3.21542 h 5.438657 q 0.146991,0 0.23886,0.11025 0.110243,0.0919 0.110243,0.23886 v 1.50665 q 0,0.14699 -0.110243,0.25723 -0.09187,0.0919 -0.23886,0.0919 h -7.478154 q -0.146991,0 -0.257234,-0.0919 -0.09187,-0.11024 -0.09187,-0.25723 z"
         style="font-style:normal;font-variant:normal;font-weight:normal;font-stretch:normal;font-family:'iCiel Brandon Text';-inkscape-font-specification:'iCiel Brandon Text';fill:#ffffff;fill-opacity:1;stroke-width:0.45934606"
         id="path4070" />
      <path
         d="m 35.657182,269.17513 q 0,-0.14699 0.09187,-0.23886 0.110243,-0.11025 0.257234,-0.11025 h 5.254919 q 0.826822,0 1.543402,0.31236 0.734954,0.31235 1.286169,0.8452 0.551216,0.53284 0.863571,1.24942 0.312355,0.71658 0.312355,1.5434 0,0.64308 -0.202112,1.21267 -0.202112,0.55122 -0.569589,1.02894 -0.349103,0.47772 -0.845197,0.86357 -0.496094,0.36748 -1.10243,0.60634 l 2.517216,4.66695 q 0.09187,0.18374 0,0.36748 -0.0735,0.16536 -0.312355,0.16536 H 42.82298 q -0.128617,0 -0.202112,-0.0551 -0.05512,-0.0551 -0.09187,-0.11024 l -2.443721,-4.86907 h -2.039497 v 4.68533 q 0,0.14699 -0.110243,0.25723 -0.09187,0.0919 -0.23886,0.0919 h -1.690393 q -0.146991,0 -0.257234,-0.0919 -0.09187,-0.11024 -0.09187,-0.25723 z m 5.401909,5.51215 q 0.367477,0 0.698206,-0.14699 0.330729,-0.14699 0.569589,-0.40423 0.257234,-0.25723 0.404225,-0.58796 0.146991,-0.3491 0.146991,-0.73495 0,-0.36748 -0.146991,-0.67983 -0.146991,-0.33073 -0.404225,-0.56959 -0.23886,-0.25724 -0.569589,-0.38585 -0.330729,-0.14699 -0.698206,-0.14699 h -2.994936 v 3.65639 z"
         style="font-style:normal;font-variant:normal;font-weight:normal;font-stretch:normal;font-family:'iCiel Brandon Text';-inkscape-font-specification:'iCiel Brandon Text';fill:#ffffff;fill-opacity:1;stroke-width:0.45934606"
         id="path4072" />
      <path
         d="m 47.033462,275.27524 q 0,-1.37804 0.514468,-2.59071 0.532841,-1.21267 1.414786,-2.09462 0.900318,-0.90032 2.112992,-1.41478 1.212673,-0.53284 2.590711,-0.53284 1.396412,0 2.443721,0.44097 1.065683,0.4226 2.002749,1.26779 0.275608,0.25724 0.01837,0.51447 l -1.120804,1.15755 q -0.220486,0.23886 -0.459346,0 -0.587963,-0.51446 -1.322917,-0.79007 -0.734954,-0.29398 -1.506655,-0.29398 -0.881945,0 -1.635272,0.3491 -0.753328,0.33073 -1.304543,0.91869 -0.532841,0.58796 -0.845197,1.37804 -0.312355,0.7717 -0.312355,1.63527 0,0.86357 0.312355,1.63527 0.312356,0.7717 0.863571,1.35967 0.551215,0.56959 1.304543,0.91869 0.753327,0.33073 1.635272,0.33073 0.826823,0 1.525029,-0.27561 0.698206,-0.29398 1.286169,-0.7717 0.110243,-0.0919 0.23886,-0.0919 0.128616,0 0.220486,0.0919 l 1.139178,1.17593 q 0.110243,0.0919 0.09187,0.25723 -0.01837,0.14699 -0.110243,0.23886 -0.937066,0.91869 -2.094618,1.35966 -1.139178,0.4226 -2.370226,0.4226 -1.378038,0 -2.590711,-0.51447 -1.212674,-0.51446 -2.112992,-1.39641 -0.881945,-0.90032 -1.414786,-2.09462 -0.514468,-1.21267 -0.514468,-2.59071 z"
         style="font-style:normal;font-variant:normal;font-weight:normal;font-stretch:normal;font-family:'iCiel Brandon Text';-inkscape-font-specification:'iCiel Brandon Text';fill:#ffffff;fill-opacity:1;stroke-width:0.45934606"
         id="path4074" />
      <path
         d="m 60.290188,269.17513 q 0,-0.14699 0.09187,-0.23886 0.110243,-0.11025 0.257234,-0.11025 h 1.745515 q 0.146991,0 0.23886,0.11025 0.110243,0.0919 0.110243,0.23886 v 7.66189 q 0,1.17593 0.71658,1.91088 0.734954,0.73495 1.947627,0.73495 0.606337,0 1.084057,-0.18374 0.496094,-0.20211 0.845197,-0.55121 0.367477,-0.3491 0.551215,-0.82682 0.202112,-0.47772 0.202112,-1.06569 v -7.68026 q 0,-0.14699 0.09187,-0.23886 0.110244,-0.11025 0.257234,-0.11025 h 1.745515 q 0.146991,0 0.23886,0.11025 0.110243,0.0919 0.110243,0.23886 v 7.79051 q 0,1.04731 -0.404224,1.94762 -0.385851,0.90032 -1.084057,1.56178 -0.679832,0.64308 -1.616898,1.02894 -0.937066,0.36747 -2.021123,0.36747 -1.084056,0 -2.021122,-0.36747 -0.918692,-0.38586 -1.616898,-1.02894 -0.679833,-0.66146 -1.084057,-1.56178 -0.385851,-0.90031 -0.385851,-1.94762 z"
         style="font-style:normal;font-variant:normal;font-weight:normal;font-stretch:normal;font-family:'iCiel Brandon Text';-inkscape-font-specification:'iCiel Brandon Text';fill:#ffffff;fill-opacity:1;stroke-width:0.45934606"
         id="path4076" />
      <path
         d="m 73.517346,269.17513 q 0,-0.14699 0.09187,-0.23886 0.110243,-0.11025 0.257233,-0.11025 h 5.254919 q 0.826823,0 1.543403,0.31236 0.734954,0.31235 1.286169,0.8452 0.551215,0.53284 0.863571,1.24942 0.312355,0.71658 0.312355,1.5434 0,0.64308 -0.202112,1.21267 -0.202113,0.55122 -0.56959,1.02894 -0.349103,0.47772 -0.845196,0.86357 -0.496094,0.36748 -1.102431,0.60634 l 2.517217,4.66695 q 0.09187,0.18374 0,0.36748 -0.0735,0.16536 -0.312356,0.16536 h -1.929253 q -0.128617,0 -0.202112,-0.0551 -0.05512,-0.0551 -0.09187,-0.11024 l -2.443721,-4.86907 h -2.039496 v 4.68533 q 0,0.14699 -0.110243,0.25723 -0.09187,0.0919 -0.23886,0.0919 h -1.690394 q -0.14699,0 -0.257233,-0.0919 -0.09187,-0.11024 -0.09187,-0.25723 z m 5.40191,5.51215 q 0.367477,0 0.698206,-0.14699 0.330729,-0.14699 0.569589,-0.40423 0.257234,-0.25723 0.404225,-0.58796 0.14699,-0.3491 0.14699,-0.73495 0,-0.36748 -0.14699,-0.67983 -0.146991,-0.33073 -0.404225,-0.56959 -0.23886,-0.25724 -0.569589,-0.38585 -0.330729,-0.14699 -0.698206,-0.14699 H 75.92432 v 3.65639 z"
         style="font-style:normal;font-variant:normal;font-weight:normal;font-stretch:normal;font-family:'iCiel Brandon Text';-inkscape-font-specification:'iCiel Brandon Text';fill:#ffffff;fill-opacity:1;stroke-width:0.45934606"
         id="path4078" />
      <path
         d="m 88.114219,275.49573 -4.189236,-6.13686 q -0.110243,-0.18374 -0.01837,-0.34911 0.09187,-0.18374 0.312355,-0.18374 h 1.874132 q 0.110243,0 0.183738,0.0551 0.0735,0.0551 0.110244,0.11024 l 2.939814,4.22598 2.939815,-4.22598 q 0.03675,-0.0551 0.110243,-0.11024 0.0735,-0.0551 0.183739,-0.0551 h 1.892505 q 0.220486,0 0.312356,0.18374 0.09187,0.16537 -0.01837,0.34911 l -4.244358,6.11848 v 5.86126 q 0,0.14699 -0.110243,0.25723 -0.09187,0.0919 -0.23886,0.0919 h -1.690393 q -0.146991,0 -0.257234,-0.0919 -0.09187,-0.11024 -0.09187,-0.25723 z"
         style="font-style:normal;font-variant:normal;font-weight:normal;font-stretch:normal;font-family:'iCiel Brandon Text';-inkscape-font-specification:'iCiel Brandon Text';fill:#ffffff;fill-opacity:1;stroke-width:0.45934606"
         id="path4080" />
    </g>
  </g>
</svg>
