<?xml version="1.0" encoding="UTF-8" standalone="no"?>
<!-- Created with Inkscape (http://www.inkscape.org/) -->

<svg
   xmlns:dc="http://purl.org/dc/elements/1.1/"
   xmlns:cc="http://creativecommons.org/ns#"
   xmlns:rdf="http://www.w3.org/1999/02/22-rdf-syntax-ns#"
   xmlns:svg="http://www.w3.org/2000/svg"
   xmlns="http://www.w3.org/2000/svg"
   xmlns:sodipodi="http://sodipodi.sourceforge.net/DTD/sodipodi-0.dtd"
   xmlns:inkscape="http://www.inkscape.org/namespaces/inkscape"
   width="303.79776"
   height="50.000126"
   viewBox="0 0 80.379823 13.2292"
   version="1.1"
   id="svg2962"
   inkscape:version="0.92.3 (2405546, 2018-03-11)"
   sodipodi:docname="neptune-text.svg">
  <defs
     id="defs2956" />
  <sodipodi:namedview
     id="base"
     pagecolor="#ffffff"
     bordercolor="#666666"
     borderopacity="1.0"
     inkscape:pageopacity="0.0"
     inkscape:pageshadow="2"
     inkscape:zoom="0.70710678"
     inkscape:cx="-102.21471"
     inkscape:cy="-97.926505"
     inkscape:document-units="px"
     inkscape:current-layer="layer1"
     showgrid="false"
     units="px"
     inkscape:pagecheckerboard="true"
     fit-margin-top="0"
     fit-margin-left="0"
     fit-margin-right="0"
     fit-margin-bottom="0"
     inkscape:window-width="1366"
     inkscape:window-height="745"
     inkscape:window-x="-8"
     inkscape:window-y="-8"
     inkscape:window-maximized="1" />
  <metadata
     id="metadata2959">
    <rdf:RDF>
      <cc:Work
         rdf:about="">
        <dc:format>image/svg+xml</dc:format>
        <dc:type
           rdf:resource="http://purl.org/dc/dcmitype/StillImage" />
        <dc:title></dc:title>
      </cc:Work>
    </rdf:RDF>
  </metadata>
  <g
     inkscape:label="Layer 1"
     inkscape:groupmode="layer"
     id="layer1"
     transform="translate(-8.9576921,-268.64225)">
    <g
       aria-label="NEPTUNE"
       style="font-style:normal;font-variant:normal;font-weight:normal;font-stretch:normal;font-size:18.37384224px;line-height:1.25;font-family:'iCiel Brandon Text';-inkscape-font-specification:'iCiel Brandon Text';letter-spacing:0px;word-spacing:0px;fill:#ffffff;fill-opacity:1;stroke:none;stroke-width:0.45934606"
       id="text3509">
      <path
         d="m 8.9576921,268.97301 q 0,-0.14699 0.091869,-0.23886 0.1102431,-0.0919 0.2572338,-0.0919 h 0.2756076 q 0.1837385,0 0.3123554,0.12861 l 7.4965281,7.99262 h 0.03675 v -7.58839 q 0,-0.14699 0.09187,-0.23886 0.110243,-0.11025 0.257233,-0.11025 h 1.690394 q 0.146991,0 0.23886,0.11025 0.110243,0.0919 0.110243,0.23886 v 12.36559 q 0,0.14699 -0.110243,0.23886 -0.09187,0.0919 -0.23886,0.0919 h -0.257234 q -0.183738,0 -0.312355,-0.12861 l -7.533276,-8.30498 h -0.03675 v 7.90075 q 0,0.14699 -0.110243,0.25723 -0.09187,0.0919 -0.23886,0.0919 H 9.3067951 q -0.1469907,0 -0.2572338,-0.0919 -0.091869,-0.11024 -0.091869,-0.25723 z"
         style="font-style:normal;font-variant:normal;font-weight:normal;font-stretch:normal;font-family:'iCiel Brandon Text';-inkscape-font-specification:'iCiel Brandon Text';fill:#ffffff;fill-opacity:1;stroke-width:0.45934606"
         id="path4118"
         inkscape:connector-curvature="0" />
      <path
         d="m 22.953392,269.17513 q 0,-0.14699 0.09187,-0.23886 0.110243,-0.11025 0.257234,-0.11025 h 7.478154 q 0.146991,0 0.23886,0.11025 0.110243,0.0919 0.110243,0.23886 v 1.50665 q 0,0.14699 -0.110243,0.25724 -0.09187,0.0919 -0.23886,0.0919 h -5.438658 v 3.01331 h 4.53834 q 0.14699,0 0.238859,0.11024 0.110244,0.0919 0.110244,0.23886 v 1.52503 q 0,0.14699 -0.110244,0.25723 -0.09187,0.0919 -0.238859,0.0919 h -4.53834 v 3.21542 h 5.438658 q 0.146991,0 0.23886,0.11025 0.110243,0.0919 0.110243,0.23886 v 1.50665 q 0,0.14699 -0.110243,0.25723 -0.09187,0.0919 -0.23886,0.0919 h -7.478154 q -0.146991,0 -0.257234,-0.0919 -0.09187,-0.11024 -0.09187,-0.25723 z"
         style="font-style:normal;font-variant:normal;font-weight:normal;font-stretch:normal;font-family:'iCiel Brandon Text';-inkscape-font-specification:'iCiel Brandon Text';fill:#ffffff;fill-opacity:1;stroke-width:0.45934606"
         id="path4120"
         inkscape:connector-curvature="0" />
      <path
         d="m 33.539884,269.17513 q 0,-0.14699 0.09187,-0.23886 0.110243,-0.11025 0.257234,-0.11025 h 4.317852 q 0.845197,0 1.598525,0.33073 0.753327,0.31236 1.304543,0.86357 0.569589,0.55122 0.881944,1.30455 0.330729,0.73495 0.330729,1.56177 0,0.86357 -0.330729,1.6169 -0.312355,0.73495 -0.881944,1.30454 -0.551216,0.56959 -1.304543,0.90032 -0.734954,0.31236 -1.580151,0.31236 h -2.29673 v 4.31785 q 0,0.14699 -0.110243,0.25723 -0.09187,0.0919 -0.23886,0.0919 h -1.690393 q -0.146991,0 -0.257234,-0.0919 -0.09187,-0.11024 -0.09187,-0.25723 z m 4.59346,5.60402 q 0.385851,0 0.71658,-0.14699 0.330729,-0.14699 0.569589,-0.40423 0.257234,-0.25723 0.385851,-0.60633 0.146991,-0.34911 0.146991,-0.75333 0,-0.38585 -0.146991,-0.69821 -0.128617,-0.33073 -0.385851,-0.56959 -0.23886,-0.23886 -0.569589,-0.36747 -0.330729,-0.14699 -0.71658,-0.14699 h -2.204861 v 3.69314 z"
         style="font-style:normal;font-variant:normal;font-weight:normal;font-stretch:normal;font-family:'iCiel Brandon Text';-inkscape-font-specification:'iCiel Brandon Text';fill:#ffffff;fill-opacity:1;stroke-width:0.45934606"
         id="path4122"
         inkscape:connector-curvature="0" />
      <path
         d="m 46.453824,271.03089 h -2.811198 q -0.146991,0 -0.257234,-0.0919 -0.09187,-0.11025 -0.09187,-0.25724 v -1.50665 q 0,-0.14699 0.09187,-0.23886 0.110243,-0.11025 0.257234,-0.11025 h 8.029369 q 0.146991,0 0.23886,0.11025 0.110243,0.0919 0.110243,0.23886 v 1.50665 q 0,0.14699 -0.110243,0.25724 -0.09187,0.0919 -0.23886,0.0919 h -2.811198 v 10.30772 q 0,0.14699 -0.110243,0.25723 -0.09187,0.0919 -0.23886,0.0919 h -1.708767 q -0.146991,0 -0.257234,-0.0919 -0.09187,-0.11024 -0.09187,-0.25723 z"
         style="font-style:normal;font-variant:normal;font-weight:normal;font-stretch:normal;font-family:'iCiel Brandon Text';-inkscape-font-specification:'iCiel Brandon Text';fill:#ffffff;fill-opacity:1;stroke-width:0.45934606"
         id="path4124"
         inkscape:connector-curvature="0" />
      <path
         d="m 53.938294,269.17513 q 0,-0.14699 0.09187,-0.23886 0.110243,-0.11025 0.257234,-0.11025 h 1.745515 q 0.146991,0 0.23886,0.11025 0.110243,0.0919 0.110243,0.23886 v 7.66189 q 0,1.17593 0.71658,1.91088 0.734953,0.73495 1.947627,0.73495 0.606337,0 1.084057,-0.18374 0.496093,-0.20211 0.845196,-0.55121 0.367477,-0.3491 0.551216,-0.82682 0.202112,-0.47772 0.202112,-1.06569 v -7.68026 q 0,-0.14699 0.09187,-0.23886 0.110243,-0.11025 0.257234,-0.11025 h 1.745515 q 0.146991,0 0.23886,0.11025 0.110243,0.0919 0.110243,0.23886 v 7.79051 q 0,1.04731 -0.404225,1.94762 -0.38585,0.90032 -1.084056,1.56178 -0.679832,0.64308 -1.616898,1.02894 -0.937066,0.36747 -2.021123,0.36747 -1.084057,0 -2.021123,-0.36747 -0.918692,-0.38586 -1.616898,-1.02894 -0.679832,-0.66146 -1.084057,-1.56178 -0.38585,-0.90031 -0.38585,-1.94762 z"
         style="font-style:normal;font-variant:normal;font-weight:normal;font-stretch:normal;font-family:'iCiel Brandon Text';-inkscape-font-specification:'iCiel Brandon Text';fill:#ffffff;fill-opacity:1;stroke-width:0.45934606"
         id="path4126"
         inkscape:connector-curvature="0" />
      <path
         d="m 67.165452,268.97301 q 0,-0.14699 0.09187,-0.23886 0.110243,-0.0919 0.257234,-0.0919 h 0.275608 q 0.183738,0 0.312355,0.12861 l 7.496528,7.99262 h 0.03675 v -7.58839 q 0,-0.14699 0.09187,-0.23886 0.110243,-0.11025 0.257234,-0.11025 h 1.690394 q 0.14699,0 0.23886,0.11025 0.110243,0.0919 0.110243,0.23886 v 12.36559 q 0,0.14699 -0.110243,0.23886 -0.09187,0.0919 -0.23886,0.0919 h -0.257234 q -0.183738,0 -0.312355,-0.12861 l -7.533276,-8.30498 h -0.03675 v 7.90075 q 0,0.14699 -0.110243,0.25723 -0.09187,0.0919 -0.23886,0.0919 h -1.67202 q -0.146991,0 -0.257234,-0.0919 -0.09187,-0.11024 -0.09187,-0.25723 z"
         style="font-style:normal;font-variant:normal;font-weight:normal;font-stretch:normal;font-family:'iCiel Brandon Text';-inkscape-font-specification:'iCiel Brandon Text';fill:#ffffff;fill-opacity:1;stroke-width:0.45934606"
         id="path4128"
         inkscape:connector-curvature="0" />
      <path
         d="m 81.161153,269.17513 q 0,-0.14699 0.09187,-0.23886 0.110243,-0.11025 0.257234,-0.11025 h 7.478154 q 0.14699,0 0.23886,0.11025 0.110243,0.0919 0.110243,0.23886 v 1.50665 q 0,0.14699 -0.110243,0.25724 -0.09187,0.0919 -0.23886,0.0919 h -5.438658 v 3.01331 h 4.538339 q 0.146991,0 0.23886,0.11024 0.110243,0.0919 0.110243,0.23886 v 1.52503 q 0,0.14699 -0.110243,0.25723 -0.09187,0.0919 -0.23886,0.0919 h -4.538339 v 3.21542 h 5.438658 q 0.14699,0 0.23886,0.11025 0.110243,0.0919 0.110243,0.23886 v 1.50665 q 0,0.14699 -0.110243,0.25723 -0.09187,0.0919 -0.23886,0.0919 h -7.478154 q -0.146991,0 -0.257234,-0.0919 -0.09187,-0.11024 -0.09187,-0.25723 z"
         style="font-style:normal;font-variant:normal;font-weight:normal;font-stretch:normal;font-family:'iCiel Brandon Text';-inkscape-font-specification:'iCiel Brandon Text';fill:#ffffff;fill-opacity:1;stroke-width:0.45934606"
         id="path4130"
         inkscape:connector-curvature="0" />
    </g>
  </g>
</svg>
