<?xml version="1.0" encoding="UTF-8" standalone="no"?>
<!-- Created with Inkscape (http://www.inkscape.org/) -->

<svg
   xmlns:dc="http://purl.org/dc/elements/1.1/"
   xmlns:cc="http://creativecommons.org/ns#"
   xmlns:rdf="http://www.w3.org/1999/02/22-rdf-syntax-ns#"
   xmlns:svg="http://www.w3.org/2000/svg"
   xmlns="http://www.w3.org/2000/svg"
   xmlns:sodipodi="http://sodipodi.sourceforge.net/DTD/sodipodi-0.dtd"
   xmlns:inkscape="http://www.inkscape.org/namespaces/inkscape"
   width="100"
   height="100"
   viewBox="0 0 26.458333 26.458334"
   version="1.1"
   id="svg4885"
   inkscape:version="0.92.3 (2405546, 2018-03-11)"
   sodipodi:docname="saturn.svg">
  <defs
     id="defs4879" />
  <sodipodi:namedview
     id="base"
     pagecolor="#ffffff"
     bordercolor="#666666"
     borderopacity="1.0"
     inkscape:pageopacity="0.0"
     inkscape:pageshadow="2"
     inkscape:zoom="1.4"
     inkscape:cx="59.966347"
     inkscape:cy="171.36188"
     inkscape:document-units="px"
     inkscape:current-layer="layer1"
     showgrid="false"
     inkscape:pagecheckerboard="true"
     units="px"
     inkscape:window-width="700"
     inkscape:window-height="736"
     inkscape:window-x="657"
     inkscape:window-y="0"
     inkscape:window-maximized="0" />
  <metadata
     id="metadata4882">
    <rdf:RDF>
      <cc:Work
         rdf:about="">
        <dc:format>image/svg+xml</dc:format>
        <dc:type
           rdf:resource="http://purl.org/dc/dcmitype/StillImage" />
        <dc:title></dc:title>
      </cc:Work>
    </rdf:RDF>
  </metadata>
  <g
     inkscape:label="Layer 1"
     inkscape:groupmode="layer"
     id="layer1"
     transform="translate(0,-270.54166)">
    <g
       transform="matrix(0.46227141,0,0,0.46227141,-30.792913,151.67507)"
       id="g5778">
      <circle
         transform="rotate(45)"
         style="opacity:1;fill:#e1cc7f;fill-opacity:1;stroke-width:0.26458332"
         id="circle926"
         cx="269.41318"
         cy="134.7171"
         r="15.875" />
      <path
         id="rect1063"
         d="m 82.324794,276.54512 a 15.875,15.875 0 0 0 -1.899752,3.58136 l 20.460998,20.461 a 15.875,15.875 0 0 0 3.56674,-1.91438 z"
         style="opacity:0.5;fill:#bb885d;fill-opacity:1;stroke:none;stroke-width:0.14107868"
         inkscape:connector-curvature="0" />
      <path
         id="rect1065"
         d="m 94.051821,269.94038 a 15.875,15.875 0 0 0 -5.916313,1.64323 l 21.283532,21.28353 a 15.875,15.875 0 0 0 1.63739,-5.92216 z"
         style="opacity:0.5;fill:#a0a25b;fill-opacity:1;stroke:none;stroke-width:0.26458332"
         inkscape:connector-curvature="0" />
      <path
         id="rect1067"
         d="m 100.03792,270.63539 a 15.875,15.875 0 0 0 -5.986099,-0.69501 l 17.004609,17.0046 a 15.875,15.875 0 0 0 -0.69648,-5.98756 z"
         style="opacity:0.5;fill:#bba785;fill-opacity:1;stroke:none;stroke-width:0.26458332"
         inkscape:connector-curvature="0" />
      <path
         id="rect1069"
         d="m 80.425042,280.12648 a 15.875,15.875 0 0 0 -0.571855,9.44468 l 11.588536,11.58853 a 15.875,15.875 0 0 0 9.444317,-0.57221 z"
         style="opacity:0.5;fill:#c1916b;fill-opacity:1;stroke:none;stroke-width:0.19072178"
         inkscape:connector-curvature="0" />
      <path
         id="rect1071"
         d="m 106.46983,274.53794 a 15.875,15.875 0 0 0 -6.43191,-3.90255 l 10.32203,10.32203 a 15.875,15.875 0 0 0 -3.89012,-6.41948 z"
         style="opacity:0.6;fill:#626262;fill-opacity:1;stroke:none;stroke-width:0.26458332"
         inkscape:connector-curvature="0" />
      <path
         id="rect1073"
         d="m 79.853187,289.57116 a 15.875,15.875 0 0 0 4.166001,7.41742 15.875,15.875 0 0 0 7.422535,4.17111 z"
         style="opacity:0.5;fill:#8c764f;fill-opacity:1;stroke:none;stroke-width:0.14107868"
         inkscape:connector-curvature="0" />
      <path
         inkscape:connector-curvature="0"
         id="path1107"
         d="m 110.38178,290.40237 a 15.875,15.875 0 0 1 -0.30912,0.95882 35.71875,7.1437499 45 0 1 10.41557,19.64577 35.71875,7.1437499 45 0 1 -30.308366,-20.20557 35.71875,7.1437499 45 0 1 -20.205576,-30.30837 35.71875,7.1437499 45 0 1 19.661848,10.43531 15.875,15.875 0 0 1 0.93289,-0.3285 39.6875,7.9374999 45 0 0 -23.401068,-12.91314 39.6875,7.9374999 45 0 0 22.45064,33.67596 39.6875,7.9374999 45 0 0 33.675962,22.45064 39.6875,7.9374999 45 0 0 -12.91278,-23.41092 z"
         style="opacity:0.8;fill:#fff4ce;fill-opacity:1;stroke:none;stroke-width:0.2527037" />
      <path
         inkscape:connector-curvature="0"
         id="circle1115"
         d="m 89.327375,271.04635 a 34.39583,6.8791666 45 0 0 -18.417644,-9.61788 34.39583,6.8791666 45 0 0 19.457219,29.18583 34.39583,6.8791666 45 0 0 29.18583,19.45722 34.39583,6.8791666 45 0 0 -9.61057,-18.41033 15.875,15.875 0 0 1 -0.87479,1.81462 26.458332,5.2916666 45 0 1 4.8727,10.98305 26.458332,5.2916666 45 0 1 -22.450638,-14.96709 26.458332,5.2916666 45 0 1 -14.967091,-22.45064 26.458332,5.2916666 45 0 1 10.970628,4.86832 15.875,15.875 0 0 1 1.834356,-0.8631 z"
         style="opacity:0.8;fill:#fff4ce;fill-opacity:1;stroke:none;stroke-width:0.21900985" />
      <path
         inkscape:connector-curvature="0"
         id="circle1119"
         d="m 87.496317,271.90762 a 26.458332,5.2916666 45 0 0 -10.973926,-4.86649 26.458332,5.2916666 45 0 0 14.967091,22.45064 26.458332,5.2916666 45 0 0 22.450638,14.96709 26.458332,5.2916666 45 0 0 -4.87488,-10.97941 15.875,15.875 0 0 1 -0.56385,0.94679 22.489583,4.4979169 45 0 1 2.6324,7.22629 22.489583,4.4979169 45 0 1 -19.083042,-12.72203 22.489583,4.4979169 45 0 1 -12.722027,-19.08304 22.489583,4.4979169 45 0 1 7.241285,2.63714 15.875,15.875 0 0 1 0.926311,-0.57698 z"
         style="opacity:0.5;fill:#beaf91;fill-opacity:1;stroke:none;stroke-width:0.16846913" />
    </g>
  </g>
</svg>
