<?xml version="1.0" encoding="UTF-8" standalone="no"?>
<!-- Created with Inkscape (http://www.inkscape.org/) -->

<svg
   xmlns:dc="http://purl.org/dc/elements/1.1/"
   xmlns:cc="http://creativecommons.org/ns#"
   xmlns:rdf="http://www.w3.org/1999/02/22-rdf-syntax-ns#"
   xmlns:svg="http://www.w3.org/2000/svg"
   xmlns="http://www.w3.org/2000/svg"
   xmlns:sodipodi="http://sodipodi.sourceforge.net/DTD/sodipodi-0.dtd"
   xmlns:inkscape="http://www.inkscape.org/namespaces/inkscape"
   width="273.86285"
   height="50.000351"
   viewBox="0 0 72.459546 13.22926"
   version="1.1"
   id="svg2962"
   inkscape:version="0.92.3 (2405546, 2018-03-11)"
   sodipodi:docname="uranus-text.svg">
  <defs
     id="defs2956" />
  <sodipodi:namedview
     id="base"
     pagecolor="#ffffff"
     bordercolor="#666666"
     borderopacity="1.0"
     inkscape:pageopacity="0.0"
     inkscape:pageshadow="2"
     inkscape:zoom="0.70710678"
     inkscape:cx="-104.31718"
     inkscape:cy="-97.926103"
     inkscape:document-units="px"
     inkscape:current-layer="layer1"
     showgrid="false"
     units="px"
     inkscape:pagecheckerboard="true"
     fit-margin-top="0"
     fit-margin-left="0"
     fit-margin-right="0"
     fit-margin-bottom="0"
     inkscape:window-width="1366"
     inkscape:window-height="745"
     inkscape:window-x="-8"
     inkscape:window-y="-8"
     inkscape:window-maximized="1" />
  <metadata
     id="metadata2959">
    <rdf:RDF>
      <cc:Work
         rdf:about="">
        <dc:format>image/svg+xml</dc:format>
        <dc:type
           rdf:resource="http://purl.org/dc/dcmitype/StillImage" />
        <dc:title></dc:title>
      </cc:Work>
    </rdf:RDF>
  </metadata>
  <g
     inkscape:label="Layer 1"
     inkscape:groupmode="layer"
     id="layer1"
     transform="translate(-8.829075,-268.64225)">
    <g
       aria-label="URANUS"
       style="font-style:normal;font-variant:normal;font-weight:normal;font-stretch:normal;font-size:18.37384224px;line-height:1.25;font-family:'iCiel Brandon Text';-inkscape-font-specification:'iCiel Brandon Text';letter-spacing:0px;word-spacing:0px;fill:#ffffff;fill-opacity:1;stroke:none;stroke-width:0.45934606"
       id="text3509">
      <path
         d="m 8.8290752,269.17513 q 0,-0.14699 0.091869,-0.23886 0.1102431,-0.11025 0.2572338,-0.11025 h 1.745515 q 0.146991,0 0.23886,0.11025 0.110243,0.0919 0.110243,0.23886 v 7.66189 q 0,1.17593 0.71658,1.91088 0.734954,0.73495 1.947627,0.73495 0.606337,0 1.084057,-0.18374 0.496094,-0.20211 0.845197,-0.55121 0.367477,-0.3491 0.551215,-0.82682 0.202112,-0.47772 0.202112,-1.06569 v -7.68026 q 0,-0.14699 0.09187,-0.23886 0.110243,-0.11025 0.257233,-0.11025 h 1.745515 q 0.146991,0 0.23886,0.11025 0.110243,0.0919 0.110243,0.23886 v 7.79051 q 0,1.04731 -0.404224,1.94762 -0.385851,0.90032 -1.084057,1.56178 -0.679832,0.64308 -1.616898,1.02894 -0.937066,0.36747 -2.021123,0.36747 -1.084056,0 -2.021122,-0.36747 -0.918692,-0.38586 -1.616898,-1.02894 -0.6798328,-0.66146 -1.0840573,-1.56178 -0.3858507,-0.90031 -0.3858507,-1.94762 z"
         style="font-style:normal;font-variant:normal;font-weight:normal;font-stretch:normal;font-family:'iCiel Brandon Text';-inkscape-font-specification:'iCiel Brandon Text';fill:#ffffff;fill-opacity:1;stroke-width:0.45934606"
         id="path4146"
         inkscape:connector-curvature="0" />
      <path
         d="m 22.056232,269.17513 q 0,-0.14699 0.09187,-0.23886 0.110243,-0.11025 0.257233,-0.11025 h 5.254919 q 0.826823,0 1.543403,0.31236 0.734954,0.31235 1.286169,0.8452 0.551215,0.53284 0.863571,1.24942 0.312355,0.71658 0.312355,1.5434 0,0.64308 -0.202112,1.21267 -0.202113,0.55122 -0.569589,1.02894 -0.349103,0.47772 -0.845197,0.86357 -0.496094,0.36748 -1.102431,0.60634 l 2.517217,4.66695 q 0.09187,0.18374 0,0.36748 -0.0735,0.16536 -0.312356,0.16536 h -1.929253 q -0.128617,0 -0.202112,-0.0551 -0.05512,-0.0551 -0.09187,-0.11024 l -2.443721,-4.86907 h -2.039496 v 4.68533 q 0,0.14699 -0.110243,0.25723 -0.09187,0.0919 -0.23886,0.0919 h -1.690394 q -0.14699,0 -0.257233,-0.0919 -0.09187,-0.11024 -0.09187,-0.25723 z m 5.40191,5.51215 q 0.367477,0 0.698206,-0.14699 0.330729,-0.14699 0.569589,-0.40423 0.257234,-0.25723 0.404225,-0.58796 0.14699,-0.3491 0.14699,-0.73495 0,-0.36748 -0.14699,-0.67983 -0.146991,-0.33073 -0.404225,-0.56959 -0.23886,-0.25724 -0.569589,-0.38585 -0.330729,-0.14699 -0.698206,-0.14699 h -2.994936 v 3.65639 z"
         style="font-style:normal;font-variant:normal;font-weight:normal;font-stretch:normal;font-family:'iCiel Brandon Text';-inkscape-font-specification:'iCiel Brandon Text';fill:#ffffff;fill-opacity:1;stroke-width:0.45934606"
         id="path4148"
         inkscape:connector-curvature="0" />
      <path
         d="m 32.973166,281.68771 q -0.202112,0 -0.312355,-0.14699 -0.09187,-0.14699 0,-0.33073 l 5.714265,-12.36559 q 0.09187,-0.20211 0.312355,-0.20211 h 0.183738 q 0.146991,0 0.202113,0.0551 0.0735,0.0551 0.110243,0.14699 l 5.659143,12.36559 q 0.09187,0.18374 -0.01837,0.33073 -0.09187,0.14699 -0.293981,0.14699 h -1.598524 q -0.202113,0 -0.33073,-0.0735 -0.110243,-0.0919 -0.202112,-0.29398 l -0.900318,-1.98438 H 36.00485 l -0.900318,1.98438 q -0.05512,0.14699 -0.183739,0.25723 -0.128617,0.11024 -0.349103,0.11024 z m 7.625145,-4.39134 -1.837385,-4.04225 h -0.05512 l -1.800637,4.04225 z"
         style="font-style:normal;font-variant:normal;font-weight:normal;font-stretch:normal;font-family:'iCiel Brandon Text';-inkscape-font-specification:'iCiel Brandon Text';fill:#ffffff;fill-opacity:1;stroke-width:0.45934606"
         id="path4150"
         inkscape:connector-curvature="0" />
      <path
         d="m 46.458993,268.97301 q 0,-0.14699 0.09187,-0.23886 0.110243,-0.0919 0.257234,-0.0919 h 0.275608 q 0.183738,0 0.312355,0.12861 l 7.496527,7.99262 h 0.03675 v -7.58839 q 0,-0.14699 0.09187,-0.23886 0.110243,-0.11025 0.257234,-0.11025 h 1.690394 q 0.14699,0 0.23886,0.11025 0.110243,0.0919 0.110243,0.23886 v 12.36559 q 0,0.14699 -0.110243,0.23886 -0.09187,0.0919 -0.23886,0.0919 h -0.257234 q -0.183739,0 -0.312355,-0.12861 l -7.533276,-8.30498 h -0.03675 v 7.90075 q 0,0.14699 -0.110243,0.25723 -0.09187,0.0919 -0.23886,0.0919 h -1.67202 q -0.146991,0 -0.257234,-0.0919 -0.09187,-0.11024 -0.09187,-0.25723 z"
         style="font-style:normal;font-variant:normal;font-weight:normal;font-stretch:normal;font-family:'iCiel Brandon Text';-inkscape-font-specification:'iCiel Brandon Text';fill:#ffffff;fill-opacity:1;stroke-width:0.45934606"
         id="path4152"
         inkscape:connector-curvature="0" />
      <path
         d="m 60.326077,269.17513 q 0,-0.14699 0.09187,-0.23886 0.110243,-0.11025 0.257234,-0.11025 h 1.745515 q 0.146991,0 0.23886,0.11025 0.110243,0.0919 0.110243,0.23886 v 7.66189 q 0,1.17593 0.71658,1.91088 0.734953,0.73495 1.947627,0.73495 0.606337,0 1.084057,-0.18374 0.496093,-0.20211 0.845196,-0.55121 0.367477,-0.3491 0.551216,-0.82682 0.202112,-0.47772 0.202112,-1.06569 v -7.68026 q 0,-0.14699 0.09187,-0.23886 0.110243,-0.11025 0.257234,-0.11025 h 1.745515 q 0.146991,0 0.23886,0.11025 0.110243,0.0919 0.110243,0.23886 v 7.79051 q 0,1.04731 -0.404225,1.94762 -0.38585,0.90032 -1.084056,1.56178 -0.679832,0.64308 -1.616898,1.02894 -0.937066,0.36747 -2.021123,0.36747 -1.084057,0 -2.021123,-0.36747 -0.918692,-0.38586 -1.616898,-1.02894 -0.679832,-0.66146 -1.084056,-1.56178 -0.385851,-0.90031 -0.385851,-1.94762 z"
         style="font-style:normal;font-variant:normal;font-weight:normal;font-stretch:normal;font-family:'iCiel Brandon Text';-inkscape-font-specification:'iCiel Brandon Text';fill:#ffffff;fill-opacity:1;stroke-width:0.45934606"
         id="path4154"
         inkscape:connector-curvature="0" />
      <path
         d="m 77.062639,281.87145 q -0.863571,0 -1.543403,-0.16536 -0.661458,-0.14699 -1.157552,-0.36748 -0.47772,-0.23886 -0.808449,-0.47772 -0.330729,-0.25723 -0.532841,-0.4226 -0.146991,-0.11024 -0.183739,-0.22048 -0.03675,-0.11025 0.09187,-0.33073 l 0.661459,-1.13918 q 0.110243,-0.20211 0.293981,-0.20211 0.202112,-0.0184 0.330729,0.0735 0.569589,0.4226 1.212674,0.79008 0.661458,0.3491 1.561777,0.3491 0.716579,0 1.194299,-0.40422 0.47772,-0.4226 0.47772,-1.01057 0,-0.6982 -0.587963,-1.21267 -0.587963,-0.51447 -1.745515,-0.99219 -0.643084,-0.25723 -1.267795,-0.60633 -0.624711,-0.34911 -1.120804,-0.82683 -0.47772,-0.47772 -0.771702,-1.10243 -0.293981,-0.62471 -0.293981,-1.43316 0,-0.60633 0.23886,-1.23104 0.23886,-0.64309 0.734953,-1.13918 0.496094,-0.51447 1.267796,-0.82683 0.790075,-0.33072 1.892505,-0.33072 0.698206,0 1.304543,0.16536 0.624711,0.14699 1.102431,0.3491 0.47772,0.20212 0.790075,0.40423 0.330729,0.20211 0.47772,0.31235 0.146991,0.0919 0.165364,0.27561 0.03675,0.18374 -0.05512,0.33073 l -0.698206,1.04731 q -0.110243,0.16536 -0.293982,0.25723 -0.183738,0.0735 -0.349103,-0.0367 -0.587963,-0.36747 -1.194299,-0.67983 -0.587963,-0.33073 -1.359665,-0.33073 -0.790075,0 -1.212673,0.38585 -0.404225,0.36748 -0.404225,0.90032 0,0.64309 0.514468,1.12081 0.532841,0.47772 1.653646,0.93706 0.661458,0.27561 1.34129,0.62471 0.698206,0.34911 1.249421,0.8452 0.551216,0.47772 0.900319,1.13918 0.349103,0.66146 0.349103,1.5434 0,0.71658 -0.293982,1.37804 -0.293981,0.64308 -0.845197,1.15755 -0.551215,0.4961 -1.34129,0.80845 -0.771701,0.29398 -1.745515,0.29398 z"
         style="font-style:normal;font-variant:normal;font-weight:normal;font-stretch:normal;font-family:'iCiel Brandon Text';-inkscape-font-specification:'iCiel Brandon Text';fill:#ffffff;fill-opacity:1;stroke-width:0.45934606"
         id="path4156"
         inkscape:connector-curvature="0" />
    </g>
  </g>
</svg>
